<?xml version="1.0"?>
<svg width="342" height="578" xmlns="http://www.w3.org/2000/svg" version="1.1">
 <polygon points="4,575 4,4 339,4 339,575 4,575" stroke="#ffffff" fill="#ffffff"/>
 <polygon points="213,122 88,168 213,214 338,168 213,122" stroke="#0000ff" fill="#ffffff"/>
 <text x="198" y="161" fill="#000000" font-family="Arial" font-size="12">2 - if</text>
 <text x="159" y="180" fill="#000000" font-family="Arial" font-size="12">5,3,6,3,10,8,3,8</text>
 <polygon points="172,270 70,270 70,316 172,316 172,270" stroke="#0000ff" fill="#ffffff"/>
 <text x="83" y="286" fill="#000000" font-family="Arial" font-size="12">3 - passive</text>
 <text x="78" y="305" fill="#000000" font-family="Arial" font-size="12">35,4,0,4,0,,4</text>
 <polyline points="186,205 182,211 177,217 173,223 168,229 163,235 158,242 154,248 149,254 145,259 141,265" stroke="#00ff00" fill="none"/>
 <text x="165" y="244" fill="#000000" font-family="Arial" font-size="12">yes</text>
 <polygon points="142,267 138,270 139,265 142,267" stroke="#00ff00" fill="#00ff00"/>
 <polygon points="285,494 139,494 139,573 285,573 285,494" stroke="#a52a2a" fill="#ffffff"/>
 <text x="147" y="510" fill="#000000" font-family="Arial" font-size="12">9 - passive-implicit</text>
 <text x="191" y="529" fill="#000000" font-family="Arial" font-size="12">36,,,,,,</text>
 <text x="199" y="562" fill="#000000" font-family="Arial" font-size="12">end</text>
 <polyline points="213,214 213,237 213,263 213,291 213,321 213,352 212,383 212,412 212,441 212,466 212,489" stroke="#ff0000" fill="none"/>
 <text x="214" y="346" fill="#000000" font-family="Arial" font-size="12">no</text>
 <polygon points="214,489 212,494 210,489 214,489" stroke="#ff0000" fill="#ff0000"/>
 <polygon points="286,4 140,4 140,83 286,83 286,4" stroke="#006400" fill="#ffffff"/>
 <text x="148" y="20" fill="#000000" font-family="Arial" font-size="12">1 - passive-implicit</text>
 <text x="188" y="39" fill="#000000" font-family="Arial" font-size="12">36,,,,,,2</text>
 <text x="198" y="72" fill="#000000" font-family="Arial" font-size="12">start</text>
 <polyline points="213,84 213,87 213,90 213,93 213,97 213,100 213,104 213,107 213,110 213,114 213,117" stroke="#000000" fill="none"/>
 <polygon points="215,117 213,122 211,117 215,117" stroke="#000000" fill="#000000"/>
 <ellipse cx="98" cy="405" rx="94" ry="33" stroke="#0000ff" fill="#ffffff"/>
 <text x="58" y="398" fill="#000000" font-family="Arial" font-size="12">4 - while-for</text>
 <text x="39" y="417" fill="#000000" font-family="Arial" font-size="12">10,5,5,5,26,6,5,7</text>
 <polyline points="116,316 115,321 114,325 113,330 112,336 111,341 110,346 109,351 108,357 107,362 106,367" stroke="#000000" fill="none"/>
 <polygon points="107,368 105,372 104,367 107,368" stroke="#000000" fill="#000000"/>
 <polygon points="118,511 16,511 16,557 118,557 118,511" stroke="#0000ff" fill="#ffffff"/>
 <text x="29" y="527" fill="#000000" font-family="Arial" font-size="12">5 - passive</text>
 <text x="24" y="546" fill="#000000" font-family="Arial" font-size="12">35,6,4,6,4,,6</text>
 <polyline points="72,436 71,438 70,440 69,442 68,444 67,446 66,448 65,450 64,452 64,454 63,456 62,461 61,466 60,471 60,476 59,481 59,487 60,492 60,497 60,501 61,506" stroke="#00ff00" fill="none"/>
 <text x="63" y="468" fill="#000000" font-family="Arial" font-size="12">yes</text>
 <polygon points="63,506 62,511 59,506 63,506" stroke="#00ff00" fill="#00ff00"/>
 <polyline points="125,436 130,441 134,447 139,452 144,457 149,463 154,469 159,474 164,479 169,485 174,490" stroke="#ff0000" fill="none"/>
 <text x="160" y="468" fill="#000000" font-family="Arial" font-size="12">no</text>
 <polygon points="175,489 177,494 172,492 175,489" stroke="#ff0000" fill="#ff0000"/>
 <polyline points="76,511 77,508 78,504 80,501 81,497 82,494 83,490 84,487 85,483 86,480 87,476 88,473 89,469 89,466 90,463 91,460 91,456 92,453 92,450 93,446 93,443" stroke="#000000" fill="none"/>
 <polygon points="92,442 94,438 95,443 92,442" stroke="#000000" fill="#000000"/>
</svg>
