<?xml version="1.0"?>
<svg width="368" height="710" xmlns="http://www.w3.org/2000/svg" version="1.1">
 <polygon points="4,707 4,4 365,4 365,707 4,707" stroke="#ffffff" fill="#ffffff"/>
 <polygon points="342,122 240,122 240,168 342,168 342,122" stroke="#0000ff" fill="#ffffff"/>
 <text x="253" y="138" fill="#000000" font-family="Arial" font-size="12">2 - passive</text>
 <text x="248" y="157" fill="#000000" font-family="Arial" font-size="12">35,8,2,8,6,,3</text>
 <polygon points="347,206 235,206 235,252 347,252 347,206" stroke="#0000ff" fill="#ffffff"/>
 <text x="265" y="222" fill="#000000" font-family="Arial" font-size="12">3 - goto</text>
 <text x="243" y="241" fill="#000000" font-family="Arial" font-size="12">28,8,9,8,14,,6</text>
 <polyline points="291,168 291,171 291,174 291,177 291,181 291,184 291,188 291,191 291,194 291,198 291,201" stroke="#000000" fill="none"/>
 <polygon points="293,201 291,206 289,201 293,201" stroke="#000000" fill="#000000"/>
 <polygon points="364,4 218,4 218,83 364,83 364,4" stroke="#006400" fill="#ffffff"/>
 <text x="226" y="20" fill="#000000" font-family="Arial" font-size="12">1 - passive-implicit</text>
 <text x="266" y="39" fill="#000000" font-family="Arial" font-size="12">36,,,,,,2</text>
 <text x="276" y="72" fill="#000000" font-family="Arial" font-size="12">start</text>
 <polyline points="291,84 291,87 291,91 291,94 291,97 291,101 291,104 291,108 291,111 291,114 291,117" stroke="#000000" fill="none"/>
 <polygon points="293,117 291,122 289,117 293,117" stroke="#000000" fill="#000000"/>
 <polygon points="351,290 231,290 231,336 351,336 351,290" stroke="#0000ff" fill="#ffffff"/>
 <text x="253" y="306" fill="#000000" font-family="Arial" font-size="12">6 - passive</text>
 <text x="239" y="325" fill="#000000" font-family="Arial" font-size="12">35,10,2,10,2,,7</text>
 <polyline points="291,252 291,255 291,258 291,261 291,265 291,268 291,272 291,275 291,278 291,282 291,285" stroke="#000000" fill="none"/>
 <polygon points="293,285 291,290 289,285 293,285" stroke="#000000" fill="#000000"/>
 <polygon points="165,374 24,420 165,466 306,420 165,374" stroke="#0000ff" fill="#ffffff"/>
 <text x="150" y="413" fill="#000000" font-family="Arial" font-size="12">7 - if</text>
 <text x="103" y="432" fill="#000000" font-family="Arial" font-size="12">5,11,8,11,13,9,8,9</text>
 <polyline points="265,336 260,340 254,345 249,349 243,354 237,359 231,364 225,368 220,373 214,378 208,383" stroke="#000000" fill="none"/>
 <polygon points="209,385 204,387 207,382 209,385" stroke="#000000" fill="#000000"/>
 <polygon points="359,640 163,640 163,705 359,705 359,640" stroke="#0000ff" fill="#ffffff"/>
 <text x="223" y="656" fill="#000000" font-family="Arial" font-size="12">4 - passive</text>
 <text x="171" y="675" fill="#000000" font-family="Arial" font-size="12">35,8,20,8,20,,55 - passive</text>
 <text x="209" y="694" fill="#000000" font-family="Arial" font-size="12">35,8,26,8,31,,6</text>
 <polyline points="292,640 295,637 297,633 300,630 302,626 305,622 307,618 309,614 311,610 312,606 314,602 315,593 316,575 317,551 318,522 318,491 318,460 317,431 317,405 316,386 315,374 314,371 314,367 313,364 312,361 311,357 309,354 308,350 307,347 305,344 304,341" stroke="#000000" fill="none"/>
 <polygon points="303,341 302,336 306,340 303,341" stroke="#000000" fill="#000000"/>
 <polygon points="132,539 4,539 4,585 132,585 132,539" stroke="#0000ff" fill="#ffffff"/>
 <text x="42" y="555" fill="#000000" font-family="Arial" font-size="12">8 - goto</text>
 <text x="12" y="574" fill="#000000" font-family="Arial" font-size="12">28,12,6,12,11,,4</text>
 <polyline points="140,458 135,465 129,473 124,481 118,489 112,497 107,505 101,513 96,521 91,528 86,535" stroke="#00ff00" fill="none"/>
 <text x="120" y="496" fill="#000000" font-family="Arial" font-size="12">yes</text>
 <polygon points="88,536 83,539 85,534 88,536" stroke="#00ff00" fill="#00ff00"/>
 <polygon points="305,522 151,522 151,601 305,601 305,522" stroke="#a52a2a" fill="#ffffff"/>
 <text x="159" y="538" fill="#000000" font-family="Arial" font-size="12">10 - passive-implicit</text>
 <text x="207" y="557" fill="#000000" font-family="Arial" font-size="12">36,,,,,,</text>
 <text x="215" y="590" fill="#000000" font-family="Arial" font-size="12">end</text>
 <polyline points="183,460 185,465 188,471 190,477 193,483 196,489 198,495 201,500 204,506 206,512 209,518" stroke="#ff0000" fill="none"/>
 <text x="204" y="496" fill="#000000" font-family="Arial" font-size="12">no</text>
 <polygon points="210,517 211,522 207,519 210,517" stroke="#ff0000" fill="#ff0000"/>
 <polyline points="107,585 115,590 124,595 133,600 143,605 153,611 162,616 172,622 182,627 192,633 201,638" stroke="#000000" fill="none"/>
 <polygon points="202,636 205,640 200,640 202,636" stroke="#000000" fill="#000000"/>
</svg>
