<?xml version="1.0"?>
<svg width="275" height="412" xmlns="http://www.w3.org/2000/svg" version="1.1">
 <polygon points="4,409 4,4 272,4 272,409 4,409" stroke="#ffffff" fill="#ffffff"/>
 <polygon points="150,122 38,122 38,168 150,168 150,122" stroke="#0000ff" fill="#ffffff"/>
 <text x="56" y="138" fill="#000000" font-family="Arial" font-size="12">2 - passive</text>
 <text x="46" y="157" fill="#000000" font-family="Arial" font-size="12">35,4,2,4,10,,3</text>
 <ellipse cx="94" cy="239" rx="88" ry="33" stroke="#0000ff" fill="#ffffff"/>
 <text x="54" y="232" fill="#000000" font-family="Arial" font-size="12">3 - while-for</text>
 <text x="40" y="251" fill="#000000" font-family="Arial" font-size="12">10,5,9,5,9,5,4,6</text>
 <polyline points="94,168 94,171 94,174 94,177 94,181 94,184 94,188 94,191 94,194 94,198 94,201" stroke="#000000" fill="none"/>
 <polygon points="96,201 94,206 92,201 96,201" stroke="#000000" fill="#000000"/>
 <polygon points="167,4 21,4 21,83 167,83 167,4" stroke="#006400" fill="#ffffff"/>
 <text x="29" y="20" fill="#000000" font-family="Arial" font-size="12">1 - passive-implicit</text>
 <text x="69" y="39" fill="#000000" font-family="Arial" font-size="12">36,,,,,,2</text>
 <text x="79" y="72" fill="#000000" font-family="Arial" font-size="12">start</text>
 <polyline points="94,84 94,87 94,91 94,94 94,97 94,101 94,104 94,108 94,111 94,114 94,117" stroke="#000000" fill="none"/>
 <polygon points="96,117 94,122 92,117 96,117" stroke="#000000" fill="#000000"/>
 <polygon points="106,345 4,345 4,391 106,391 106,345" stroke="#0000ff" fill="#ffffff"/>
 <text x="17" y="361" fill="#000000" font-family="Arial" font-size="12">4 - passive</text>
 <text x="12" y="380" fill="#000000" font-family="Arial" font-size="12">35,6,4,6,8,,5</text>
 <polyline points="67,270 66,272 64,274 63,276 62,278 60,280 59,282 58,284 57,286 57,288 56,290 55,295 53,300 53,305 52,310 51,315 51,320 51,325 51,330 51,334 51,339" stroke="#00ff00" fill="none"/>
 <text x="56" y="302" fill="#000000" font-family="Arial" font-size="12">yes</text>
 <polygon points="53,340 52,345 50,340 53,340" stroke="#00ff00" fill="#00ff00"/>
 <polygon points="271,328 125,328 125,407 271,407 271,328" stroke="#a52a2a" fill="#ffffff"/>
 <text x="133" y="344" fill="#000000" font-family="Arial" font-size="12">7 - passive-implicit</text>
 <text x="177" y="363" fill="#000000" font-family="Arial" font-size="12">36,,,,,,</text>
 <text x="185" y="396" fill="#000000" font-family="Arial" font-size="12">end</text>
 <polyline points="119,270 123,275 127,281 132,286 136,291 141,297 145,303 150,308 154,313 159,319 163,324" stroke="#ff0000" fill="none"/>
 <text x="151" y="302" fill="#000000" font-family="Arial" font-size="12">no</text>
 <polygon points="164,323 166,328 162,325 164,323" stroke="#ff0000" fill="#ff0000"/>
 <polyline points="66,345 67,342 69,339 70,335 72,332 73,328 75,325 76,321 77,317 79,314 80,310 81,307 82,303 83,300 84,297 84,294 85,290 86,287 87,284 87,280 88,277" stroke="#000000" fill="none"/>
 <polygon points="86,276 89,272 90,277 86,276" stroke="#000000" fill="#000000"/>
</svg>
