<?xml version="1.0"?>
<svg width="544" height="708" xmlns="http://www.w3.org/2000/svg" version="1.1">
 <polygon points="4,705 4,4 541,4 541,705 4,705" stroke="#ffffff" fill="#ffffff"/>
 <ellipse cx="434" cy="155" rx="106" ry="33" stroke="#0000ff" fill="#ffffff"/>
 <text x="394" y="148" fill="#000000" font-family="Arial" font-size="12">2 - while-for</text>
 <text x="367" y="167" fill="#000000" font-family="Arial" font-size="12">10,5,8,5,31,11,3,12</text>
 <polygon points="272,244 138,290 272,336 406,290 272,244" stroke="#0000ff" fill="#ffffff"/>
 <text x="257" y="283" fill="#000000" font-family="Arial" font-size="12">3 - if</text>
 <text x="213" y="302" fill="#000000" font-family="Arial" font-size="12">5,6,12,6,17,5,4,5</text>
 <polyline points="398,186 390,192 382,199 374,206 365,213 357,220 348,227 340,234 331,241 323,248 315,254" stroke="#00ff00" fill="none"/>
 <text x="373" y="218" fill="#000000" font-family="Arial" font-size="12">yes</text>
 <polygon points="316,255 311,257 314,253 316,255" stroke="#00ff00" fill="#00ff00"/>
 <polygon points="407,624 253,624 253,703 407,703 407,624" stroke="#a52a2a" fill="#ffffff"/>
 <text x="261" y="640" fill="#000000" font-family="Arial" font-size="12">14 - passive-implicit</text>
 <text x="309" y="659" fill="#000000" font-family="Arial" font-size="12">36,,,,,,</text>
 <text x="317" y="692" fill="#000000" font-family="Arial" font-size="12">end</text>
 <polyline points="460,187 466,195 472,204 477,213 483,223 488,233 493,244 497,255 499,266 501,278 502,289 502,289 502,291 502,296 502,307 502,323 502,348 502,383 502,430 502,489 502,564 501,577 497,589 491,599 483,609 474,618 463,625 451,632 438,638 425,643 412,648" stroke="#ff0000" fill="none"/>
 <text x="503" y="440" fill="#000000" font-family="Arial" font-size="12">no</text>
 <polygon points="413,649 407,649 412,646 413,649" stroke="#ff0000" fill="#ff0000"/>
 <polygon points="507,4 361,4 361,83 507,83 507,4" stroke="#006400" fill="#ffffff"/>
 <text x="369" y="20" fill="#000000" font-family="Arial" font-size="12">1 - passive-implicit</text>
 <text x="409" y="39" fill="#000000" font-family="Arial" font-size="12">36,,,,,,2</text>
 <text x="419" y="72" fill="#000000" font-family="Arial" font-size="12">start</text>
 <polyline points="434,84 434,87 434,91 434,94 434,97 434,101 434,104 434,107 434,110 434,114 434,117" stroke="#000000" fill="none"/>
 <polygon points="436,117 434,122 432,117 436,117" stroke="#000000" fill="#000000"/>
 <polygon points="465,415 345,415 345,461 465,461 465,415" stroke="#0000ff" fill="#ffffff"/>
 <text x="365" y="431" fill="#000000" font-family="Arial" font-size="12">4 - continue</text>
 <text x="353" y="450" fill="#000000" font-family="Arial" font-size="12">33,7,12,7,12,,2</text>
 <polyline points="304,326 311,334 319,343 327,351 335,360 343,369 351,378 359,387 367,395 374,403 381,411" stroke="#00ff00" fill="none"/>
 <text x="347" y="366" fill="#000000" font-family="Arial" font-size="12">yes</text>
 <polygon points="383,410 385,415 380,412 383,410" stroke="#00ff00" fill="#00ff00"/>
 <polygon points="165,392 4,438 165,484 326,438 165,392" stroke="#0000ff" fill="#ffffff"/>
 <text x="150" y="431" fill="#000000" font-family="Arial" font-size="12">6 - if</text>
 <text x="93" y="450" fill="#000000" font-family="Arial" font-size="12">5,10,12,10,17,10,7,8</text>
 <polyline points="246,327 241,333 236,340 231,347 226,354 221,361 215,368 210,375 205,382 201,389 196,395" stroke="#ff0000" fill="none"/>
 <text x="226" y="366" fill="#000000" font-family="Arial" font-size="12">no</text>
 <polygon points="197,397 192,400 194,394 197,397" stroke="#ff0000" fill="#ff0000"/>
 <polyline points="407,415 409,398 411,379 413,357 416,333 418,308 421,283 423,258 426,234 428,212 430,193" stroke="#000000" fill="none"/>
 <polygon points="428,192 431,188 432,193 428,192" stroke="#000000" fill="#000000"/>
 <polygon points="403,540 257,540 257,586 403,586 403,540" stroke="#0000ff" fill="#ffffff"/>
 <text x="300" y="556" fill="#000000" font-family="Arial" font-size="12">7 - return</text>
 <text x="265" y="575" fill="#000000" font-family="Arial" font-size="12">30,11,12,11,18,,13</text>
 <polyline points="209,472 217,478 226,485 235,491 244,498 253,505 262,512 271,518 280,525 288,531 296,537" stroke="#00ff00" fill="none"/>
 <text x="272" y="514" fill="#000000" font-family="Arial" font-size="12">yes</text>
 <polygon points="297,536 300,540 295,538 297,536" stroke="#00ff00" fill="#00ff00"/>
 <polygon points="239,540 91,540 91,586 239,586 239,540" stroke="#0000ff" fill="#ffffff"/>
 <text x="135" y="556" fill="#000000" font-family="Arial" font-size="12">9 - return</text>
 <text x="99" y="575" fill="#000000" font-family="Arial" font-size="12">30,13,12,13,18,,13</text>
 <polyline points="165,484 165,489 165,494 165,500 165,505 165,510 165,515 165,520 165,525 165,530 165,534" stroke="#ff0000" fill="none"/>
 <text x="166" y="514" fill="#000000" font-family="Arial" font-size="12">no</text>
 <polygon points="167,535 165,540 163,535 167,535" stroke="#ff0000" fill="#ff0000"/>
 <polyline points="330,586 330,589 330,592 330,595 330,599 330,602 330,606 330,609 330,612 330,616 330,619" stroke="#000000" fill="none"/>
 <polygon points="332,619 330,624 328,619 332,619" stroke="#000000" fill="#000000"/>
 <polyline points="202,586 207,589 213,593 219,596 225,600 231,604 237,607 243,611 249,615 255,618 261,622" stroke="#000000" fill="none"/>
 <polygon points="262,620 266,624 260,623 262,620" stroke="#000000" fill="#000000"/>
</svg>
