<?xml version="1.0"?>
<svg width="305" height="860" xmlns="http://www.w3.org/2000/svg" version="1.1">
 <polygon points="4,857 4,4 302,4 302,857 4,857" stroke="#ffffff" fill="#ffffff"/>
 <polygon points="234,122 122,122 122,168 234,168 234,122" stroke="#0000ff" fill="#ffffff"/>
 <text x="140" y="138" fill="#000000" font-family="Arial" font-size="12">2 - passive</text>
 <text x="130" y="157" fill="#000000" font-family="Arial" font-size="12">35,3,2,3,19,,3</text>
 <polygon points="301,256 301,226 229,206 127,206 55,226 55,256 127,276 229,276 301,256" stroke="#0000ff" fill="#ffffff"/>
 <text x="146" y="234" fill="#000000" font-family="Arial" font-size="12">3 - switch</text>
 <text x="106" y="253" fill="#000000" font-family="Arial" font-size="12">21,5,10,5,10,12,4,10</text>
 <polyline points="178,168 178,171 178,174 178,177 178,181 178,184 178,188 178,191 178,194 178,198 178,201" stroke="#000000" fill="none"/>
 <polygon points="180,201 178,206 176,201 180,201" stroke="#000000" fill="#000000"/>
 <polygon points="251,4 105,4 105,83 251,83 251,4" stroke="#006400" fill="#ffffff"/>
 <text x="113" y="20" fill="#000000" font-family="Arial" font-size="12">1 - passive-implicit</text>
 <text x="153" y="39" fill="#000000" font-family="Arial" font-size="12">36,,,,,,2</text>
 <text x="163" y="72" fill="#000000" font-family="Arial" font-size="12">start</text>
 <polyline points="178,84 178,87 178,91 178,94 178,97 178,101 178,104 178,108 178,111 178,114 178,117" stroke="#000000" fill="none"/>
 <polygon points="180,117 178,122 176,117 180,117" stroke="#000000" fill="#000000"/>
 <polygon points="172,314 52,314 52,360 172,360 172,314" stroke="#0000ff" fill="#ffffff"/>
 <text x="60" y="330" fill="#000000" font-family="Arial" font-size="12">4 - switch-case</text>
 <text x="64" y="349" fill="#000000" font-family="Arial" font-size="12">22,7,4,7,10,,5</text>
 <polyline points="154,276 152,279 149,283 147,286 144,290 142,293 140,296 138,300 135,303 133,307 131,310" stroke="#000000" fill="none"/>
 <polygon points="132,311 128,314 129,309 132,311" stroke="#000000" fill="#000000"/>
 <polygon points="270,378 130,378 130,424 270,424 270,378" stroke="#0000ff" fill="#ffffff"/>
 <text x="138" y="394" fill="#000000" font-family="Arial" font-size="12">10 - switch-default</text>
 <text x="141" y="413" fill="#000000" font-family="Arial" font-size="12">23,11,4,11,11,,11</text>
 <polyline points="183,276 184,285 186,295 187,305 188,315 190,325 191,336 192,346 193,355 195,365 196,373" stroke="#000000" fill="none"/>
 <polygon points="198,373 197,378 195,373 198,373" stroke="#000000" fill="#000000"/>
 <polygon points="172,442 52,442 52,488 172,488 172,442" stroke="#0000ff" fill="#ffffff"/>
 <text x="74" y="458" fill="#000000" font-family="Arial" font-size="12">6 - passive</text>
 <text x="60" y="477" fill="#000000" font-family="Arial" font-size="12">35,8,10,8,18,,7</text>
 <polyline points="112,360 112,367 112,374 112,382 112,390 112,398 112,406 112,414 112,422 112,430 112,437" stroke="#000000" fill="none"/>
 <polygon points="114,437 112,442 110,437 114,437" stroke="#000000" fill="#000000"/>
 <polygon points="280,506 142,506 142,552 280,552 280,506" stroke="#0000ff" fill="#ffffff"/>
 <text x="177" y="522" fill="#000000" font-family="Arial" font-size="12">11 - return</text>
 <text x="150" y="541" fill="#000000" font-family="Arial" font-size="12">30,12,6,12,13,,13</text>
 <polyline points="202,424 203,431 203,438 204,446 205,454 206,462 206,470 207,478 208,486 208,494 209,501" stroke="#000000" fill="none"/>
 <polygon points="210,501 209,506 207,501 210,501" stroke="#000000" fill="#000000"/>
 <ellipse cx="93" cy="603" rx="89" ry="33" stroke="#0000ff" fill="#ffffff"/>
 <text x="38" y="596" fill="#000000" font-family="Arial" font-size="12">7 - end-do-while</text>
 <text x="39" y="615" fill="#000000" font-family="Arial" font-size="12">1,8,30,8,32,,5,8</text>
 <polyline points="99,488 98,490 98,492 97,493 96,495 96,497 95,499 94,501 94,502 93,504 93,506 92,512 91,518 90,524 90,530 89,536 89,542 89,548 89,554 89,559 89,565" stroke="#000000" fill="none"/>
 <polygon points="91,565 90,570 88,566 91,565" stroke="#000000" fill="#000000"/>
 <polyline points="97,570 98,563 99,555 101,548 102,540 103,532 104,523 105,515 106,508 107,500 108,493" stroke="#00ff00" fill="none"/>
 <text x="107" y="531" fill="#000000" font-family="Arial" font-size="12">yes</text>
 <polygon points="106,493 109,488 110,493 106,493" stroke="#00ff00" fill="#00ff00"/>
 <polygon points="175,692 55,692 55,738 175,738 175,692" stroke="#0000ff" fill="#ffffff"/>
 <text x="85" y="708" fill="#000000" font-family="Arial" font-size="12">9 - return</text>
 <text x="63" y="727" fill="#000000" font-family="Arial" font-size="12">30,9,6,9,20,,13</text>
 <polyline points="99,636 100,641 101,646 102,651 103,656 105,662 106,667 107,672 108,677 109,682 110,687" stroke="#ff0000" fill="none"/>
 <text x="108" y="666" fill="#000000" font-family="Arial" font-size="12">no</text>
 <polygon points="111,687 111,692 108,687 111,687" stroke="#ff0000" fill="#ff0000"/>
 <polygon points="258,776 104,776 104,855 258,855 258,776" stroke="#a52a2a" fill="#ffffff"/>
 <text x="112" y="792" fill="#000000" font-family="Arial" font-size="12">14 - passive-implicit</text>
 <text x="160" y="811" fill="#000000" font-family="Arial" font-size="12">36,,,,,,</text>
 <text x="168" y="844" fill="#000000" font-family="Arial" font-size="12">end</text>
 <polyline points="130,738 132,741 134,744 137,747 139,751 141,754 143,758 145,761 148,765 150,768 152,772" stroke="#000000" fill="none"/>
 <polygon points="154,771 155,776 151,773 154,771" stroke="#000000" fill="#000000"/>
 <polyline points="209,552 207,568 205,587 203,609 200,632 198,656 195,681 193,706 190,729 188,751 186,771" stroke="#000000" fill="none"/>
 <polygon points="187,772 185,776 184,771 187,772" stroke="#000000" fill="#000000"/>
</svg>
