<?xml version="1.0"?>
<svg width="204" height="406" xmlns="http://www.w3.org/2000/svg" version="1.1">
 <polygon points="4,403 4,4 201,4 201,403 4,403" stroke="#ffffff" fill="#ffffff"/>
 <polygon points="200,120 4,120 4,204 200,204 200,120" stroke="#0000ff" fill="#ffffff"/>
 <text x="64" y="136" fill="#000000" font-family="Arial" font-size="12">2 - passive</text>
 <text x="12" y="155" fill="#000000" font-family="Arial" font-size="12">35,18,2,18,6,,33 - passive</text>
 <text x="12" y="174" fill="#000000" font-family="Arial" font-size="12">35,19,2,19,7,,44 - passive</text>
 <text x="41" y="193" fill="#000000" font-family="Arial" font-size="12">35,19,10,19,24,,5</text>
 <polygon points="162,240 42,240 42,286 162,286 162,240" stroke="#0000ff" fill="#ffffff"/>
 <text x="72" y="256" fill="#000000" font-family="Arial" font-size="12">5 - return</text>
 <text x="50" y="275" fill="#000000" font-family="Arial" font-size="12">30,20,2,20,9,,6</text>
 <polyline points="102,204 102,207 102,210 102,213 102,216 102,220 102,223 102,226 102,229 102,232 102,235" stroke="#000000" fill="none"/>
 <polygon points="104,235 102,240 100,235 104,235" stroke="#000000" fill="#000000"/>
 <polygon points="175,4 29,4 29,83 175,83 175,4" stroke="#006400" fill="#ffffff"/>
 <text x="37" y="20" fill="#000000" font-family="Arial" font-size="12">1 - passive-implicit</text>
 <text x="77" y="39" fill="#000000" font-family="Arial" font-size="12">36,,,,,,2</text>
 <text x="87" y="72" fill="#000000" font-family="Arial" font-size="12">start</text>
 <polyline points="102,84 102,87 102,90 102,93 102,96 102,99 102,102 102,105 102,109 102,112 102,115" stroke="#000000" fill="none"/>
 <polygon points="104,115 102,120 100,115 104,115" stroke="#000000" fill="#000000"/>
 <polygon points="175,322 29,322 29,401 175,401 175,322" stroke="#a52a2a" fill="#ffffff"/>
 <text x="37" y="338" fill="#000000" font-family="Arial" font-size="12">6 - passive-implicit</text>
 <text x="81" y="357" fill="#000000" font-family="Arial" font-size="12">36,,,,,,</text>
 <text x="89" y="390" fill="#000000" font-family="Arial" font-size="12">end</text>
 <polyline points="102,286 102,289 102,292 102,295 102,298 102,301 102,304 102,307 102,310 102,314 102,317" stroke="#000000" fill="none"/>
 <polygon points="104,317 102,322 100,317 104,317" stroke="#000000" fill="#000000"/>
</svg>
