<?xml version="1.0"?>
<svg width="284" height="450" xmlns="http://www.w3.org/2000/svg" version="1.1">
 <polygon points="4,447 4,4 281,4 281,447 4,447" stroke="#ffffff" fill="#ffffff"/>
 <polygon points="193,122 5,122 5,206 193,206 193,122" stroke="#0000ff" fill="#ffffff"/>
 <text x="61" y="138" fill="#000000" font-family="Arial" font-size="12">2 - passive</text>
 <text x="13" y="157" fill="#000000" font-family="Arial" font-size="12">35,2,2,2,10,,33 - passive</text>
 <text x="13" y="176" fill="#000000" font-family="Arial" font-size="12">35,3,2,3,10,,44 - passive</text>
 <text x="51" y="195" fill="#000000" font-family="Arial" font-size="12">35,4,2,4,10,,5</text>
 <ellipse cx="99" cy="277" rx="94" ry="33" stroke="#0000ff" fill="#ffffff"/>
 <text x="59" y="270" fill="#000000" font-family="Arial" font-size="12">5 - while-for</text>
 <text x="40" y="289" fill="#000000" font-family="Arial" font-size="12">10,5,6,5,20,7,6,8</text>
 <polyline points="99,206 99,209 99,213 99,216 99,219 99,223 99,226 99,229 99,232 99,236 99,239" stroke="#000000" fill="none"/>
 <polygon points="101,239 99,244 97,239 101,239" stroke="#000000" fill="#000000"/>
 <polygon points="172,4 26,4 26,83 172,83 172,4" stroke="#006400" fill="#ffffff"/>
 <text x="34" y="20" fill="#000000" font-family="Arial" font-size="12">1 - passive-implicit</text>
 <text x="74" y="39" fill="#000000" font-family="Arial" font-size="12">36,,,,,,2</text>
 <text x="84" y="72" fill="#000000" font-family="Arial" font-size="12">start</text>
 <polyline points="99,84 99,87 99,90 99,93 99,97 99,100 99,104 99,107 99,110 99,114 99,117" stroke="#000000" fill="none"/>
 <polygon points="101,117 99,122 97,117 101,117" stroke="#000000" fill="#000000"/>
 <polygon points="116,383 4,383 4,429 116,429 116,383" stroke="#0000ff" fill="#ffffff"/>
 <text x="22" y="399" fill="#000000" font-family="Arial" font-size="12">6 - passive</text>
 <text x="12" y="418" fill="#000000" font-family="Arial" font-size="12">35,6,4,6,19,,7</text>
 <polyline points="71,308 70,310 69,312 67,314 66,316 65,318 64,320 63,322 62,324 62,326 61,328 60,333 58,338 58,343 57,348 56,353 56,358 56,363 56,368 56,372 56,377" stroke="#00ff00" fill="none"/>
 <text x="61" y="340" fill="#000000" font-family="Arial" font-size="12">yes</text>
 <polygon points="58,378 57,383 55,378 58,378" stroke="#00ff00" fill="#00ff00"/>
 <polygon points="280,366 134,366 134,445 280,445 280,366" stroke="#a52a2a" fill="#ffffff"/>
 <text x="142" y="382" fill="#000000" font-family="Arial" font-size="12">9 - passive-implicit</text>
 <text x="186" y="401" fill="#000000" font-family="Arial" font-size="12">36,,,,,,</text>
 <text x="194" y="434" fill="#000000" font-family="Arial" font-size="12">end</text>
 <polyline points="125,308 129,313 134,319 138,324 143,329 148,335 152,341 157,346 162,351 166,357 171,362" stroke="#ff0000" fill="none"/>
 <text x="157" y="340" fill="#000000" font-family="Arial" font-size="12">no</text>
 <polygon points="172,361 174,366 169,363 172,361" stroke="#ff0000" fill="#ff0000"/>
 <polyline points="71,383 72,380 74,377 75,373 77,370 78,366 80,363 81,359 82,355 84,352 85,348 86,345 87,341 88,338 89,335 89,332 90,328 91,325 92,322 92,318 93,315" stroke="#000000" fill="none"/>
 <polygon points="91,314 94,310 95,315 91,314" stroke="#000000" fill="#000000"/>
</svg>
