<?xml version="1.0"?>
<svg width="241" height="542" xmlns="http://www.w3.org/2000/svg" version="1.1">
 <polygon points="4,539 4,4 238,4 238,539 4,539" stroke="#ffffff" fill="#ffffff"/>
 <polygon points="121,122 5,168 121,214 237,168 121,122" stroke="#0000ff" fill="#ffffff"/>
 <text x="106" y="161" fill="#000000" font-family="Arial" font-size="12">2 - if</text>
 <text x="71" y="180" fill="#000000" font-family="Arial" font-size="12">5,3,6,3,6,4,3,4</text>
 <polygon points="106,270 4,270 4,316 106,316 106,270" stroke="#0000ff" fill="#ffffff"/>
 <text x="29" y="286" fill="#000000" font-family="Arial" font-size="12">3 - goto</text>
 <text x="12" y="305" fill="#000000" font-family="Arial" font-size="12">28,4,4,4,9,,5</text>
 <polyline points="101,206 98,212 95,218 92,224 88,230 85,236 82,242 78,248 75,254 72,260 69,265" stroke="#00ff00" fill="none"/>
 <text x="87" y="244" fill="#000000" font-family="Arial" font-size="12">yes</text>
 <polygon points="71,266 67,270 68,265 71,266" stroke="#00ff00" fill="#00ff00"/>
 <polygon points="204,354 26,354 26,419 204,419 204,354" stroke="#0000ff" fill="#ffffff"/>
 <text x="77" y="370" fill="#000000" font-family="Arial" font-size="12">5 - passive</text>
 <text x="34" y="389" fill="#000000" font-family="Arial" font-size="12">35,5,0,5,0,,66 - passive</text>
 <text x="72" y="408" fill="#000000" font-family="Arial" font-size="12">35,5,2,5,2,,7</text>
 <polyline points="120,214 120,227 119,240 119,254 118,268 118,283 118,297 117,311 117,325 116,337 116,349" stroke="#ff0000" fill="none"/>
 <text x="120" y="295" fill="#000000" font-family="Arial" font-size="12">no</text>
 <polygon points="118,349 116,354 114,349 118,349" stroke="#ff0000" fill="#ff0000"/>
 <polygon points="194,4 48,4 48,83 194,83 194,4" stroke="#006400" fill="#ffffff"/>
 <text x="56" y="20" fill="#000000" font-family="Arial" font-size="12">1 - passive-implicit</text>
 <text x="96" y="39" fill="#000000" font-family="Arial" font-size="12">36,,,,,,2</text>
 <text x="106" y="72" fill="#000000" font-family="Arial" font-size="12">start</text>
 <polyline points="121,84 121,87 121,90 121,93 121,97 121,100 121,104 121,107 121,110 121,114 121,117" stroke="#000000" fill="none"/>
 <polygon points="123,117 121,122 119,117 123,117" stroke="#000000" fill="#000000"/>
 <polyline points="70,316 72,319 74,322 76,325 78,329 80,332 82,336 85,339 87,343 89,346 91,350" stroke="#000000" fill="none"/>
 <polygon points="93,349 94,354 90,351 93,349" stroke="#000000" fill="#000000"/>
 <polygon points="188,458 42,458 42,537 188,537 188,458" stroke="#a52a2a" fill="#ffffff"/>
 <text x="50" y="474" fill="#000000" font-family="Arial" font-size="12">7 - passive-implicit</text>
 <text x="94" y="493" fill="#000000" font-family="Arial" font-size="12">36,,,,,,</text>
 <text x="102" y="526" fill="#000000" font-family="Arial" font-size="12">end</text>
 <polyline points="115,420 115,423 115,426 115,429 115,433 115,436 115,440 115,443 115,446 115,450 115,453" stroke="#000000" fill="none"/>
 <polygon points="117,453 115,458 113,453 117,453" stroke="#000000" fill="#000000"/>
</svg>
