<?xml version="1.0"?>
<svg width="274" height="438" xmlns="http://www.w3.org/2000/svg" version="1.1">
 <polygon points="4,435 4,4 271,4 271,435 4,435" stroke="#ffffff" fill="#ffffff"/>
 <polygon points="129,122 4,168 129,214 254,168 129,122" stroke="#0000ff" fill="#ffffff"/>
 <text x="114" y="161" fill="#000000" font-family="Arial" font-size="12">2 - if</text>
 <text x="75" y="180" fill="#000000" font-family="Arial" font-size="12">5,3,8,3,12,4,3,4</text>
 <polygon points="141,270 29,270 29,316 141,316 141,270" stroke="#0000ff" fill="#ffffff"/>
 <text x="55" y="286" fill="#000000" font-family="Arial" font-size="12">3 - return</text>
 <text x="37" y="305" fill="#000000" font-family="Arial" font-size="12">30,4,8,4,15,,6</text>
 <polyline points="115,209 113,214 111,220 109,226 107,232 105,237 103,243 101,249 99,254 97,260 95,265" stroke="#00ff00" fill="none"/>
 <text x="106" y="244" fill="#000000" font-family="Arial" font-size="12">yes</text>
 <polygon points="96,266 93,270 93,265 96,266" stroke="#00ff00" fill="#00ff00"/>
 <polygon points="270,270 160,270 160,316 270,316 270,270" stroke="#0000ff" fill="#ffffff"/>
 <text x="185" y="286" fill="#000000" font-family="Arial" font-size="12">5 - return</text>
 <text x="168" y="305" fill="#000000" font-family="Arial" font-size="12">30,5,4,5,11,,6</text>
 <polyline points="154,205 158,211 163,217 167,223 171,229 176,236 180,242 184,248 188,254 192,260 196,265" stroke="#ff0000" fill="none"/>
 <text x="185" y="244" fill="#000000" font-family="Arial" font-size="12">no</text>
 <polygon points="198,265 199,270 195,267 198,265" stroke="#ff0000" fill="#ff0000"/>
 <polygon points="202,4 56,4 56,83 202,83 202,4" stroke="#006400" fill="#ffffff"/>
 <text x="64" y="20" fill="#000000" font-family="Arial" font-size="12">1 - passive-implicit</text>
 <text x="104" y="39" fill="#000000" font-family="Arial" font-size="12">36,,,,,,2</text>
 <text x="114" y="72" fill="#000000" font-family="Arial" font-size="12">start</text>
 <polyline points="129,84 129,87 129,90 129,93 129,97 129,100 129,104 129,107 129,110 129,114 129,117" stroke="#000000" fill="none"/>
 <polygon points="131,117 129,122 127,117 131,117" stroke="#000000" fill="#000000"/>
 <polygon points="235,354 89,354 89,433 235,433 235,354" stroke="#a52a2a" fill="#ffffff"/>
 <text x="97" y="370" fill="#000000" font-family="Arial" font-size="12">7 - passive-implicit</text>
 <text x="141" y="389" fill="#000000" font-family="Arial" font-size="12">36,,,,,,</text>
 <text x="149" y="422" fill="#000000" font-family="Arial" font-size="12">end</text>
 <polyline points="102,316 104,319 107,322 110,325 112,329 115,332 118,336 121,339 124,343 126,346 129,350" stroke="#000000" fill="none"/>
 <polygon points="130,349 132,354 127,351 130,349" stroke="#000000" fill="#000000"/>
 <polyline points="203,316 201,319 200,322 198,325 196,329 194,332 192,336 191,339 189,343 187,346 185,350" stroke="#000000" fill="none"/>
 <polygon points="187,351 183,354 184,349 187,351" stroke="#000000" fill="#000000"/>
</svg>
