<?xml version="1.0"?>
<svg width="284" height="702" xmlns="http://www.w3.org/2000/svg" version="1.1">
 <polygon points="4,699 4,4 281,4 281,699 4,699" stroke="#ffffff" fill="#ffffff"/>
 <ellipse cx="152" cy="155" rx="94" ry="33" stroke="#0000ff" fill="#ffffff"/>
 <text x="112" y="148" fill="#000000" font-family="Arial" font-size="12">2 - while-for</text>
 <text x="93" y="167" fill="#000000" font-family="Arial" font-size="12">10,3,8,3,31,7,3,8</text>
 <ellipse cx="105" cy="277" rx="101" ry="33" stroke="#0000ff" fill="#ffffff"/>
 <text x="65" y="270" fill="#000000" font-family="Arial" font-size="12">3 - while-for</text>
 <text x="42" y="289" fill="#000000" font-family="Arial" font-size="12">10,5,12,5,35,5,4,6</text>
 <polyline points="119,186 117,188 116,190 114,192 113,194 111,196 110,198 109,200 108,202 107,204 106,206 105,209 104,212 103,215 103,219 102,222 102,226 101,229 101,232 101,236 101,239" stroke="#00ff00" fill="none"/>
 <text x="106" y="218" fill="#000000" font-family="Arial" font-size="12">yes</text>
 <polygon points="102,239 101,244 99,239 102,239" stroke="#00ff00" fill="#00ff00"/>
 <polygon points="268,450 138,450 138,496 268,496 268,450" stroke="#0000ff" fill="#ffffff"/>
 <text x="165" y="466" fill="#000000" font-family="Arial" font-size="12">9 - passive</text>
 <text x="146" y="485" fill="#000000" font-family="Arial" font-size="12">35,10,0,10,0,,10</text>
 <polyline points="181,186 185,191 189,196 193,202 197,207 200,213 204,219 207,225 210,231 213,238 215,244 221,265 224,288 226,310 226,332 225,354 223,375 220,395 217,414 214,431 211,445" stroke="#ff0000" fill="none"/>
 <text x="228" y="340" fill="#000000" font-family="Arial" font-size="12">no</text>
 <polygon points="212,446 209,450 209,445 212,446" stroke="#ff0000" fill="#ff0000"/>
 <polygon points="225,4 79,4 79,83 225,83 225,4" stroke="#006400" fill="#ffffff"/>
 <text x="87" y="20" fill="#000000" font-family="Arial" font-size="12">1 - passive-implicit</text>
 <text x="127" y="39" fill="#000000" font-family="Arial" font-size="12">36,,,,,,2</text>
 <text x="137" y="72" fill="#000000" font-family="Arial" font-size="12">start</text>
 <polyline points="152,84 152,87 152,91 152,94 152,97 152,101 152,104 152,107 152,110 152,114 152,117" stroke="#000000" fill="none"/>
 <polygon points="154,117 152,122 150,117 154,117" stroke="#000000" fill="#000000"/>
 <polyline points="122,245 123,243 124,241 124,239 125,237 126,236 127,234 128,232 128,230 129,228 130,226 131,223 132,219 134,216 135,213 136,210 137,206 138,203 140,200 141,196 142,193" stroke="#ff0000" fill="none"/>
 <text x="138" y="218" fill="#000000" font-family="Arial" font-size="12">no</text>
 <polygon points="140,192 143,188 143,193 140,192" stroke="#ff0000" fill="#ff0000"/>
 <polygon points="195,366 75,366 75,412 195,412 195,366" stroke="#0000ff" fill="#ffffff"/>
 <text x="109" y="382" fill="#000000" font-family="Arial" font-size="12">4 - goto</text>
 <text x="83" y="401" fill="#000000" font-family="Arial" font-size="12">28,7,12,7,17,,9</text>
 <polyline points="114,310 115,315 117,320 118,325 119,330 121,336 122,341 124,346 125,351 127,356 128,361" stroke="#00ff00" fill="none"/>
 <text x="124" y="340" fill="#000000" font-family="Arial" font-size="12">yes</text>
 <polygon points="129,361 129,366 126,362 129,361" stroke="#00ff00" fill="#00ff00"/>
 <polygon points="270,534 136,534 136,580 270,580 270,534" stroke="#0000ff" fill="#ffffff"/>
 <text x="168" y="550" fill="#000000" font-family="Arial" font-size="12">10 - return</text>
 <text x="144" y="569" fill="#000000" font-family="Arial" font-size="12">30,11,4,11,11,,11</text>
 <polyline points="203,496 203,499 203,502 203,505 203,509 203,512 203,516 203,519 203,522 203,526 203,529" stroke="#000000" fill="none"/>
 <polygon points="205,529 203,534 201,529 205,529" stroke="#000000" fill="#000000"/>
 <polyline points="154,412 156,415 159,419 162,422 164,426 167,429 170,432 173,436 176,439 178,443 181,446" stroke="#000000" fill="none"/>
 <polygon points="183,445 185,450 180,447 183,445" stroke="#000000" fill="#000000"/>
 <polygon points="280,618 126,618 126,697 280,697 280,618" stroke="#a52a2a" fill="#ffffff"/>
 <text x="134" y="634" fill="#000000" font-family="Arial" font-size="12">11 - passive-implicit</text>
 <text x="182" y="653" fill="#000000" font-family="Arial" font-size="12">36,,,,,,</text>
 <text x="190" y="686" fill="#000000" font-family="Arial" font-size="12">end</text>
 <polyline points="203,580 203,583 203,586 203,589 203,593 203,596 203,600 203,603 203,606 203,610 203,613" stroke="#000000" fill="none"/>
 <polygon points="205,613 203,618 201,613 205,613" stroke="#000000" fill="#000000"/>
</svg>
