<?xml version="1.0"?>
<svg width="545" height="960" xmlns="http://www.w3.org/2000/svg" version="1.1">
 <polygon points="4,957 4,4 542,4 542,957 4,957" stroke="#ffffff" fill="#ffffff"/>
 <polygon points="296,122 184,122 184,168 296,168 296,122" stroke="#0000ff" fill="#ffffff"/>
 <text x="202" y="138" fill="#000000" font-family="Arial" font-size="12">2 - passive</text>
 <text x="192" y="157" fill="#000000" font-family="Arial" font-size="12">35,3,2,3,54,,3</text>
 <ellipse cx="240" cy="239" rx="101" ry="33" stroke="#0000ff" fill="#ffffff"/>
 <text x="200" y="232" fill="#000000" font-family="Arial" font-size="12">3 - while-for</text>
 <text x="177" y="251" fill="#000000" font-family="Arial" font-size="12">10,4,6,4,9,14,4,15</text>
 <polyline points="240,168 240,171 240,174 240,177 240,181 240,184 240,188 240,191 240,194 240,198 240,201" stroke="#000000" fill="none"/>
 <polygon points="242,201 240,206 238,201 242,201" stroke="#000000" fill="#000000"/>
 <polygon points="313,4 167,4 167,83 313,83 313,4" stroke="#006400" fill="#ffffff"/>
 <text x="175" y="20" fill="#000000" font-family="Arial" font-size="12">1 - passive-implicit</text>
 <text x="215" y="39" fill="#000000" font-family="Arial" font-size="12">36,,,,,,2</text>
 <text x="225" y="72" fill="#000000" font-family="Arial" font-size="12">start</text>
 <polyline points="240,84 240,87 240,91 240,94 240,97 240,101 240,104 240,108 240,111 240,114 240,117" stroke="#000000" fill="none"/>
 <polygon points="242,117 240,122 238,117 242,117" stroke="#000000" fill="#000000"/>
 <polygon points="296,328 184,328 184,374 296,374 296,328" stroke="#0000ff" fill="#ffffff"/>
 <text x="202" y="344" fill="#000000" font-family="Arial" font-size="12">4 - passive</text>
 <text x="192" y="363" fill="#000000" font-family="Arial" font-size="12">35,5,6,5,30,,5</text>
 <polyline points="240,272 240,277 240,282 240,287 240,292 240,298 240,303 240,308 240,313 240,318 240,323" stroke="#00ff00" fill="none"/>
 <text x="240" y="302" fill="#000000" font-family="Arial" font-size="12">yes</text>
 <polygon points="242,323 240,328 238,323 242,323" stroke="#00ff00" fill="#00ff00"/>
 <polygon points="134,667 4,667 4,713 134,713 134,667" stroke="#0000ff" fill="#ffffff"/>
 <text x="34" y="683" fill="#000000" font-family="Arial" font-size="12">16 - return</text>
 <text x="12" y="702" fill="#000000" font-family="Arial" font-size="12">30,18,2,18,9,,17</text>
 <polyline points="161,259 148,264 135,270 122,277 110,284 100,293 90,302 82,313 76,324 72,336 71,350 71,350 71,352 71,356 71,365 71,379 71,401 71,430 71,470 71,521 71,584 71,592 71,600 71,608 71,617 71,625 70,633 70,641 70,648 70,655 70,662" stroke="#ff0000" fill="none"/>
 <text x="72" y="460" fill="#000000" font-family="Arial" font-size="12">no</text>
 <polygon points="72,662 70,667 68,662 72,662" stroke="#ff0000" fill="#ff0000"/>
 <polygon points="240,412 106,458 240,504 374,458 240,412" stroke="#0000ff" fill="#ffffff"/>
 <text x="225" y="451" fill="#000000" font-family="Arial" font-size="12">5 - if</text>
 <text x="181" y="470" fill="#000000" font-family="Arial" font-size="12">5,6,10,6,21,7,6,7</text>
 <polyline points="240,374 240,377 240,380 240,383 240,386 240,390 240,393 240,396 240,399 240,403 240,406" stroke="#000000" fill="none"/>
 <polygon points="242,407 240,412 238,407 242,407" stroke="#000000" fill="#000000"/>
 <polygon points="230,876 76,876 76,955 230,955 230,876" stroke="#a52a2a" fill="#ffffff"/>
 <text x="84" y="892" fill="#000000" font-family="Arial" font-size="12">18 - passive-implicit</text>
 <text x="132" y="911" fill="#000000" font-family="Arial" font-size="12">36,,,,,,</text>
 <text x="140" y="944" fill="#000000" font-family="Arial" font-size="12">end</text>
 <polyline points="77,713 82,725 87,739 93,755 99,771 106,788 112,806 119,823 125,841 131,857 137,872" stroke="#000000" fill="none"/>
 <polygon points="138,871 139,876 135,872 138,871" stroke="#000000" fill="#000000"/>
 <polygon points="214,560 102,560 102,606 214,606 214,560" stroke="#0000ff" fill="#ffffff"/>
 <text x="127" y="576" fill="#000000" font-family="Arial" font-size="12">6 - break</text>
 <text x="110" y="595" fill="#000000" font-family="Arial" font-size="12">32,7,8,7,8,,15</text>
 <polyline points="215,496 211,502 207,508 203,514 199,520 195,526 191,532 187,538 183,544 179,550 176,555" stroke="#00ff00" fill="none"/>
 <text x="197" y="534" fill="#000000" font-family="Arial" font-size="12">yes</text>
 <polygon points="177,557 173,560 174,555 177,557" stroke="#00ff00" fill="#00ff00"/>
 <polygon points="371,560 241,560 241,606 371,606 371,560" stroke="#0000ff" fill="#ffffff"/>
 <text x="268" y="576" fill="#000000" font-family="Arial" font-size="12">8 - passive</text>
 <text x="249" y="595" fill="#000000" font-family="Arial" font-size="12">35,10,6,10,25,,9</text>
 <polyline points="261,497 264,503 267,509 270,515 274,521 277,527 280,533 283,539 286,544 289,550 292,555" stroke="#ff0000" fill="none"/>
 <text x="284" y="534" fill="#000000" font-family="Arial" font-size="12">no</text>
 <polygon points="293,555 294,560 290,556 293,555" stroke="#ff0000" fill="#ff0000"/>
 <polyline points="139,606 135,611 130,617 125,622 120,628 115,634 110,640 105,646 100,652 96,657 91,663" stroke="#000000" fill="none"/>
 <polygon points="93,664 88,667 90,662 93,664" stroke="#000000" fill="#000000"/>
 <polygon points="330,644 152,690 330,736 508,690 330,644" stroke="#0000ff" fill="#ffffff"/>
 <text x="315" y="683" fill="#000000" font-family="Arial" font-size="12">9 - if</text>
 <text x="249" y="702" fill="#000000" font-family="Arial" font-size="12">5,12,10,12,14,13,10,11</text>
 <polyline points="311,606 312,609 312,612 313,616 314,619 315,623 315,626 316,630 317,634 318,637 319,641" stroke="#000000" fill="none"/>
 <polygon points="321,641 320,646 317,642 321,641" stroke="#000000" fill="#000000"/>
 <polygon points="541,792 403,792 403,838 541,838 541,792" stroke="#0000ff" fill="#ffffff"/>
 <text x="430" y="808" fill="#000000" font-family="Arial" font-size="12">10 - passive</text>
 <text x="411" y="827" fill="#000000" font-family="Arial" font-size="12">35,13,8,13,16,,13</text>
 <polyline points="370,726 377,732 384,738 392,745 400,751 407,758 415,764 422,770 430,777 436,782 443,788" stroke="#00ff00" fill="none"/>
 <text x="422" y="766" fill="#000000" font-family="Arial" font-size="12">yes</text>
 <polygon points="444,787 446,792 441,790 444,787" stroke="#00ff00" fill="#00ff00"/>
 <polygon points="321,792 183,792 183,838 321,838 321,792" stroke="#0000ff" fill="#ffffff"/>
 <text x="217" y="808" fill="#000000" font-family="Arial" font-size="12">12 - return</text>
 <text x="191" y="827" fill="#000000" font-family="Arial" font-size="12">30,15,8,15,15,,17</text>
 <polyline points="305,730 301,736 298,742 294,747 290,753 287,759 283,765 279,771 276,776 272,782 269,787" stroke="#ff0000" fill="none"/>
 <text x="290" y="766" fill="#000000" font-family="Arial" font-size="12">no</text>
 <polygon points="270,789 266,792 267,787 270,789" stroke="#ff0000" fill="#ff0000"/>
 <polyline points="492,792 498,784 504,776 510,767 516,757 521,747 526,736 530,725 533,714 535,703 536,691 536,599 536,525 536,467 536,424 536,393 536,372 536,359 536,353 536,350 536,350 533,337 523,325 509,314 490,303 467,293 442,284 415,276 388,268 360,262 333,256" stroke="#000000" fill="none"/>
 <polygon points="333,258 328,255 333,254 333,258" stroke="#000000" fill="#000000"/>
 <polyline points="230,838 227,841 223,845 220,848 216,852 213,855 209,859 206,862 202,866 199,869 195,873" stroke="#000000" fill="none"/>
 <polygon points="196,874 192,876 194,872 196,874" stroke="#000000" fill="#000000"/>
</svg>
