<?xml version="1.0"?>
<svg width="320" height="728" xmlns="http://www.w3.org/2000/svg" version="1.1">
 <polygon points="4,725 4,4 317,4 317,725 4,725" stroke="#ffffff" fill="#ffffff"/>
 <ellipse cx="212" cy="155" rx="88" ry="33" stroke="#0000ff" fill="#ffffff"/>
 <text x="172" y="148" fill="#000000" font-family="Arial" font-size="12">2 - while-for</text>
 <text x="158" y="167" fill="#000000" font-family="Arial" font-size="12">10,6,6,6,9,7,3,8</text>
 <polygon points="176,244 64,244 64,290 176,290 176,244" stroke="#0000ff" fill="#ffffff"/>
 <text x="82" y="260" fill="#000000" font-family="Arial" font-size="12">3 - passive</text>
 <text x="72" y="279" fill="#000000" font-family="Arial" font-size="12">35,8,4,8,41,,4</text>
 <polyline points="187,186 183,191 178,197 174,202 169,208 164,213 159,219 155,224 150,230 146,235 142,240" stroke="#00ff00" fill="none"/>
 <text x="169" y="218" fill="#000000" font-family="Arial" font-size="12">yes</text>
 <polygon points="143,241 139,244 140,239 143,241" stroke="#00ff00" fill="#00ff00"/>
 <polygon points="308,560 170,560 170,606 308,606 308,560" stroke="#0000ff" fill="#ffffff"/>
 <text x="201" y="576" fill="#000000" font-family="Arial" font-size="12">9 - passive</text>
 <text x="178" y="595" fill="#000000" font-family="Arial" font-size="12">35,12,2,12,20,,10</text>
 <polyline points="239,186 244,193 249,200 253,207 258,215 262,223 265,231 268,239 270,248 272,257 272,266 272,266 272,268 272,272 272,281 272,295 272,317 272,346 272,386 272,437 272,500 272,506 271,512 270,517 269,523 267,529 265,535 263,540 261,545 258,550 256,555" stroke="#ff0000" fill="none"/>
 <text x="273" y="376" fill="#000000" font-family="Arial" font-size="12">no</text>
 <polygon points="257,556 253,560 254,555 257,556" stroke="#ff0000" fill="#ff0000"/>
 <polygon points="285,4 139,4 139,83 285,83 285,4" stroke="#006400" fill="#ffffff"/>
 <text x="147" y="20" fill="#000000" font-family="Arial" font-size="12">1 - passive-implicit</text>
 <text x="187" y="39" fill="#000000" font-family="Arial" font-size="12">36,,,,,,2</text>
 <text x="197" y="72" fill="#000000" font-family="Arial" font-size="12">start</text>
 <polyline points="212,84 212,87 212,91 212,94 212,97 212,101 212,104 212,107 212,110 212,114 212,117" stroke="#000000" fill="none"/>
 <polygon points="214,117 212,122 210,117 214,117" stroke="#000000" fill="#000000"/>
 <polygon points="120,328 4,374 120,420 236,374 120,328" stroke="#0000ff" fill="#ffffff"/>
 <text x="105" y="367" fill="#000000" font-family="Arial" font-size="12">4 - if</text>
 <text x="70" y="386" fill="#000000" font-family="Arial" font-size="12">5,9,8,9,8,6,5,6</text>
 <polyline points="120,290 120,293 120,296 120,299 120,302 120,306 120,309 120,312 120,315 120,319 120,322" stroke="#000000" fill="none"/>
 <polygon points="122,323 120,328 118,323 122,323" stroke="#000000" fill="#000000"/>
 <polygon points="316,644 162,644 162,723 316,723 316,644" stroke="#a52a2a" fill="#ffffff"/>
 <text x="170" y="660" fill="#000000" font-family="Arial" font-size="12">10 - passive-implicit</text>
 <text x="218" y="679" fill="#000000" font-family="Arial" font-size="12">36,,,,,,</text>
 <text x="226" y="712" fill="#000000" font-family="Arial" font-size="12">end</text>
 <polyline points="239,606 239,609 239,612 239,615 239,619 239,622 239,626 239,629 239,632 239,636 239,639" stroke="#000000" fill="none"/>
 <polygon points="241,639 239,644 237,639 241,639" stroke="#000000" fill="#000000"/>
 <polyline points="151,340 155,336 159,331 163,326 166,322 170,317 173,311 177,306 180,301 182,295 185,290 189,280 193,271 196,260 199,250 201,240 203,230 205,220 207,210 208,201 209,193" stroke="#ff0000" fill="none"/>
 <text x="202" y="269" fill="#000000" font-family="Arial" font-size="12">no</text>
 <polygon points="207,192 210,188 211,193 207,192" stroke="#ff0000" fill="#ff0000"/>
 <polygon points="227,476 107,476 107,522 227,522 227,476" stroke="#0000ff" fill="#ffffff"/>
 <text x="136" y="492" fill="#000000" font-family="Arial" font-size="12">5 - break</text>
 <text x="115" y="511" fill="#000000" font-family="Arial" font-size="12">32,10,6,10,6,,8</text>
 <polyline points="135,414 137,420 139,426 142,431 144,437 146,443 148,449 150,455 153,460 155,466 157,471" stroke="#00ff00" fill="none"/>
 <text x="151" y="450" fill="#000000" font-family="Arial" font-size="12">yes</text>
 <polygon points="158,471 159,476 155,472 158,471" stroke="#00ff00" fill="#00ff00"/>
 <polyline points="187,522 190,525 193,529 196,532 199,536 202,539 204,542 207,546 210,549 213,553 216,556" stroke="#000000" fill="none"/>
 <polygon points="218,555 220,560 215,557 218,555" stroke="#000000" fill="#000000"/>
</svg>
