<?xml version="1.0"?>
<svg width="186" height="306" xmlns="http://www.w3.org/2000/svg" version="1.1">
 <polygon points="4,303 4,4 183,4 183,303 4,303" stroke="#ffffff" fill="#ffffff"/>
 <polygon points="182,120 4,120 4,185 182,185 182,120" stroke="#0000ff" fill="#ffffff"/>
 <text x="55" y="136" fill="#000000" font-family="Arial" font-size="12">2 - passive</text>
 <text x="12" y="155" fill="#000000" font-family="Arial" font-size="12">35,9,2,9,6,,33 - passive</text>
 <text x="41" y="174" fill="#000000" font-family="Arial" font-size="12">35,10,2,10,7,,4</text>
 <polygon points="166,222 20,222 20,301 166,301 166,222" stroke="#a52a2a" fill="#ffffff"/>
 <text x="28" y="238" fill="#000000" font-family="Arial" font-size="12">4 - passive-implicit</text>
 <text x="72" y="257" fill="#000000" font-family="Arial" font-size="12">36,,,,,,</text>
 <text x="80" y="290" fill="#000000" font-family="Arial" font-size="12">end</text>
 <polyline points="93,186 93,189 93,192 93,195 93,198 93,201 93,204 93,207 93,210 93,214 93,217" stroke="#000000" fill="none"/>
 <polygon points="95,217 93,222 91,217 95,217" stroke="#000000" fill="#000000"/>
 <polygon points="166,4 20,4 20,83 166,83 166,4" stroke="#006400" fill="#ffffff"/>
 <text x="28" y="20" fill="#000000" font-family="Arial" font-size="12">1 - passive-implicit</text>
 <text x="68" y="39" fill="#000000" font-family="Arial" font-size="12">36,,,,,,2</text>
 <text x="78" y="72" fill="#000000" font-family="Arial" font-size="12">start</text>
 <polyline points="93,84 93,87 93,90 93,93 93,96 93,100 93,103 93,106 93,109 93,112 93,115" stroke="#000000" fill="none"/>
 <polygon points="95,115 93,120 91,115 95,115" stroke="#000000" fill="#000000"/>
</svg>
