<?xml version="1.0"?>
<svg width="540" height="780" xmlns="http://www.w3.org/2000/svg" version="1.1">
 <polygon points="4,777 4,4 537,4 537,777 4,777" stroke="#ffffff" fill="#ffffff"/>
 <polygon points="367,120 161,120 161,185 367,185 367,120" stroke="#0000ff" fill="#ffffff"/>
 <text x="226" y="136" fill="#000000" font-family="Arial" font-size="12">2 - passive</text>
 <text x="169" y="155" fill="#000000" font-family="Arial" font-size="12">35,15,2,15,10,,33 - passive</text>
 <text x="212" y="174" fill="#000000" font-family="Arial" font-size="12">35,17,2,17,2,,4</text>
 <polygon points="410,272 410,242 325,222 203,222 118,242 118,272 203,292 325,292 410,272" stroke="#0000ff" fill="#ffffff"/>
 <text x="232" y="250" fill="#000000" font-family="Arial" font-size="12">4 - switch</text>
 <text x="176" y="269" fill="#000000" font-family="Arial" font-size="12">21,18,10,18,10,14,5,8,12</text>
 <polyline points="264,186 264,189 264,192 264,195 264,198 264,201 264,204 264,207 264,210 264,213 264,216" stroke="#000000" fill="none"/>
 <polygon points="266,216 264,221 262,216 266,216" stroke="#000000" fill="#000000"/>
 <polygon points="337,4 191,4 191,83 337,83 337,4" stroke="#006400" fill="#ffffff"/>
 <text x="199" y="20" fill="#000000" font-family="Arial" font-size="12">1 - passive-implicit</text>
 <text x="239" y="39" fill="#000000" font-family="Arial" font-size="12">36,,,,,,2</text>
 <text x="249" y="72" fill="#000000" font-family="Arial" font-size="12">start</text>
 <polyline points="264,84 264,87 264,90 264,93 264,96 264,100 264,103 264,106 264,109 264,112 264,115" stroke="#000000" fill="none"/>
 <polygon points="266,115 264,120 262,115 266,115" stroke="#000000" fill="#000000"/>
 <polygon points="157,328 27,328 27,374 157,374 157,328" stroke="#0000ff" fill="#ffffff"/>
 <text x="40" y="344" fill="#000000" font-family="Arial" font-size="12">5 - switch-case</text>
 <text x="35" y="363" fill="#000000" font-family="Arial" font-size="12">22,20,4,20,10,,6</text>
 <polyline points="200,292 194,295 188,299 181,302 175,305 169,309 162,312 156,316 150,319 144,322 138,325" stroke="#000000" fill="none"/>
 <polygon points="138,327 133,328 137,324 138,327" stroke="#000000" fill="#000000"/>
 <polygon points="329,328 199,328 199,374 329,374 329,328" stroke="#0000ff" fill="#ffffff"/>
 <text x="212" y="344" fill="#000000" font-family="Arial" font-size="12">8 - switch-case</text>
 <text x="207" y="363" fill="#000000" font-family="Arial" font-size="12">22,23,4,23,10,,9</text>
 <polyline points="264,292 264,295 264,298 264,301 264,304 264,308 264,311 264,314 264,317 264,320 264,323" stroke="#000000" fill="none"/>
 <polygon points="266,323 264,328 262,323 266,323" stroke="#000000" fill="#000000"/>
 <polygon points="535,420 395,420 395,466 535,466 535,420" stroke="#0000ff" fill="#ffffff"/>
 <text x="403" y="436" fill="#000000" font-family="Arial" font-size="12">12 - switch-default</text>
 <text x="404" y="455" fill="#000000" font-family="Arial" font-size="12">23,27,4,27,11,,13</text>
 <polyline points="302,293 314,304 328,317 342,329 356,343 371,356 386,369 400,382 413,395 426,406 437,417" stroke="#000000" fill="none"/>
 <polygon points="438,415 441,420 436,418 438,415" stroke="#000000" fill="#000000"/>
 <polygon points="134,420 4,420 4,466 134,466 134,420" stroke="#0000ff" fill="#ffffff"/>
 <text x="31" y="436" fill="#000000" font-family="Arial" font-size="12">6 - passive</text>
 <text x="12" y="455" fill="#000000" font-family="Arial" font-size="12">35,21,6,21,10,,7</text>
 <polyline points="86,374 85,378 84,382 83,386 82,390 81,394 80,398 79,403 78,407 77,411 76,415" stroke="#000000" fill="none"/>
 <polygon points="78,415 75,420 74,414 78,415" stroke="#000000" fill="#000000"/>
 <polygon points="376,410 152,410 152,475 376,475 376,410" stroke="#0000ff" fill="#ffffff"/>
 <text x="226" y="426" fill="#000000" font-family="Arial" font-size="12">9 - passive</text>
 <text x="160" y="445" fill="#000000" font-family="Arial" font-size="12">35,24,6,24,10,,1010 - passive</text>
 <text x="204" y="464" fill="#000000" font-family="Arial" font-size="12">35,25,6,25,11,,11</text>
 <polyline points="264,374 264,377 264,380 264,383 264,386 264,390 264,393 264,396 264,399 264,402 264,405" stroke="#000000" fill="none"/>
 <polygon points="266,405 264,410 262,405 266,405" stroke="#000000" fill="#000000"/>
 <polygon points="503,512 373,512 373,558 503,558 503,512" stroke="#0000ff" fill="#ffffff"/>
 <text x="396" y="528" fill="#000000" font-family="Arial" font-size="12">13 - passive</text>
 <text x="381" y="547" fill="#000000" font-family="Arial" font-size="12">35,28,6,28,6,,14</text>
 <polyline points="458,466 457,470 456,474 455,478 454,482 452,486 451,490 450,495 448,499 447,503 446,507" stroke="#000000" fill="none"/>
 <polygon points="448,507 445,512 444,506 448,507" stroke="#000000" fill="#000000"/>
 <polygon points="158,512 28,512 28,558 158,558 158,512" stroke="#0000ff" fill="#ffffff"/>
 <text x="62" y="528" fill="#000000" font-family="Arial" font-size="12">7 - break</text>
 <text x="36" y="547" fill="#000000" font-family="Arial" font-size="12">32,22,6,22,6,,14</text>
 <polyline points="75,466 76,470 77,474 78,478 79,482 80,486 81,490 82,495 84,499 85,503 86,507" stroke="#000000" fill="none"/>
 <polygon points="87,506 87,512 84,507 87,506" stroke="#000000" fill="#000000"/>
 <polygon points="371,594 157,594 157,659 371,659 371,594" stroke="#0000ff" fill="#ffffff"/>
 <text x="222" y="610" fill="#000000" font-family="Arial" font-size="12">15 - passive</text>
 <text x="165" y="629" fill="#000000" font-family="Arial" font-size="12">35,30,2,30,9,,1616 - passive</text>
 <text x="207" y="648" fill="#000000" font-family="Arial" font-size="12">35,31,2,31,2,,17</text>
 <polyline points="135,558 141,561 147,564 153,568 160,571 166,575 173,578 180,582 186,585 193,589 199,592" stroke="#000000" fill="none"/>
 <polygon points="200,590 204,594 199,594 200,590" stroke="#000000" fill="#000000"/>
 <polygon points="341,696 187,696 187,775 341,775 341,696" stroke="#a52a2a" fill="#ffffff"/>
 <text x="195" y="712" fill="#000000" font-family="Arial" font-size="12">17 - passive-implicit</text>
 <text x="243" y="731" fill="#000000" font-family="Arial" font-size="12">36,,,,,,</text>
 <text x="251" y="764" fill="#000000" font-family="Arial" font-size="12">end</text>
 <polyline points="264,660 264,663 264,666 264,669 264,672 264,675 264,678 264,681 264,684 264,688 264,691" stroke="#000000" fill="none"/>
 <polygon points="266,691 264,696 262,691 266,691" stroke="#000000" fill="#000000"/>
 <polygon points="329,512 199,512 199,558 329,558 329,512" stroke="#0000ff" fill="#ffffff"/>
 <text x="229" y="528" fill="#000000" font-family="Arial" font-size="12">11 - break</text>
 <text x="207" y="547" fill="#000000" font-family="Arial" font-size="12">32,26,6,26,6,,14</text>
 <polyline points="264,476 264,479 264,482 264,485 264,488 264,492 264,495 264,498 264,501 264,504 264,507" stroke="#000000" fill="none"/>
 <polygon points="266,507 264,512 262,507 266,507" stroke="#000000" fill="#000000"/>
 <polyline points="264,558 264,561 264,564 264,567 264,570 264,574 264,577 264,580 264,583 264,586 264,589" stroke="#000000" fill="none"/>
 <polygon points="266,589 264,594 262,589 266,589" stroke="#000000" fill="#000000"/>
 <polyline points="395,558 389,561 383,564 377,568 370,571 364,575 357,578 350,582 343,585 337,589 330,592" stroke="#000000" fill="none"/>
 <polygon points="330,594 325,594 329,590 330,594" stroke="#000000" fill="#000000"/>
</svg>
