<?xml version="1.0"?>
<svg width="490" height="1056" xmlns="http://www.w3.org/2000/svg" version="1.1">
 <polygon points="4,1053 4,4 487,4 487,1053 4,1053" stroke="#ffffff" fill="#ffffff"/>
 <polygon points="399,122 287,122 287,168 399,168 399,122" stroke="#0000ff" fill="#ffffff"/>
 <text x="305" y="138" fill="#000000" font-family="Arial" font-size="12">2 - passive</text>
 <text x="295" y="157" fill="#000000" font-family="Arial" font-size="12">35,3,4,3,20,,3</text>
 <polygon points="343,206 200,252 343,298 486,252 343,206" stroke="#0000ff" fill="#ffffff"/>
 <text x="328" y="245" fill="#000000" font-family="Arial" font-size="12">3 - if</text>
 <text x="280" y="264" fill="#000000" font-family="Arial" font-size="12">5,4,8,4,12,13,4,13</text>
 <polyline points="343,168 343,171 343,174 343,177 343,180 343,184 343,187 343,190 343,193 343,197 343,200" stroke="#000000" fill="none"/>
 <polygon points="345,201 343,206 341,201 345,201" stroke="#000000" fill="#000000"/>
 <polygon points="416,4 270,4 270,83 416,83 416,4" stroke="#006400" fill="#ffffff"/>
 <text x="278" y="20" fill="#000000" font-family="Arial" font-size="12">1 - passive-implicit</text>
 <text x="318" y="39" fill="#000000" font-family="Arial" font-size="12">36,,,,,,2</text>
 <text x="328" y="72" fill="#000000" font-family="Arial" font-size="12">start</text>
 <polyline points="343,84 343,87 343,91 343,94 343,97 343,101 343,104 343,108 343,111 343,114 343,117" stroke="#000000" fill="none"/>
 <polygon points="345,117 343,122 341,117 345,117" stroke="#000000" fill="#000000"/>
 <polygon points="208,354 56,400 208,446 360,400 208,354" stroke="#0000ff" fill="#ffffff"/>
 <text x="193" y="393" fill="#000000" font-family="Arial" font-size="12">4 - if</text>
 <text x="140" y="412" fill="#000000" font-family="Arial" font-size="12">5,5,12,5,17,12,5,10</text>
 <polyline points="311,288 305,295 298,302 292,309 285,317 278,324 271,331 264,339 257,346 250,353 244,360" stroke="#00ff00" fill="none"/>
 <text x="284" y="328" fill="#000000" font-family="Arial" font-size="12">yes</text>
 <polygon points="245,361 241,364 243,359 245,361" stroke="#00ff00" fill="#00ff00"/>
 <polygon points="374,804 244,804 244,850 374,850 374,804" stroke="#0000ff" fill="#ffffff"/>
 <text x="267" y="820" fill="#000000" font-family="Arial" font-size="12">14 - passive</text>
 <text x="252" y="839" fill="#000000" font-family="Arial" font-size="12">35,14,0,14,0,,15</text>
 <polyline points="362,292 366,301 369,311 373,321 376,331 380,342 382,353 385,365 386,376 388,388 388,399 388,399 388,401 388,407 388,418 388,437 388,464 388,502 388,553 388,618 388,700 387,712 385,723 381,734 377,745 371,756 365,766 358,776 351,785 344,793 337,800" stroke="#ff0000" fill="none"/>
 <text x="389" y="550" fill="#000000" font-family="Arial" font-size="12">no</text>
 <polygon points="338,802 334,804 336,799 338,802" stroke="#ff0000" fill="#ff0000"/>
 <polygon points="138,502 4,548 138,594 272,548 138,502" stroke="#0000ff" fill="#ffffff"/>
 <text x="123" y="541" fill="#000000" font-family="Arial" font-size="12">5 - if</text>
 <text x="79" y="560" fill="#000000" font-family="Arial" font-size="12">5,6,16,6,21,9,6,7</text>
 <polyline points="189,441 186,447 183,453 180,459 177,466 174,472 171,478 168,485 165,491 162,497 159,503" stroke="#00ff00" fill="none"/>
 <text x="178" y="476" fill="#000000" font-family="Arial" font-size="12">yes</text>
 <polygon points="160,504 157,508 157,503 160,504" stroke="#00ff00" fill="#00ff00"/>
 <polygon points="373,612 227,612 227,658 373,658 373,612" stroke="#0000ff" fill="#ffffff"/>
 <text x="258" y="628" fill="#000000" font-family="Arial" font-size="12">11 - passive</text>
 <text x="235" y="647" fill="#000000" font-family="Arial" font-size="12">35,11,12,11,12,,12</text>
 <polyline points="240,436 245,442 249,448 254,454 258,461 262,467 267,474 271,481 274,488 278,495 281,502 285,512 288,523 291,534 293,546 295,557 297,568 298,578 299,588 300,597 300,606" stroke="#ff0000" fill="none"/>
 <text x="273" y="476" fill="#000000" font-family="Arial" font-size="12">no</text>
 <polygon points="302,607 300,612 298,607 302,607" stroke="#ff0000" fill="#ff0000"/>
 <polygon points="360,888 222,888 222,934 360,934 360,888" stroke="#0000ff" fill="#ffffff"/>
 <text x="256" y="904" fill="#000000" font-family="Arial" font-size="12">15 - return</text>
 <text x="230" y="923" fill="#000000" font-family="Arial" font-size="12">30,15,4,15,11,,16</text>
 <polyline points="304,850 303,853 303,856 302,859 301,863 301,866 300,870 299,873 298,876 298,880 297,883" stroke="#000000" fill="none"/>
 <polygon points="299,883 296,888 295,883 299,883" stroke="#000000" fill="#000000"/>
 <polygon points="232,740 102,740 102,786 232,786 232,740" stroke="#0000ff" fill="#ffffff"/>
 <text x="137" y="756" fill="#000000" font-family="Arial" font-size="12">6 - return</text>
 <text x="110" y="775" fill="#000000" font-family="Arial" font-size="12">30,7,16,7,23,,16</text>
 <polyline points="134,593 134,604 134,616 134,628 134,641 135,655 136,668 137,682 139,695 142,709 145,722 145,723 146,725 146,726 147,727 147,729 148,730 148,731 149,732 149,734 150,735" stroke="#00ff00" fill="none"/>
 <text x="135" y="637" fill="#000000" font-family="Arial" font-size="12">yes</text>
 <polygon points="152,735 153,740 149,736 152,735" stroke="#00ff00" fill="#00ff00"/>
 <polygon points="284,676 154,676 154,722 284,722 284,676" stroke="#0000ff" fill="#ffffff"/>
 <text x="193" y="692" fill="#000000" font-family="Arial" font-size="12">8 - goto</text>
 <text x="162" y="711" fill="#000000" font-family="Arial" font-size="12">28,9,16,9,21,,14</text>
 <polyline points="159,587 163,595 168,604 173,612 177,621 182,630 187,639 192,648 196,656 200,664 204,671" stroke="#ff0000" fill="none"/>
 <text x="197" y="637" fill="#000000" font-family="Arial" font-size="12">no</text>
 <polygon points="206,671 207,676 203,672 206,671" stroke="#ff0000" fill="#ff0000"/>
 <polyline points="301,658 302,669 302,682 303,697 304,712 305,727 305,743 306,758 307,773 307,787 308,799" stroke="#000000" fill="none"/>
 <polygon points="309,799 308,804 306,799 309,799" stroke="#000000" fill="#000000"/>
 <polygon points="299,972 145,972 145,1051 299,1051 299,972" stroke="#a52a2a" fill="#ffffff"/>
 <text x="153" y="988" fill="#000000" font-family="Arial" font-size="12">17 - passive-implicit</text>
 <text x="201" y="1007" fill="#000000" font-family="Arial" font-size="12">36,,,,,,</text>
 <text x="209" y="1040" fill="#000000" font-family="Arial" font-size="12">end</text>
 <polyline points="172,786 175,800 179,816 183,833 187,852 191,872 196,893 200,913 204,932 208,950 212,967" stroke="#000000" fill="none"/>
 <polygon points="214,967 213,972 211,968 214,967" stroke="#000000" fill="#000000"/>
 <polyline points="235,722 240,729 245,736 250,744 256,752 262,761 268,769 274,777 280,785 285,793 290,800" stroke="#000000" fill="none"/>
 <polygon points="292,799 293,804 289,801 292,799" stroke="#000000" fill="#000000"/>
 <polyline points="275,934 273,937 271,940 268,943 266,947 264,950 262,954 259,957 257,961 254,964 252,968" stroke="#000000" fill="none"/>
 <polygon points="253,969 249,972 250,967 253,969" stroke="#000000" fill="#000000"/>
</svg>
