<?xml version="1.0"?>
<svg width="376" height="728" xmlns="http://www.w3.org/2000/svg" version="1.1">
 <polygon points="4,725 4,4 373,4 373,725 4,725" stroke="#ffffff" fill="#ffffff"/>
 <ellipse cx="202" cy="239" rx="106" ry="33" stroke="#0000ff" fill="#ffffff"/>
 <text x="162" y="232" fill="#000000" font-family="Arial" font-size="12">2 - while-for</text>
 <text x="135" y="251" fill="#000000" font-family="Arial" font-size="12">10,4,6,4,13,10,3,11</text>
 <polygon points="257,328 147,328 147,374 257,374 257,328" stroke="#0000ff" fill="#ffffff"/>
 <text x="164" y="344" fill="#000000" font-family="Arial" font-size="12">3 - passive</text>
 <text x="155" y="363" fill="#000000" font-family="Arial" font-size="12">35,5,4,5,11,,4</text>
 <polyline points="202,272 202,277 202,282 202,287 202,292 202,298 202,303 202,308 202,313 202,318 202,323" stroke="#00ff00" fill="none"/>
 <text x="202" y="302" fill="#000000" font-family="Arial" font-size="12">yes</text>
 <polygon points="204,323 202,328 200,323 204,323" stroke="#00ff00" fill="#00ff00"/>
 <polygon points="158,644 4,644 4,723 158,723 158,644" stroke="#a52a2a" fill="#ffffff"/>
 <text x="12" y="660" fill="#000000" font-family="Arial" font-size="12">12 - passive-implicit</text>
 <text x="60" y="679" fill="#000000" font-family="Arial" font-size="12">36,,,,,,</text>
 <text x="68" y="712" fill="#000000" font-family="Arial" font-size="12">end</text>
 <polyline points="129,263 117,268 106,275 95,281 85,289 75,297 67,306 60,316 55,326 52,338 51,350 51,350 51,352 51,356 51,365 51,379 51,401 51,430 51,470 51,521 51,584 51,590 52,595 52,601 53,607 54,613 56,618 57,624 59,629 60,635 62,640" stroke="#ff0000" fill="none"/>
 <text x="52" y="460" fill="#000000" font-family="Arial" font-size="12">no</text>
 <polygon points="64,639 64,644 60,640 64,639" stroke="#ff0000" fill="#ff0000"/>
 <polygon points="233,88 87,88 87,167 233,167 233,88" stroke="#006400" fill="#ffffff"/>
 <text x="95" y="104" fill="#000000" font-family="Arial" font-size="12">1 - passive-implicit</text>
 <text x="135" y="123" fill="#000000" font-family="Arial" font-size="12">36,,,,,,2</text>
 <text x="145" y="156" fill="#000000" font-family="Arial" font-size="12">start</text>
 <polyline points="175,168 176,171 178,175 179,178 180,182 182,185 183,188 184,192 185,195 187,199 188,202" stroke="#000000" fill="none"/>
 <polygon points="190,201 190,207 186,203 190,201" stroke="#000000" fill="#000000"/>
 <polygon points="202,412 86,458 202,504 318,458 202,412" stroke="#0000ff" fill="#ffffff"/>
 <text x="187" y="451" fill="#000000" font-family="Arial" font-size="12">4 - if</text>
 <text x="152" y="470" fill="#000000" font-family="Arial" font-size="12">5,6,8,6,8,8,5,8</text>
 <polyline points="202,374 202,377 202,380 202,383 202,386 202,390 202,393 202,396 202,399 202,403 202,406" stroke="#000000" fill="none"/>
 <polygon points="204,407 202,412 200,407 204,407" stroke="#000000" fill="#000000"/>
 <polygon points="203,560 93,560 93,606 203,606 203,560" stroke="#0000ff" fill="#ffffff"/>
 <text x="117" y="576" fill="#000000" font-family="Arial" font-size="12">5 - break</text>
 <text x="101" y="595" fill="#000000" font-family="Arial" font-size="12">32,7,6,7,6,,11</text>
 <polyline points="185,498 183,504 180,509 177,515 175,521 172,527 170,533 167,539 165,544 162,550 160,555" stroke="#00ff00" fill="none"/>
 <text x="174" y="534" fill="#000000" font-family="Arial" font-size="12">yes</text>
 <polygon points="161,556 158,560 158,554 161,556" stroke="#00ff00" fill="#00ff00"/>
 <polygon points="372,560 254,560 254,606 372,606 372,560" stroke="#0000ff" fill="#ffffff"/>
 <text x="273" y="576" fill="#000000" font-family="Arial" font-size="12">9 - continue</text>
 <text x="262" y="595" fill="#000000" font-family="Arial" font-size="12">33,11,4,11,4,,2</text>
 <polyline points="232,492 238,498 243,505 249,511 255,518 261,524 267,531 273,538 279,544 284,550 289,556" stroke="#ff0000" fill="none"/>
 <text x="274" y="534" fill="#000000" font-family="Arial" font-size="12">no</text>
 <polygon points="291,555 293,560 288,557 291,555" stroke="#ff0000" fill="#ff0000"/>
 <polyline points="133,606 131,609 129,612 126,615 124,619 122,622 120,626 117,629 115,633 112,636 110,640" stroke="#000000" fill="none"/>
 <polygon points="111,641 107,644 109,639 111,641" stroke="#000000" fill="#000000"/>
 <polyline points="320,560 323,549 326,537 329,523 332,508 334,493 335,477 335,460 334,444 331,428 327,412 321,396 314,380 305,364 296,349 287,335 276,321 266,308 256,295 246,284 237,274" stroke="#000000" fill="none"/>
 <polygon points="235,275 233,270 238,273 235,275" stroke="#000000" fill="#000000"/>
 <polygon points="354,105 252,105 252,151 354,151 354,105" stroke="#0000ff" fill="#ffffff"/>
 <text x="263" y="121" fill="#000000" font-family="Arial" font-size="12">7 - continue</text>
 <text x="260" y="140" fill="#000000" font-family="Arial" font-size="12">33,9,6,9,6,,2</text>
 <polyline points="283,151 279,156 274,161 269,166 264,171 259,176 254,182 249,187 244,193 239,198 234,203" stroke="#000000" fill="none"/>
 <polygon points="235,205 230,207 233,202 235,205" stroke="#000000" fill="#000000"/>
 <polygon points="354,4 252,4 252,50 354,50 354,4" stroke="#ff0000" fill="#ffffff"/>
 <text x="265" y="20" fill="#000000" font-family="Arial" font-size="12">6 - passive</text>
 <text x="260" y="39" fill="#000000" font-family="Arial" font-size="12">35,8,6,8,6,,7</text>
 <polyline points="303,50 303,55 303,59 303,64 303,69 303,75 303,80 303,85 303,90 303,95 303,100" stroke="#000000" fill="none"/>
 <polygon points="305,100 303,105 301,100 305,100" stroke="#000000" fill="#000000"/>
</svg>
