<?xml version="1.0"?>
<svg width="409" height="792" xmlns="http://www.w3.org/2000/svg" version="1.1">
 <polygon points="4,789 4,4 406,4 406,789 4,789" stroke="#ffffff" fill="#ffffff"/>
 <polygon points="346,122 158,122 158,187 346,187 346,122" stroke="#0000ff" fill="#ffffff"/>
 <text x="214" y="138" fill="#000000" font-family="Arial" font-size="12">2 - passive</text>
 <text x="166" y="157" fill="#000000" font-family="Arial" font-size="12">35,9,4,9,12,,33 - passive</text>
 <text x="195" y="176" fill="#000000" font-family="Arial" font-size="12">35,10,4,10,18,,4</text>
 <ellipse cx="252" cy="259" rx="112" ry="33" stroke="#0000ff" fill="#ffffff"/>
 <text x="212" y="252" fill="#000000" font-family="Arial" font-size="12">4 - while-for</text>
 <text x="181" y="271" fill="#000000" font-family="Arial" font-size="12">10,11,8,11,37,9,5,10</text>
 <polyline points="252,188 252,191 252,194 252,197 252,201 252,204 252,208 252,211 252,214 252,218 252,221" stroke="#000000" fill="none"/>
 <polygon points="254,221 252,226 250,221 254,221" stroke="#000000" fill="#000000"/>
 <polygon points="325,4 179,4 179,83 325,83 325,4" stroke="#006400" fill="#ffffff"/>
 <text x="187" y="20" fill="#000000" font-family="Arial" font-size="12">1 - passive-implicit</text>
 <text x="227" y="39" fill="#000000" font-family="Arial" font-size="12">36,,,,,,2</text>
 <text x="237" y="72" fill="#000000" font-family="Arial" font-size="12">start</text>
 <polyline points="252,84 252,87 252,91 252,94 252,97 252,101 252,104 252,107 252,110 252,114 252,117" stroke="#000000" fill="none"/>
 <polygon points="254,117 252,122 250,117 254,117" stroke="#000000" fill="#000000"/>
 <polygon points="216,348 86,348 86,394 216,394 216,348" stroke="#0000ff" fill="#ffffff"/>
 <text x="113" y="364" fill="#000000" font-family="Arial" font-size="12">5 - passive</text>
 <text x="94" y="383" fill="#000000" font-family="Arial" font-size="12">35,12,8,12,15,,6</text>
 <polyline points="224,291 219,296 214,301 209,306 204,312 199,318 194,323 189,329 184,334 180,339 175,344" stroke="#00ff00" fill="none"/>
 <text x="205" y="322" fill="#000000" font-family="Arial" font-size="12">yes</text>
 <polygon points="176,345 171,348 173,343 176,345" stroke="#00ff00" fill="#00ff00"/>
 <polygon points="405,412 267,412 267,458 405,458 405,412" stroke="#0000ff" fill="#ffffff"/>
 <text x="302" y="428" fill="#000000" font-family="Arial" font-size="12">11 - return</text>
 <text x="275" y="447" fill="#000000" font-family="Arial" font-size="12">30,17,4,17,11,,12</text>
 <polyline points="267,292 272,302 278,314 283,326 289,338 295,350 301,363 307,375 313,386 318,397 323,407" stroke="#ff0000" fill="none"/>
 <text x="286" y="322" fill="#000000" font-family="Arial" font-size="12">no</text>
 <polygon points="325,407 325,412 322,408 325,407" stroke="#ff0000" fill="#ff0000"/>
 <polygon points="156,476 4,522 156,568 308,522 156,476" stroke="#0000ff" fill="#ffffff"/>
 <text x="141" y="515" fill="#000000" font-family="Arial" font-size="12">6 - if</text>
 <text x="88" y="534" fill="#000000" font-family="Arial" font-size="12">5,13,12,13,16,8,7,8</text>
 <polyline points="152,394 152,401 152,408 152,415 152,423 153,431 153,439 153,447 153,455 154,463 154,471" stroke="#000000" fill="none"/>
 <polygon points="156,471 155,476 153,471 156,471" stroke="#000000" fill="#000000"/>
 <polygon points="376,708 222,708 222,787 376,787 376,708" stroke="#a52a2a" fill="#ffffff"/>
 <text x="230" y="724" fill="#000000" font-family="Arial" font-size="12">13 - passive-implicit</text>
 <text x="278" y="743" fill="#000000" font-family="Arial" font-size="12">36,,,,,,</text>
 <text x="286" y="776" fill="#000000" font-family="Arial" font-size="12">end</text>
 <polyline points="333,458 331,476 328,497 326,521 323,547 319,575 316,603 313,630 310,657 307,681 304,703" stroke="#000000" fill="none"/>
 <polygon points="306,704 304,708 302,703 306,704" stroke="#000000" fill="#000000"/>
 <polyline points="180,483 185,476 189,468 194,459 199,450 204,441 209,432 213,422 218,413 221,403 225,394 228,384 232,374 235,364 237,354 240,344 242,334 244,324 245,314 247,305 248,297" stroke="#ff0000" fill="none"/>
 <text x="239" y="373" fill="#000000" font-family="Arial" font-size="12">no</text>
 <polygon points="246,296 248,292 249,297 246,296" stroke="#ff0000" fill="#ff0000"/>
 <polygon points="289,624 141,624 141,670 289,670 289,624" stroke="#0000ff" fill="#ffffff"/>
 <text x="185" y="640" fill="#000000" font-family="Arial" font-size="12">7 - return</text>
 <text x="149" y="659" fill="#000000" font-family="Arial" font-size="12">30,14,12,14,19,,12</text>
 <polyline points="175,563 178,569 180,574 183,580 186,586 189,592 192,598 194,603 197,609 200,614 202,619" stroke="#00ff00" fill="none"/>
 <text x="195" y="598" fill="#000000" font-family="Arial" font-size="12">yes</text>
 <polygon points="204,618 204,624 201,620 204,618" stroke="#00ff00" fill="#00ff00"/>
 <polyline points="234,670 237,673 240,677 242,680 245,684 248,687 251,690 254,694 257,697 260,701 263,704" stroke="#000000" fill="none"/>
 <polygon points="264,703 266,708 262,706 264,703" stroke="#000000" fill="#000000"/>
</svg>
