<?xml version="1.0"?>
<svg width="258" height="438" xmlns="http://www.w3.org/2000/svg" version="1.1">
 <polygon points="4,435 4,4 255,4 255,435 4,435" stroke="#ffffff" fill="#ffffff"/>
 <polygon points="129,122 4,168 129,214 254,168 129,122" stroke="#0000ff" fill="#ffffff"/>
 <text x="114" y="161" fill="#000000" font-family="Arial" font-size="12">2 - if</text>
 <text x="75" y="180" fill="#000000" font-family="Arial" font-size="12">5,5,6,5,10,4,3,4</text>
 <polygon points="116,270 4,270 4,316 116,316 116,270" stroke="#0000ff" fill="#ffffff"/>
 <text x="30" y="286" fill="#000000" font-family="Arial" font-size="12">3 - return</text>
 <text x="12" y="305" fill="#000000" font-family="Arial" font-size="12">30,6,4,6,10,,5</text>
 <polyline points="108,207 105,213 101,218 98,224 95,230 91,236 88,242 84,248 81,254 78,260 75,265" stroke="#00ff00" fill="none"/>
 <text x="93" y="244" fill="#000000" font-family="Arial" font-size="12">yes</text>
 <polygon points="77,266 73,270 73,264 77,266" stroke="#00ff00" fill="#00ff00"/>
 <polygon points="196,354 50,354 50,433 196,433 196,354" stroke="#a52a2a" fill="#ffffff"/>
 <text x="58" y="370" fill="#000000" font-family="Arial" font-size="12">6 - passive-implicit</text>
 <text x="102" y="389" fill="#000000" font-family="Arial" font-size="12">36,,,,,,</text>
 <text x="110" y="422" fill="#000000" font-family="Arial" font-size="12">end</text>
 <polyline points="128,214 128,226 127,239 127,253 126,267 126,282 126,296 125,310 125,324 124,337 124,349" stroke="#ff0000" fill="none"/>
 <text x="128" y="295" fill="#000000" font-family="Arial" font-size="12">no</text>
 <polygon points="126,349 124,354 122,349 126,349" stroke="#ff0000" fill="#ff0000"/>
 <polygon points="202,4 56,4 56,83 202,83 202,4" stroke="#006400" fill="#ffffff"/>
 <text x="64" y="20" fill="#000000" font-family="Arial" font-size="12">1 - passive-implicit</text>
 <text x="104" y="39" fill="#000000" font-family="Arial" font-size="12">36,,,,,,2</text>
 <text x="114" y="72" fill="#000000" font-family="Arial" font-size="12">start</text>
 <polyline points="129,84 129,87 129,90 129,93 129,97 129,100 129,104 129,107 129,110 129,114 129,117" stroke="#000000" fill="none"/>
 <polygon points="131,117 129,122 127,117 131,117" stroke="#000000" fill="#000000"/>
 <polyline points="74,316 76,319 78,322 80,325 82,329 85,332 87,336 89,339 91,343 94,346 96,350" stroke="#000000" fill="none"/>
 <polygon points="97,349 98,354 94,351 97,349" stroke="#000000" fill="#000000"/>
</svg>
