<?xml version="1.0"?>
<svg width="210" height="388" xmlns="http://www.w3.org/2000/svg" version="1.1">
 <polygon points="4,385 4,4 207,4 207,385 4,385" stroke="#ffffff" fill="#ffffff"/>
 <polygon points="206,120 4,120 4,185 206,185 206,120" stroke="#0000ff" fill="#ffffff"/>
 <text x="67" y="136" fill="#000000" font-family="Arial" font-size="12">2 - passive</text>
 <text x="12" y="155" fill="#000000" font-family="Arial" font-size="12">35,11,2,11,11,,33 - passive</text>
 <text x="49" y="174" fill="#000000" font-family="Arial" font-size="12">35,12,2,12,11,,4</text>
 <polygon points="165,222 45,222 45,268 165,268 165,222" stroke="#0000ff" fill="#ffffff"/>
 <text x="75" y="238" fill="#000000" font-family="Arial" font-size="12">4 - return</text>
 <text x="53" y="257" fill="#000000" font-family="Arial" font-size="12">30,13,2,13,9,,5</text>
 <polyline points="105,186 105,189 105,192 105,195 105,198 105,202 105,205 105,208 105,211 105,214 105,217" stroke="#000000" fill="none"/>
 <polygon points="107,217 105,222 103,217 107,217" stroke="#000000" fill="#000000"/>
 <polygon points="178,4 32,4 32,83 178,83 178,4" stroke="#006400" fill="#ffffff"/>
 <text x="40" y="20" fill="#000000" font-family="Arial" font-size="12">1 - passive-implicit</text>
 <text x="80" y="39" fill="#000000" font-family="Arial" font-size="12">36,,,,,,2</text>
 <text x="90" y="72" fill="#000000" font-family="Arial" font-size="12">start</text>
 <polyline points="105,84 105,87 105,90 105,93 105,96 105,100 105,103 105,106 105,109 105,112 105,115" stroke="#000000" fill="none"/>
 <polygon points="107,115 105,120 103,115 107,115" stroke="#000000" fill="#000000"/>
 <polygon points="178,304 32,304 32,383 178,383 178,304" stroke="#a52a2a" fill="#ffffff"/>
 <text x="40" y="320" fill="#000000" font-family="Arial" font-size="12">5 - passive-implicit</text>
 <text x="84" y="339" fill="#000000" font-family="Arial" font-size="12">36,,,,,,</text>
 <text x="92" y="372" fill="#000000" font-family="Arial" font-size="12">end</text>
 <polyline points="105,268 105,271 105,274 105,277 105,280 105,283 105,286 105,289 105,292 105,296 105,299" stroke="#000000" fill="none"/>
 <polygon points="107,299 105,304 103,299 107,299" stroke="#000000" fill="#000000"/>
</svg>
