<?xml version="1.0"?>
<svg width="388" height="800" xmlns="http://www.w3.org/2000/svg" version="1.1">
 <polygon points="4,797 4,4 385,4 385,797 4,797" stroke="#ffffff" fill="#ffffff"/>
 <polygon points="185,122 73,122 73,168 185,168 185,122" stroke="#0000ff" fill="#ffffff"/>
 <text x="91" y="138" fill="#000000" font-family="Arial" font-size="12">2 - passive</text>
 <text x="81" y="157" fill="#000000" font-family="Arial" font-size="12">35,3,4,3,12,,3</text>
 <polygon points="129,206 4,252 129,298 254,252 129,206" stroke="#0000ff" fill="#ffffff"/>
 <text x="114" y="245" fill="#000000" font-family="Arial" font-size="12">3 - if</text>
 <text x="75" y="264" fill="#000000" font-family="Arial" font-size="12">5,4,8,4,12,5,4,5</text>
 <polyline points="129,168 129,171 129,174 129,177 129,180 129,184 129,187 129,190 129,193 129,197 129,200" stroke="#000000" fill="none"/>
 <polygon points="131,201 129,206 127,201 131,201" stroke="#000000" fill="#000000"/>
 <polygon points="202,4 56,4 56,83 202,83 202,4" stroke="#006400" fill="#ffffff"/>
 <text x="64" y="20" fill="#000000" font-family="Arial" font-size="12">1 - passive-implicit</text>
 <text x="104" y="39" fill="#000000" font-family="Arial" font-size="12">36,,,,,,2</text>
 <text x="114" y="72" fill="#000000" font-family="Arial" font-size="12">start</text>
 <polyline points="129,84 129,87 129,91 129,94 129,97 129,101 129,104 129,108 129,111 129,114 129,117" stroke="#000000" fill="none"/>
 <polygon points="131,117 129,122 127,117 131,117" stroke="#000000" fill="#000000"/>
 <polygon points="162,464 50,464 50,510 162,510 162,464" stroke="#0000ff" fill="#ffffff"/>
 <text x="80" y="480" fill="#000000" font-family="Arial" font-size="12">4 - goto</text>
 <text x="58" y="499" fill="#000000" font-family="Arial" font-size="12">28,5,8,5,13,,9</text>
 <polyline points="125,297 123,312 122,328 120,345 118,363 117,381 115,398 113,415 112,431 110,446 109,459" stroke="#00ff00" fill="none"/>
 <text x="123" y="328" fill="#000000" font-family="Arial" font-size="12">yes</text>
 <polygon points="110,459 108,464 107,459 110,459" stroke="#00ff00" fill="#00ff00"/>
 <polygon points="259,354 134,400 259,446 384,400 259,354" stroke="#0000ff" fill="#ffffff"/>
 <text x="244" y="393" fill="#000000" font-family="Arial" font-size="12">6 - if</text>
 <text x="205" y="412" fill="#000000" font-family="Arial" font-size="12">5,6,8,6,12,8,7,8</text>
 <polyline points="159,287 165,294 172,301 178,308 185,316 192,324 199,331 206,339 212,347 219,354 225,361" stroke="#ff0000" fill="none"/>
 <text x="203" y="328" fill="#000000" font-family="Arial" font-size="12">no</text>
 <polygon points="227,360 229,365 224,362 227,360" stroke="#ff0000" fill="#ff0000"/>
 <polygon points="293,612 97,612 97,677 293,677 293,612" stroke="#0000ff" fill="#ffffff"/>
 <text x="157" y="628" fill="#000000" font-family="Arial" font-size="12">9 - passive</text>
 <text x="105" y="647" fill="#000000" font-family="Arial" font-size="12">35,7,0,7,0,,1010 - passive</text>
 <text x="148" y="666" fill="#000000" font-family="Arial" font-size="12">35,8,4,8,5,,11</text>
 <polyline points="107,510 108,516 109,522 110,528 111,535 113,541 114,548 117,555 119,561 122,568 125,574 127,578 130,582 132,585 135,589 137,592 140,596 143,599 146,602 149,606 152,609" stroke="#000000" fill="none"/>
 <polygon points="153,608 156,612 151,610 153,608" stroke="#000000" fill="#000000"/>
 <polygon points="255,528 135,528 135,574 255,574 255,528" stroke="#0000ff" fill="#ffffff"/>
 <text x="157" y="544" fill="#000000" font-family="Arial" font-size="12">7 - passive</text>
 <text x="143" y="563" fill="#000000" font-family="Arial" font-size="12">35,6,15,6,15,,8</text>
 <polyline points="242,440 239,448 235,456 231,465 228,474 224,483 220,491 217,500 213,508 210,516 207,523" stroke="#00ff00" fill="none"/>
 <text x="231" y="489" fill="#000000" font-family="Arial" font-size="12">yes</text>
 <polygon points="208,524 205,528 205,522 208,524" stroke="#00ff00" fill="#00ff00"/>
 <polyline points="269,443 271,454 273,466 274,479 275,493 276,506 275,520 274,534 272,548 268,561 264,574 262,578 261,582 259,585 256,589 254,593 251,596 249,599 246,603 243,606 240,609" stroke="#ff0000" fill="none"/>
 <text x="275" y="553" fill="#000000" font-family="Arial" font-size="12">no</text>
 <polygon points="241,610 237,612 239,607 241,610" stroke="#ff0000" fill="#ff0000"/>
 <polygon points="272,716 118,716 118,795 272,795 272,716" stroke="#a52a2a" fill="#ffffff"/>
 <text x="126" y="732" fill="#000000" font-family="Arial" font-size="12">11 - passive-implicit</text>
 <text x="174" y="751" fill="#000000" font-family="Arial" font-size="12">36,,,,,,</text>
 <text x="182" y="784" fill="#000000" font-family="Arial" font-size="12">end</text>
 <polyline points="195,678 195,681 195,684 195,687 195,691 195,694 195,698 195,701 195,704 195,708 195,711" stroke="#000000" fill="none"/>
 <polygon points="197,711 195,716 193,711 197,711" stroke="#000000" fill="#000000"/>
 <polyline points="195,574 195,577 195,580 195,583 195,587 195,590 195,594 195,597 195,600 195,604 195,607" stroke="#000000" fill="none"/>
 <polygon points="197,607 195,612 193,607 197,607" stroke="#000000" fill="#000000"/>
</svg>
