<?xml version="1.0"?>
<svg width="196" height="388" xmlns="http://www.w3.org/2000/svg" version="1.1">
 <polygon points="4,385 4,4 193,4 193,385 4,385" stroke="#ffffff" fill="#ffffff"/>
 <polygon points="192,120 4,120 4,185 192,185 192,120" stroke="#0000ff" fill="#ffffff"/>
 <text x="60" y="136" fill="#000000" font-family="Arial" font-size="12">2 - passive</text>
 <text x="12" y="155" fill="#000000" font-family="Arial" font-size="12">35,3,4,3,15,,33 - passive</text>
 <text x="50" y="174" fill="#000000" font-family="Arial" font-size="12">35,4,4,4,14,,4</text>
 <polygon points="149,222 47,222 47,268 149,268 149,222" stroke="#0000ff" fill="#ffffff"/>
 <text x="68" y="238" fill="#000000" font-family="Arial" font-size="12">4 - return</text>
 <text x="55" y="257" fill="#000000" font-family="Arial" font-size="12">30,5,4,5,4,,5</text>
 <polyline points="98,186 98,189 98,192 98,195 98,198 98,202 98,205 98,208 98,211 98,214 98,217" stroke="#000000" fill="none"/>
 <polygon points="100,217 98,222 96,217 100,217" stroke="#000000" fill="#000000"/>
 <polygon points="171,4 25,4 25,83 171,83 171,4" stroke="#006400" fill="#ffffff"/>
 <text x="33" y="20" fill="#000000" font-family="Arial" font-size="12">1 - passive-implicit</text>
 <text x="73" y="39" fill="#000000" font-family="Arial" font-size="12">36,,,,,,2</text>
 <text x="83" y="72" fill="#000000" font-family="Arial" font-size="12">start</text>
 <polyline points="98,84 98,87 98,90 98,93 98,96 98,100 98,103 98,106 98,109 98,112 98,115" stroke="#000000" fill="none"/>
 <polygon points="100,115 98,120 96,115 100,115" stroke="#000000" fill="#000000"/>
 <polygon points="171,304 25,304 25,383 171,383 171,304" stroke="#a52a2a" fill="#ffffff"/>
 <text x="33" y="320" fill="#000000" font-family="Arial" font-size="12">5 - passive-implicit</text>
 <text x="77" y="339" fill="#000000" font-family="Arial" font-size="12">36,,,,,,</text>
 <text x="85" y="372" fill="#000000" font-family="Arial" font-size="12">end</text>
 <polyline points="98,268 98,271 98,274 98,277 98,280 98,283 98,286 98,289 98,292 98,296 98,299" stroke="#000000" fill="none"/>
 <polygon points="100,299 98,304 96,299 100,299" stroke="#000000" fill="#000000"/>
</svg>
