<?xml version="1.0"?>
<svg width="353" height="626" xmlns="http://www.w3.org/2000/svg" version="1.1">
 <polygon points="4,623 4,4 350,4 350,623 4,623" stroke="#ffffff" fill="#ffffff"/>
 <polygon points="336,122 216,122 216,168 336,168 336,122" stroke="#0000ff" fill="#ffffff"/>
 <text x="250" y="138" fill="#000000" font-family="Arial" font-size="12">2 - goto</text>
 <text x="224" y="157" fill="#000000" font-family="Arial" font-size="12">28,10,2,10,7,,5</text>
 <polygon points="336,206 216,206 216,252 336,252 336,206" stroke="#0000ff" fill="#ffffff"/>
 <text x="238" y="222" fill="#000000" font-family="Arial" font-size="12">5 - passive</text>
 <text x="224" y="241" fill="#000000" font-family="Arial" font-size="12">35,14,0,14,0,,6</text>
 <polyline points="276,168 276,171 276,174 276,177 276,181 276,184 276,188 276,191 276,194 276,198 276,201" stroke="#000000" fill="none"/>
 <polygon points="278,201 276,206 274,201 278,201" stroke="#000000" fill="#000000"/>
 <polygon points="349,4 203,4 203,83 349,83 349,4" stroke="#006400" fill="#ffffff"/>
 <text x="211" y="20" fill="#000000" font-family="Arial" font-size="12">1 - passive-implicit</text>
 <text x="251" y="39" fill="#000000" font-family="Arial" font-size="12">36,,,,,,2</text>
 <text x="261" y="72" fill="#000000" font-family="Arial" font-size="12">start</text>
 <polyline points="276,84 276,87 276,91 276,94 276,97 276,101 276,104 276,108 276,111 276,114 276,117" stroke="#000000" fill="none"/>
 <polygon points="278,117 276,122 274,117 278,117" stroke="#000000" fill="#000000"/>
 <polygon points="155,290 21,336 155,382 289,336 155,290" stroke="#0000ff" fill="#ffffff"/>
 <text x="140" y="329" fill="#000000" font-family="Arial" font-size="12">6 - if</text>
 <text x="96" y="348" fill="#000000" font-family="Arial" font-size="12">5,15,6,15,6,8,7,8</text>
 <polyline points="251,252 246,256 241,261 235,265 230,270 224,275 219,280 213,284 207,289 201,294 196,299" stroke="#000000" fill="none"/>
 <polygon points="197,301 192,303 195,298 197,301" stroke="#000000" fill="#000000"/>
 <polygon points="345,556 149,556 149,621 345,621 345,556" stroke="#0000ff" fill="#ffffff"/>
 <text x="209" y="572" fill="#000000" font-family="Arial" font-size="12">3 - passive</text>
 <text x="157" y="591" fill="#000000" font-family="Arial" font-size="12">35,12,0,12,0,,44 - passive</text>
 <text x="195" y="610" fill="#000000" font-family="Arial" font-size="12">35,13,4,13,4,,5</text>
 <polyline points="277,556 279,553 282,549 284,546 287,542 289,538 291,534 293,530 295,526 297,522 298,518 306,491 312,467 315,445 317,425 316,406 315,386 312,365 308,343 303,318 298,290 297,287 297,283 296,280 295,277 294,273 293,270 292,266 290,263 289,260 288,257" stroke="#000000" fill="none"/>
 <polygon points="287,258 286,252 290,256 287,258" stroke="#000000" fill="#000000"/>
 <polygon points="124,455 4,455 4,501 124,501 124,455" stroke="#0000ff" fill="#ffffff"/>
 <text x="38" y="471" fill="#000000" font-family="Arial" font-size="12">7 - goto</text>
 <text x="12" y="490" fill="#000000" font-family="Arial" font-size="12">28,16,4,16,9,,3</text>
 <polyline points="131,374 126,381 121,389 116,397 111,405 105,413 100,421 95,429 90,437 85,444 81,451" stroke="#00ff00" fill="none"/>
 <text x="113" y="412" fill="#000000" font-family="Arial" font-size="12">yes</text>
 <polygon points="83,452 78,455 80,450 83,452" stroke="#00ff00" fill="#00ff00"/>
 <polygon points="289,438 143,438 143,517 289,517 289,438" stroke="#a52a2a" fill="#ffffff"/>
 <text x="151" y="454" fill="#000000" font-family="Arial" font-size="12">9 - passive-implicit</text>
 <text x="195" y="473" fill="#000000" font-family="Arial" font-size="12">36,,,,,,</text>
 <text x="203" y="506" fill="#000000" font-family="Arial" font-size="12">end</text>
 <polyline points="172,376 174,381 177,387 179,393 182,399 185,405 187,411 190,416 192,422 195,428 197,434" stroke="#ff0000" fill="none"/>
 <text x="192" y="412" fill="#000000" font-family="Arial" font-size="12">no</text>
 <polygon points="199,433 199,438 196,435 199,433" stroke="#ff0000" fill="#ff0000"/>
 <polyline points="101,501 109,506 117,511 126,516 135,521 144,527 153,532 162,538 171,543 180,549 189,554" stroke="#000000" fill="none"/>
 <polygon points="191,552 194,556 189,555 191,552" stroke="#000000" fill="#000000"/>
</svg>
