<?xml version="1.0"?>
<svg width="214" height="388" xmlns="http://www.w3.org/2000/svg" version="1.1">
 <polygon points="4,385 4,4 211,4 211,385 4,385" stroke="#ffffff" fill="#ffffff"/>
 <polygon points="210,120 4,120 4,185 210,185 210,120" stroke="#0000ff" fill="#ffffff"/>
 <text x="69" y="136" fill="#000000" font-family="Arial" font-size="12">2 - passive</text>
 <text x="12" y="155" fill="#000000" font-family="Arial" font-size="12">35,21,2,21,23,,33 - passive</text>
 <text x="50" y="174" fill="#000000" font-family="Arial" font-size="12">35,22,2,22,16,,4</text>
 <polygon points="167,222 47,222 47,268 167,268 167,222" stroke="#0000ff" fill="#ffffff"/>
 <text x="77" y="238" fill="#000000" font-family="Arial" font-size="12">4 - return</text>
 <text x="55" y="257" fill="#000000" font-family="Arial" font-size="12">30,23,2,23,9,,5</text>
 <polyline points="107,186 107,189 107,192 107,195 107,198 107,202 107,205 107,208 107,211 107,214 107,217" stroke="#000000" fill="none"/>
 <polygon points="109,217 107,222 105,217 109,217" stroke="#000000" fill="#000000"/>
 <polygon points="180,4 34,4 34,83 180,83 180,4" stroke="#006400" fill="#ffffff"/>
 <text x="42" y="20" fill="#000000" font-family="Arial" font-size="12">1 - passive-implicit</text>
 <text x="82" y="39" fill="#000000" font-family="Arial" font-size="12">36,,,,,,2</text>
 <text x="92" y="72" fill="#000000" font-family="Arial" font-size="12">start</text>
 <polyline points="107,84 107,87 107,90 107,93 107,96 107,100 107,103 107,106 107,109 107,112 107,115" stroke="#000000" fill="none"/>
 <polygon points="109,115 107,120 105,115 109,115" stroke="#000000" fill="#000000"/>
 <polygon points="180,304 34,304 34,383 180,383 180,304" stroke="#a52a2a" fill="#ffffff"/>
 <text x="42" y="320" fill="#000000" font-family="Arial" font-size="12">5 - passive-implicit</text>
 <text x="86" y="339" fill="#000000" font-family="Arial" font-size="12">36,,,,,,</text>
 <text x="94" y="372" fill="#000000" font-family="Arial" font-size="12">end</text>
 <polyline points="107,268 107,271 107,274 107,277 107,280 107,283 107,286 107,289 107,292 107,296 107,299" stroke="#000000" fill="none"/>
 <polygon points="109,299 107,304 105,299 109,299" stroke="#000000" fill="#000000"/>
</svg>
