<?xml version="1.0"?>
<svg width="204" height="464" xmlns="http://www.w3.org/2000/svg" version="1.1">
 <polygon points="4,461 4,4 201,4 201,461 4,461" stroke="#ffffff" fill="#ffffff"/>
 <polygon points="200,120 4,120 4,261 200,261 200,120" stroke="#0000ff" fill="#ffffff"/>
 <text x="64" y="136" fill="#000000" font-family="Arial" font-size="12">2 - passive</text>
 <text x="16" y="155" fill="#000000" font-family="Arial" font-size="12">35,5,2,5,16,,33 - passive</text>
 <text x="16" y="174" fill="#000000" font-family="Arial" font-size="12">35,6,2,6,24,,44 - passive</text>
 <text x="21" y="193" fill="#000000" font-family="Arial" font-size="12">35,8,2,8,6,,55 - passive</text>
 <text x="21" y="212" fill="#000000" font-family="Arial" font-size="12">35,9,2,9,6,,66 - passive</text>
 <text x="12" y="231" fill="#000000" font-family="Arial" font-size="12">35,10,2,10,6,,77 - passive</text>
 <text x="45" y="250" fill="#000000" font-family="Arial" font-size="12">35,13,2,13,33,,8</text>
 <polygon points="162,298 42,298 42,344 162,344 162,298" stroke="#0000ff" fill="#ffffff"/>
 <text x="72" y="314" fill="#000000" font-family="Arial" font-size="12">8 - return</text>
 <text x="50" y="333" fill="#000000" font-family="Arial" font-size="12">30,15,2,15,9,,9</text>
 <polyline points="102,262 102,265 102,268 102,272 102,275 102,278 102,281 102,284 102,287 102,290 102,293" stroke="#000000" fill="none"/>
 <polygon points="104,293 102,298 100,293 104,293" stroke="#000000" fill="#000000"/>
 <polygon points="175,4 29,4 29,83 175,83 175,4" stroke="#006400" fill="#ffffff"/>
 <text x="37" y="20" fill="#000000" font-family="Arial" font-size="12">1 - passive-implicit</text>
 <text x="77" y="39" fill="#000000" font-family="Arial" font-size="12">36,,,,,,2</text>
 <text x="87" y="72" fill="#000000" font-family="Arial" font-size="12">start</text>
 <polyline points="102,84 102,87 102,90 102,93 102,96 102,99 102,102 102,105 102,109 102,112 102,115" stroke="#000000" fill="none"/>
 <polygon points="104,115 102,120 100,115 104,115" stroke="#000000" fill="#000000"/>
 <polygon points="175,380 29,380 29,459 175,459 175,380" stroke="#a52a2a" fill="#ffffff"/>
 <text x="37" y="396" fill="#000000" font-family="Arial" font-size="12">9 - passive-implicit</text>
 <text x="81" y="415" fill="#000000" font-family="Arial" font-size="12">36,,,,,,</text>
 <text x="89" y="448" fill="#000000" font-family="Arial" font-size="12">end</text>
 <polyline points="102,344 102,347 102,350 102,353 102,356 102,359 102,362 102,365 102,368 102,372 102,375" stroke="#000000" fill="none"/>
 <polygon points="104,375 102,380 100,375 104,375" stroke="#000000" fill="#000000"/>
</svg>
