<?xml version="1.0"?>
<svg width="253" height="368" xmlns="http://www.w3.org/2000/svg" version="1.1">
 <polygon points="4,365 4,4 250,4 250,365 4,365" stroke="#ffffff" fill="#ffffff"/>
 <polygon points="232,120 120,120 120,166 232,166 232,120" stroke="#0000ff" fill="#ffffff"/>
 <text x="138" y="136" fill="#000000" font-family="Arial" font-size="12">2 - passive</text>
 <text x="128" y="155" fill="#000000" font-family="Arial" font-size="12">35,3,2,3,33,,3</text>
 <polygon points="227,202 125,202 125,248 227,248 227,202" stroke="#0000ff" fill="#ffffff"/>
 <text x="146" y="218" fill="#000000" font-family="Arial" font-size="12">3 - return</text>
 <text x="133" y="237" fill="#000000" font-family="Arial" font-size="12">30,4,2,4,9,,5</text>
 <polyline points="176,166 176,169 176,172 176,175 176,178 176,182 176,185 176,188 176,191 176,194 176,197" stroke="#000000" fill="none"/>
 <polygon points="178,197 176,202 174,197 178,197" stroke="#000000" fill="#000000"/>
 <polygon points="249,4 103,4 103,83 249,83 249,4" stroke="#006400" fill="#ffffff"/>
 <text x="111" y="20" fill="#000000" font-family="Arial" font-size="12">1 - passive-implicit</text>
 <text x="151" y="39" fill="#000000" font-family="Arial" font-size="12">36,,,,,,2</text>
 <text x="161" y="72" fill="#000000" font-family="Arial" font-size="12">start</text>
 <polyline points="176,84 176,87 176,90 176,93 176,96 176,100 176,103 176,106 176,109 176,112 176,115" stroke="#000000" fill="none"/>
 <polygon points="178,115 176,120 174,115 178,115" stroke="#000000" fill="#000000"/>
 <polygon points="188,284 42,284 42,363 188,363 188,284" stroke="#a52a2a" fill="#ffffff"/>
 <text x="50" y="300" fill="#000000" font-family="Arial" font-size="12">6 - passive-implicit</text>
 <text x="94" y="319" fill="#000000" font-family="Arial" font-size="12">36,,,,,,</text>
 <text x="102" y="352" fill="#000000" font-family="Arial" font-size="12">end</text>
 <polyline points="162,248 160,251 158,254 156,257 154,260 152,263 150,267 148,270 146,273 144,277 142,280" stroke="#000000" fill="none"/>
 <polygon points="143,281 139,284 141,279 143,281" stroke="#000000" fill="#000000"/>
 <polygon points="106,202 4,202 4,248 106,248 106,202" stroke="#ff0000" fill="#ffffff"/>
 <text x="25" y="218" fill="#000000" font-family="Arial" font-size="12">4 - return</text>
 <text x="12" y="237" fill="#000000" font-family="Arial" font-size="12">30,5,2,5,9,,5</text>
 <polyline points="69,248 71,251 72,254 74,257 76,260 78,263 80,267 82,270 84,273 86,277 88,280" stroke="#000000" fill="none"/>
 <polygon points="90,279 91,284 87,281 90,279" stroke="#000000" fill="#000000"/>
</svg>
