<?xml version="1.0"?>
<svg width="387" height="748" xmlns="http://www.w3.org/2000/svg" version="1.1">
 <polygon points="4,745 4,4 384,4 384,745 4,745" stroke="#ffffff" fill="#ffffff"/>
 <polygon points="338,122 226,122 226,168 338,168 338,122" stroke="#0000ff" fill="#ffffff"/>
 <text x="244" y="138" fill="#000000" font-family="Arial" font-size="12">2 - passive</text>
 <text x="234" y="157" fill="#000000" font-family="Arial" font-size="12">35,2,2,2,10,,3</text>
 <ellipse cx="282" cy="239" rx="100" ry="33" stroke="#0000ff" fill="#ffffff"/>
 <text x="242" y="232" fill="#000000" font-family="Arial" font-size="12">3 - while-for</text>
 <text x="219" y="251" fill="#000000" font-family="Arial" font-size="12">10,3,6,3,9,11,4,12</text>
 <polyline points="282,168 282,171 282,174 282,177 282,181 282,184 282,188 282,191 282,194 282,198 282,201" stroke="#000000" fill="none"/>
 <polygon points="284,201 282,206 280,201 284,201" stroke="#000000" fill="#000000"/>
 <polygon points="355,4 209,4 209,83 355,83 355,4" stroke="#006400" fill="#ffffff"/>
 <text x="217" y="20" fill="#000000" font-family="Arial" font-size="12">1 - passive-implicit</text>
 <text x="257" y="39" fill="#000000" font-family="Arial" font-size="12">36,,,,,,2</text>
 <text x="267" y="72" fill="#000000" font-family="Arial" font-size="12">start</text>
 <polyline points="282,84 282,87 282,91 282,94 282,97 282,101 282,104 282,108 282,111 282,114 282,117" stroke="#000000" fill="none"/>
 <polygon points="284,117 282,122 280,117 284,117" stroke="#000000" fill="#000000"/>
 <polygon points="246,328 58,328 58,393 246,393 246,328" stroke="#0000ff" fill="#ffffff"/>
 <text x="114" y="344" fill="#000000" font-family="Arial" font-size="12">4 - passive</text>
 <text x="66" y="363" fill="#000000" font-family="Arial" font-size="12">35,4,4,4,17,,55 - passive</text>
 <text x="109" y="382" fill="#000000" font-family="Arial" font-size="12">35,5,4,5,7,,6</text>
 <polyline points="250,270 244,275 238,281 232,286 226,292 220,297 214,303 208,308 202,314 196,320 190,325" stroke="#00ff00" fill="none"/>
 <text x="225" y="302" fill="#000000" font-family="Arial" font-size="12">yes</text>
 <polygon points="191,326 186,328 189,324 191,326" stroke="#00ff00" fill="#00ff00"/>
 <polygon points="351,664 197,664 197,743 351,743 351,664" stroke="#a52a2a" fill="#ffffff"/>
 <text x="205" y="680" fill="#000000" font-family="Arial" font-size="12">13 - passive-implicit</text>
 <text x="253" y="699" fill="#000000" font-family="Arial" font-size="12">36,,,,,,</text>
 <text x="261" y="732" fill="#000000" font-family="Arial" font-size="12">end</text>
 <polyline points="305,271 309,278 314,286 318,294 322,303 326,312 329,321 332,331 334,341 336,350 336,360 336,360 336,362 336,367 336,376 336,391 336,413 336,444 336,485 336,538 336,604 336,610 335,616 334,622 332,628 330,634 327,639 324,645 321,650 318,655 315,660" stroke="#ff0000" fill="none"/>
 <text x="337" y="480" fill="#000000" font-family="Arial" font-size="12">no</text>
 <polygon points="316,661 312,664 313,659 316,661" stroke="#ff0000" fill="#ff0000"/>
 <polygon points="129,432 4,478 129,524 254,478 129,432" stroke="#0000ff" fill="#ffffff"/>
 <text x="114" y="471" fill="#000000" font-family="Arial" font-size="12">6 - if</text>
 <text x="75" y="490" fill="#000000" font-family="Arial" font-size="12">5,6,8,6,8,10,7,8</text>
 <polyline points="146,394 145,397 144,401 144,404 143,408 142,412 141,415 140,419 140,423 139,426 138,430" stroke="#000000" fill="none"/>
 <polygon points="140,430 137,435 137,430 140,430" stroke="#000000" fill="#000000"/>
 <polygon points="307,580 187,580 187,626 307,626 307,580" stroke="#0000ff" fill="#ffffff"/>
 <text x="209" y="596" fill="#000000" font-family="Arial" font-size="12">7 - passive</text>
 <text x="195" y="615" fill="#000000" font-family="Arial" font-size="12">35,7,6,7,10,,10</text>
 <polyline points="161,512 167,518 173,525 179,531 186,538 192,545 199,551 205,558 211,564 217,570 222,576" stroke="#00ff00" fill="none"/>
 <text x="206" y="554" fill="#000000" font-family="Arial" font-size="12">yes</text>
 <polygon points="224,575 226,580 221,578 224,575" stroke="#00ff00" fill="#00ff00"/>
 <polygon points="168,580 56,580 56,626 168,626 168,580" stroke="#0000ff" fill="#ffffff"/>
 <text x="81" y="596" fill="#000000" font-family="Arial" font-size="12">9 - break</text>
 <text x="64" y="615" fill="#000000" font-family="Arial" font-size="12">32,9,6,9,6,,12</text>
 <polyline points="123,522 122,527 122,533 121,538 120,544 120,549 119,555 118,560 117,565 117,570 116,575" stroke="#ff0000" fill="none"/>
 <text x="121" y="554" fill="#000000" font-family="Arial" font-size="12">no</text>
 <polygon points="117,575 115,580 114,575 117,575" stroke="#ff0000" fill="#ff0000"/>
 <polyline points="252,580 253,575 254,570 256,564 257,559 258,553 259,547 260,541 261,536 262,530 263,524 266,497 269,470 272,442 274,415 276,388 277,362 278,338 280,315 280,295 281,277" stroke="#000000" fill="none"/>
 <polygon points="279,277 281,272 283,277 279,277" stroke="#000000" fill="#000000"/>
 <polyline points="148,626 153,629 159,633 164,636 170,640 176,643 182,647 188,651 194,654 200,658 206,662" stroke="#000000" fill="none"/>
 <polygon points="207,660 211,664 206,663 207,660" stroke="#000000" fill="#000000"/>
</svg>
