<?xml version="1.0"?>
<svg width="257" height="522" xmlns="http://www.w3.org/2000/svg" version="1.1">
 <polygon points="4,519 4,4 254,4 254,519 4,519" stroke="#ffffff" fill="#ffffff"/>
 <polygon points="185,122 73,122 73,168 185,168 185,122" stroke="#0000ff" fill="#ffffff"/>
 <text x="91" y="138" fill="#000000" font-family="Arial" font-size="12">2 - passive</text>
 <text x="81" y="157" fill="#000000" font-family="Arial" font-size="12">35,6,2,6,20,,3</text>
 <polygon points="129,206 5,252 129,298 253,252 129,206" stroke="#0000ff" fill="#ffffff"/>
 <text x="114" y="245" fill="#000000" font-family="Arial" font-size="12">3 - if</text>
 <text x="75" y="264" fill="#000000" font-family="Arial" font-size="12">5,8,6,8,11,5,4,5</text>
 <polyline points="129,168 129,171 129,174 129,177 129,180 129,184 129,187 129,190 129,193 129,197 129,200" stroke="#000000" fill="none"/>
 <polygon points="131,201 129,206 127,201 131,201" stroke="#000000" fill="#000000"/>
 <polygon points="202,4 56,4 56,83 202,83 202,4" stroke="#006400" fill="#ffffff"/>
 <text x="64" y="20" fill="#000000" font-family="Arial" font-size="12">1 - passive-implicit</text>
 <text x="104" y="39" fill="#000000" font-family="Arial" font-size="12">36,,,,,,2</text>
 <text x="114" y="72" fill="#000000" font-family="Arial" font-size="12">start</text>
 <polyline points="129,84 129,87 129,91 129,94 129,97 129,101 129,104 129,108 129,111 129,114 129,117" stroke="#000000" fill="none"/>
 <polygon points="131,117 129,122 127,117 131,117" stroke="#000000" fill="#000000"/>
 <polygon points="116,354 4,354 4,400 116,400 116,354" stroke="#0000ff" fill="#ffffff"/>
 <text x="30" y="370" fill="#000000" font-family="Arial" font-size="12">4 - return</text>
 <text x="12" y="389" fill="#000000" font-family="Arial" font-size="12">30,9,4,9,10,,6</text>
 <polyline points="108,291 105,297 101,302 98,308 95,314 91,320 88,326 84,332 81,338 78,344 75,349" stroke="#00ff00" fill="none"/>
 <text x="93" y="328" fill="#000000" font-family="Arial" font-size="12">yes</text>
 <polygon points="77,350 73,354 73,348 77,350" stroke="#00ff00" fill="#00ff00"/>
 <polygon points="196,438 50,438 50,517 196,517 196,438" stroke="#a52a2a" fill="#ffffff"/>
 <text x="58" y="454" fill="#000000" font-family="Arial" font-size="12">7 - passive-implicit</text>
 <text x="102" y="473" fill="#000000" font-family="Arial" font-size="12">36,,,,,,</text>
 <text x="110" y="506" fill="#000000" font-family="Arial" font-size="12">end</text>
 <polyline points="128,298 128,310 127,323 127,337 126,351 126,366 126,380 125,394 125,408 124,421 124,433" stroke="#ff0000" fill="none"/>
 <text x="128" y="379" fill="#000000" font-family="Arial" font-size="12">no</text>
 <polygon points="126,433 124,438 122,433 126,433" stroke="#ff0000" fill="#ff0000"/>
 <polyline points="74,400 76,403 78,406 80,409 82,413 85,416 87,420 89,423 91,427 94,430 96,434" stroke="#000000" fill="none"/>
 <polygon points="97,433 98,438 94,435 97,433" stroke="#000000" fill="#000000"/>
</svg>
