<?xml version="1.0"?>
<svg width="503" height="882" xmlns="http://www.w3.org/2000/svg" version="1.1">
 <polygon points="4,879 4,4 500,4 500,879 4,879" stroke="#ffffff" fill="#ffffff"/>
 <polygon points="408,122 296,122 296,168 408,168 408,122" stroke="#0000ff" fill="#ffffff"/>
 <text x="314" y="138" fill="#000000" font-family="Arial" font-size="12">2 - passive</text>
 <text x="304" y="157" fill="#000000" font-family="Arial" font-size="12">35,2,2,2,10,,3</text>
 <polygon points="403,206 301,206 301,252 403,252 403,206" stroke="#0000ff" fill="#ffffff"/>
 <text x="314" y="222" fill="#000000" font-family="Arial" font-size="12">3 - passive</text>
 <text x="309" y="241" fill="#000000" font-family="Arial" font-size="12">35,3,0,3,0,,4</text>
 <polyline points="352,168 352,171 352,174 352,177 352,181 352,184 352,188 352,191 352,194 352,198 352,201" stroke="#000000" fill="none"/>
 <polygon points="354,201 352,206 350,201 354,201" stroke="#000000" fill="#000000"/>
 <polygon points="425,4 279,4 279,83 425,83 425,4" stroke="#006400" fill="#ffffff"/>
 <text x="287" y="20" fill="#000000" font-family="Arial" font-size="12">1 - passive-implicit</text>
 <text x="327" y="39" fill="#000000" font-family="Arial" font-size="12">36,,,,,,2</text>
 <text x="337" y="72" fill="#000000" font-family="Arial" font-size="12">start</text>
 <polyline points="352,84 352,87 352,91 352,94 352,97 352,101 352,104 352,108 352,111 352,114 352,117" stroke="#000000" fill="none"/>
 <polygon points="354,117 352,122 350,117 354,117" stroke="#000000" fill="#000000"/>
 <polygon points="231,290 97,336 231,382 365,336 231,290" stroke="#0000ff" fill="#ffffff"/>
 <text x="216" y="329" fill="#000000" font-family="Arial" font-size="12">4 - if</text>
 <text x="172" y="348" fill="#000000" font-family="Arial" font-size="12">5,4,6,4,6,14,5,12</text>
 <polyline points="327,252 322,256 317,261 311,265 306,270 300,275 295,280 289,284 283,289 277,294 272,299" stroke="#000000" fill="none"/>
 <polygon points="273,301 268,303 271,298 273,301" stroke="#000000" fill="#000000"/>
 <polygon points="287,438 175,438 175,484 287,484 287,438" stroke="#0000ff" fill="#ffffff"/>
 <text x="193" y="454" fill="#000000" font-family="Arial" font-size="12">5 - passive</text>
 <text x="183" y="473" fill="#000000" font-family="Arial" font-size="12">35,5,4,5,13,,6</text>
 <polyline points="231,382 231,387 231,392 231,398 231,403 231,408 231,413 231,418 231,423 231,428 231,432" stroke="#00ff00" fill="none"/>
 <text x="231" y="412" fill="#000000" font-family="Arial" font-size="12">yes</text>
 <polygon points="233,433 231,438 229,433 233,433" stroke="#00ff00" fill="#00ff00"/>
 <polygon points="156,502 26,502 26,548 156,548 156,502" stroke="#0000ff" fill="#ffffff"/>
 <text x="49" y="518" fill="#000000" font-family="Arial" font-size="12">13 - passive</text>
 <text x="34" y="537" fill="#000000" font-family="Arial" font-size="12">35,12,4,12,4,,14</text>
 <polyline points="204,373 195,385 186,397 177,410 167,423 156,437 146,450 137,463 127,476 119,487 111,498" stroke="#ff0000" fill="none"/>
 <text x="183" y="412" fill="#000000" font-family="Arial" font-size="12">no</text>
 <polygon points="112,499 108,502 109,497 112,499" stroke="#ff0000" fill="#ff0000"/>
 <ellipse cx="231" cy="599" rx="101" ry="33" stroke="#0000ff" fill="#ffffff"/>
 <text x="191" y="592" fill="#000000" font-family="Arial" font-size="12">6 - while-for</text>
 <text x="168" y="611" fill="#000000" font-family="Arial" font-size="12">10,6,8,6,13,9,7,10</text>
 <polyline points="231,484 231,491 231,498 231,505 231,513 231,521 231,530 231,538 231,546 231,554 231,561" stroke="#000000" fill="none"/>
 <polygon points="233,561 231,566 229,561 233,561" stroke="#000000" fill="#000000"/>
 <polygon points="134,650 4,650 4,696 134,696 134,650" stroke="#0000ff" fill="#ffffff"/>
 <text x="34" y="666" fill="#000000" font-family="Arial" font-size="12">15 - return</text>
 <text x="12" y="685" fill="#000000" font-family="Arial" font-size="12">30,13,2,13,9,,16</text>
 <polyline points="88,548 87,556 85,565 84,575 82,585 81,596 79,606 77,617 76,627 74,636 73,645" stroke="#000000" fill="none"/>
 <polygon points="75,645 72,650 71,644 75,645" stroke="#000000" fill="#000000"/>
 <polygon points="498,714 388,714 388,760 498,760 498,714" stroke="#0000ff" fill="#ffffff"/>
 <text x="417" y="730" fill="#000000" font-family="Arial" font-size="12">7 - goto</text>
 <text x="396" y="749" fill="#000000" font-family="Arial" font-size="12">28,7,6,7,11,,3</text>
 <polyline points="275,628 287,636 300,644 313,653 326,661 340,670 354,679 367,688 380,696 393,704 404,711" stroke="#00ff00" fill="none"/>
 <text x="381" y="675" fill="#000000" font-family="Arial" font-size="12">yes</text>
 <polygon points="405,710 409,714 403,713 405,710" stroke="#00ff00" fill="#00ff00"/>
 <polygon points="230,714 92,714 92,760 230,760 230,714" stroke="#0000ff" fill="#ffffff"/>
 <text x="127" y="730" fill="#000000" font-family="Arial" font-size="12">11 - return</text>
 <text x="100" y="749" fill="#000000" font-family="Arial" font-size="12">30,10,4,10,11,,16</text>
 <polyline points="215,631 211,638 207,646 203,654 199,662 195,671 190,679 186,687 182,695 178,702 175,709" stroke="#ff0000" fill="none"/>
 <text x="206" y="675" fill="#000000" font-family="Arial" font-size="12">no</text>
 <polygon points="176,710 172,714 173,709 176,710" stroke="#ff0000" fill="#ff0000"/>
 <polyline points="441,714 441,705 440,696 440,685 439,674 439,662 438,650 438,637 437,625 437,612 437,600 437,528 437,471 437,426 437,392 437,368 437,352 437,342 437,337 437,335 437,335 436,325 434,316 431,307 427,298 422,290 416,282 410,274 403,267 396,261 389,255" stroke="#000000" fill="none"/>
 <polygon points="388,257 385,252 390,254 388,257" stroke="#000000" fill="#000000"/>
 <polygon points="238,798 84,798 84,877 238,877 238,798" stroke="#a52a2a" fill="#ffffff"/>
 <text x="92" y="814" fill="#000000" font-family="Arial" font-size="12">17 - passive-implicit</text>
 <text x="140" y="833" fill="#000000" font-family="Arial" font-size="12">36,,,,,,</text>
 <text x="148" y="866" fill="#000000" font-family="Arial" font-size="12">end</text>
 <polyline points="161,760 161,763 161,766 161,769 161,773 161,776 161,780 161,783 161,786 161,790 161,793" stroke="#000000" fill="none"/>
 <polygon points="163,793 161,798 159,793 163,793" stroke="#000000" fill="#000000"/>
 <polygon points="369,714 249,714 249,760 369,760 369,714" stroke="#ff0000" fill="#ffffff"/>
 <text x="279" y="730" fill="#000000" font-family="Arial" font-size="12">8 - return</text>
 <text x="257" y="749" fill="#000000" font-family="Arial" font-size="12">30,8,6,8,13,,16</text>
 <polyline points="276,760 271,763 266,767 261,770 256,774 250,777 245,781 239,784 234,788 228,791 223,795" stroke="#000000" fill="none"/>
 <polygon points="224,797 219,798 222,794 224,797" stroke="#000000" fill="#000000"/>
 <polyline points="69,696 69,702 70,708 71,714 71,721 73,727 74,734 76,741 78,747 80,754 83,760 85,764 87,767 89,771 92,774 95,778 97,781 100,785 103,788 106,792 109,795" stroke="#000000" fill="none"/>
 <polygon points="110,793 112,798 107,796 110,793" stroke="#000000" fill="#000000"/>
</svg>
