<?xml version="1.0"?>
<svg width="239" height="412" xmlns="http://www.w3.org/2000/svg" version="1.1">
 <polygon points="4,409 4,4 236,4 236,409 4,409" stroke="#ffffff" fill="#ffffff"/>
 <ellipse cx="101" cy="155" rx="94" ry="33" stroke="#0000ff" fill="#ffffff"/>
 <text x="61" y="148" fill="#000000" font-family="Arial" font-size="12">2 - while-for</text>
 <text x="43" y="167" fill="#000000" font-family="Arial" font-size="12">10,2,6,2,11,4,3,5</text>
 <polygon points="114,244 4,244 4,290 114,290 114,244" stroke="#0000ff" fill="#ffffff"/>
 <text x="29" y="260" fill="#000000" font-family="Arial" font-size="12">3 - return</text>
 <text x="12" y="279" fill="#000000" font-family="Arial" font-size="12">30,3,4,3,11,,7</text>
 <polyline points="89,188 87,193 85,198 83,203 81,209 79,214 77,219 75,224 73,229 71,234 69,239" stroke="#00ff00" fill="none"/>
 <text x="82" y="218" fill="#000000" font-family="Arial" font-size="12">yes</text>
 <polygon points="71,240 67,244 68,239 71,240" stroke="#00ff00" fill="#00ff00"/>
 <polygon points="235,244 133,244 133,290 235,290 235,244" stroke="#0000ff" fill="#ffffff"/>
 <text x="154" y="260" fill="#000000" font-family="Arial" font-size="12">6 - return</text>
 <text x="141" y="279" fill="#000000" font-family="Arial" font-size="12">30,5,2,5,9,,7</text>
 <polyline points="124,187 128,192 132,197 136,202 140,208 144,214 148,219 153,225 156,230 160,235 164,240" stroke="#ff0000" fill="none"/>
 <text x="153" y="218" fill="#000000" font-family="Arial" font-size="12">no</text>
 <polygon points="166,239 167,244 163,241 166,239" stroke="#ff0000" fill="#ff0000"/>
 <polygon points="174,4 28,4 28,83 174,83 174,4" stroke="#006400" fill="#ffffff"/>
 <text x="36" y="20" fill="#000000" font-family="Arial" font-size="12">1 - passive-implicit</text>
 <text x="76" y="39" fill="#000000" font-family="Arial" font-size="12">36,,,,,,2</text>
 <text x="86" y="72" fill="#000000" font-family="Arial" font-size="12">start</text>
 <polyline points="101,84 101,87 101,91 101,94 101,97 101,101 101,104 101,107 101,110 101,114 101,117" stroke="#000000" fill="none"/>
 <polygon points="103,117 101,122 99,117 103,117" stroke="#000000" fill="#000000"/>
 <polygon points="207,328 61,328 61,407 207,407 207,328" stroke="#a52a2a" fill="#ffffff"/>
 <text x="69" y="344" fill="#000000" font-family="Arial" font-size="12">8 - passive-implicit</text>
 <text x="113" y="363" fill="#000000" font-family="Arial" font-size="12">36,,,,,,</text>
 <text x="121" y="396" fill="#000000" font-family="Arial" font-size="12">end</text>
 <polyline points="76,290 78,293 81,296 83,299 86,303 89,306 91,310 94,313 96,317 99,320 101,324" stroke="#000000" fill="none"/>
 <polygon points="103,323 105,328 100,325 103,323" stroke="#000000" fill="#000000"/>
 <polyline points="173,290 171,293 170,296 168,299 167,303 165,306 163,310 161,313 160,317 158,320 156,324" stroke="#000000" fill="none"/>
 <polygon points="157,325 154,328 154,323 157,325" stroke="#000000" fill="#000000"/>
</svg>
