<?xml version="1.0"?>
<svg width="272" height="830" xmlns="http://www.w3.org/2000/svg" version="1.1">
 <polygon points="4,827 4,4 269,4 269,827 4,827" stroke="#ffffff" fill="#ffffff"/>
 <polygon points="199,122 87,122 87,168 199,168 199,122" stroke="#0000ff" fill="#ffffff"/>
 <text x="105" y="138" fill="#000000" font-family="Arial" font-size="12">2 - passive</text>
 <text x="95" y="157" fill="#000000" font-family="Arial" font-size="12">35,4,2,4,10,,3</text>
 <polygon points="143,206 18,252 143,298 268,252 143,206" stroke="#0000ff" fill="#ffffff"/>
 <text x="128" y="245" fill="#000000" font-family="Arial" font-size="12">4 - if</text>
 <text x="89" y="264" fill="#000000" font-family="Arial" font-size="12">5,6,8,6,12,6,5,6</text>
 <polyline points="143,168 143,171 143,174 143,177 143,180 143,184 143,187 143,190 143,193 143,197 143,200" stroke="#000000" fill="none"/>
 <polygon points="145,201 143,206 141,201 145,201" stroke="#000000" fill="#000000"/>
 <polygon points="216,4 70,4 70,83 216,83 216,4" stroke="#006400" fill="#ffffff"/>
 <text x="78" y="20" fill="#000000" font-family="Arial" font-size="12">1 - passive-implicit</text>
 <text x="118" y="39" fill="#000000" font-family="Arial" font-size="12">36,,,,,,2</text>
 <text x="128" y="72" fill="#000000" font-family="Arial" font-size="12">start</text>
 <polyline points="143,84 143,87 143,91 143,94 143,97 143,101 143,104 143,108 143,111 143,114 143,117" stroke="#000000" fill="none"/>
 <polygon points="145,117 143,122 141,117 145,117" stroke="#000000" fill="#000000"/>
 <polygon points="106,354 4,354 4,400 106,400 106,354" stroke="#0000ff" fill="#ffffff"/>
 <text x="17" y="370" fill="#000000" font-family="Arial" font-size="12">5 - passive</text>
 <text x="12" y="389" fill="#000000" font-family="Arial" font-size="12">35,7,6,7,7,,6</text>
 <polyline points="117,289 113,295 108,301 104,307 100,313 95,320 91,326 86,332 82,338 78,344 74,349" stroke="#00ff00" fill="none"/>
 <text x="97" y="328" fill="#000000" font-family="Arial" font-size="12">yes</text>
 <polygon points="75,351 71,354 72,349 75,351" stroke="#00ff00" fill="#00ff00"/>
 <polygon points="159,456 57,456 57,502 159,502 159,456" stroke="#0000ff" fill="#ffffff"/>
 <text x="70" y="472" fill="#000000" font-family="Arial" font-size="12">7 - passive</text>
 <text x="65" y="491" fill="#000000" font-family="Arial" font-size="12">35,8,4,8,8,,8</text>
 <polyline points="136,296 134,310 131,326 129,342 126,359 124,376 121,393 119,409 116,424 114,438 112,451" stroke="#ff0000" fill="none"/>
 <text x="129" y="379" fill="#000000" font-family="Arial" font-size="12">no</text>
 <polygon points="114,451 111,456 110,451 114,451" stroke="#ff0000" fill="#ff0000"/>
 <polyline points="67,400 69,405 72,410 75,415 77,420 80,425 83,430 86,436 89,441 91,446 94,451" stroke="#000000" fill="none"/>
 <polygon points="95,451 96,456 92,452 95,451" stroke="#000000" fill="#000000"/>
 <ellipse cx="162" cy="573" rx="89" ry="33" stroke="#0000ff" fill="#ffffff"/>
 <text x="107" y="566" fill="#000000" font-family="Arial" font-size="12">8 - end-do-while</text>
 <text x="108" y="585" fill="#000000" font-family="Arial" font-size="12">1,9,10,9,14,,3,9</text>
 <polyline points="121,502 123,505 125,509 127,512 129,516 131,519 133,522 135,526 137,529 139,533 141,536" stroke="#000000" fill="none"/>
 <polygon points="143,536 144,541 140,537 143,536" stroke="#000000" fill="#000000"/>
 <polyline points="165,540 165,536 166,533 166,529 166,525 167,521 167,518 167,514 167,510 168,506 168,502 168,480 168,459 167,437 166,415 164,393 162,372 160,352 157,333 154,316 152,300" stroke="#00ff00" fill="none"/>
 <text x="168" y="430" fill="#000000" font-family="Arial" font-size="12">yes</text>
 <polygon points="150,300 151,295 153,300 150,300" stroke="#00ff00" fill="#00ff00"/>
 <polygon points="225,662 99,662 99,708 225,708 225,662" stroke="#0000ff" fill="#ffffff"/>
 <text x="127" y="678" fill="#000000" font-family="Arial" font-size="12">10 - return</text>
 <text x="107" y="697" fill="#000000" font-family="Arial" font-size="12">30,11,1,11,8,,11</text>
 <polyline points="162,606 162,611 162,616 162,621 162,626 162,632 162,637 162,642 162,647 162,652 162,657" stroke="#ff0000" fill="none"/>
 <text x="163" y="636" fill="#000000" font-family="Arial" font-size="12">no</text>
 <polygon points="164,657 162,662 160,657 164,657" stroke="#ff0000" fill="#ff0000"/>
 <polygon points="239,746 85,746 85,825 239,825 239,746" stroke="#a52a2a" fill="#ffffff"/>
 <text x="93" y="762" fill="#000000" font-family="Arial" font-size="12">11 - passive-implicit</text>
 <text x="141" y="781" fill="#000000" font-family="Arial" font-size="12">36,,,,,,</text>
 <text x="149" y="814" fill="#000000" font-family="Arial" font-size="12">end</text>
 <polyline points="162,708 162,711 162,714 162,717 162,721 162,724 162,728 162,731 162,734 162,738 162,741" stroke="#000000" fill="none"/>
 <polygon points="164,741 162,746 160,741 164,741" stroke="#000000" fill="#000000"/>
</svg>
