<?xml version="1.0"?>
<svg width="290" height="922" xmlns="http://www.w3.org/2000/svg" version="1.1">
 <polygon points="4,919 4,4 287,4 287,919 4,919" stroke="#ffffff" fill="#ffffff"/>
 <polygon points="171,122 69,122 69,168 171,168 171,122" stroke="#0000ff" fill="#ffffff"/>
 <text x="82" y="138" fill="#000000" font-family="Arial" font-size="12">2 - passive</text>
 <text x="77" y="157" fill="#000000" font-family="Arial" font-size="12">35,3,4,3,8,,3</text>
 <polygon points="120,206 4,252 120,298 236,252 120,206" stroke="#0000ff" fill="#ffffff"/>
 <text x="105" y="245" fill="#000000" font-family="Arial" font-size="12">3 - if</text>
 <text x="70" y="264" fill="#000000" font-family="Arial" font-size="12">5,4,8,4,8,5,4,5</text>
 <polyline points="120,168 120,171 120,174 120,177 120,180 120,184 120,187 120,190 120,193 120,197 120,200" stroke="#000000" fill="none"/>
 <polygon points="122,201 120,206 118,201 122,201" stroke="#000000" fill="#000000"/>
 <polygon points="193,4 47,4 47,83 193,83 193,4" stroke="#006400" fill="#ffffff"/>
 <text x="55" y="20" fill="#000000" font-family="Arial" font-size="12">1 - passive-implicit</text>
 <text x="95" y="39" fill="#000000" font-family="Arial" font-size="12">36,,,,,,2</text>
 <text x="105" y="72" fill="#000000" font-family="Arial" font-size="12">start</text>
 <polyline points="120,84 120,87 120,91 120,94 120,97 120,101 120,104 120,108 120,111 120,114 120,117" stroke="#000000" fill="none"/>
 <polygon points="122,117 120,122 118,117 122,117" stroke="#000000" fill="#000000"/>
 <polygon points="133,354 21,354 21,400 133,400 133,354" stroke="#0000ff" fill="#ffffff"/>
 <text x="51" y="370" fill="#000000" font-family="Arial" font-size="12">4 - goto</text>
 <text x="29" y="389" fill="#000000" font-family="Arial" font-size="12">28,5,8,5,13,,7</text>
 <polyline points="106,293 104,298 102,304 100,310 98,316 96,321 94,327 92,333 90,338 89,344 87,349" stroke="#00ff00" fill="none"/>
 <text x="98" y="328" fill="#000000" font-family="Arial" font-size="12">yes</text>
 <polygon points="88,350 85,354 85,348 88,350" stroke="#00ff00" fill="#00ff00"/>
 <polygon points="254,354 152,354 152,400 254,400 254,354" stroke="#0000ff" fill="#ffffff"/>
 <text x="165" y="370" fill="#000000" font-family="Arial" font-size="12">6 - passive</text>
 <text x="160" y="389" fill="#000000" font-family="Arial" font-size="12">35,6,4,6,8,,7</text>
 <polyline points="144,289 148,295 152,301 156,307 161,313 165,319 169,326 173,332 177,338 181,343 185,349" stroke="#ff0000" fill="none"/>
 <text x="174" y="328" fill="#000000" font-family="Arial" font-size="12">no</text>
 <polygon points="187,349 188,354 184,350 187,349" stroke="#ff0000" fill="#ff0000"/>
 <polygon points="203,438 101,438 101,484 203,484 203,438" stroke="#0000ff" fill="#ffffff"/>
 <text x="114" y="454" fill="#000000" font-family="Arial" font-size="12">7 - passive</text>
 <text x="109" y="473" fill="#000000" font-family="Arial" font-size="12">35,7,0,7,0,,8</text>
 <polyline points="97,400 100,403 103,407 106,410 109,414 113,417 116,420 119,424 122,427 125,431 128,434" stroke="#000000" fill="none"/>
 <polygon points="130,433 132,438 127,435 130,433" stroke="#000000" fill="#000000"/>
 <polyline points="189,400 187,403 185,407 183,410 181,413 179,417 177,420 175,424 173,427 171,430 169,433" stroke="#000000" fill="none"/>
 <polygon points="170,435 166,438 167,433 170,435" stroke="#000000" fill="#000000"/>
 <polygon points="152,522 18,568 152,614 286,568 152,522" stroke="#0000ff" fill="#ffffff"/>
 <text x="137" y="561" fill="#000000" font-family="Arial" font-size="12">8 - if</text>
 <text x="93" y="580" fill="#000000" font-family="Arial" font-size="12">5,8,8,8,8,10,9,10</text>
 <polyline points="152,484 152,487 152,490 152,493 152,496 152,500 152,503 152,506 152,509 152,513 152,516" stroke="#000000" fill="none"/>
 <polygon points="154,517 152,522 150,517 154,517" stroke="#000000" fill="#000000"/>
 <polygon points="139,670 27,670 27,716 139,716 139,670" stroke="#0000ff" fill="#ffffff"/>
 <text x="45" y="686" fill="#000000" font-family="Arial" font-size="12">9 - passive</text>
 <text x="35" y="705" fill="#000000" font-family="Arial" font-size="12">35,9,8,9,8,,10</text>
 <polyline points="131,607 128,613 124,619 121,625 118,631 114,637 111,643 107,649 104,654 101,660 98,665" stroke="#00ff00" fill="none"/>
 <text x="116" y="644" fill="#000000" font-family="Arial" font-size="12">yes</text>
 <polygon points="99,666 95,670 96,665 99,666" stroke="#00ff00" fill="#00ff00"/>
 <polygon points="211,754 81,754 81,800 211,800 211,754" stroke="#0000ff" fill="#ffffff"/>
 <text x="104" y="770" fill="#000000" font-family="Arial" font-size="12">11 - passive</text>
 <text x="89" y="789" fill="#000000" font-family="Arial" font-size="12">35,10,4,10,8,,12</text>
 <polyline points="151,614 151,623 150,632 150,642 150,653 150,663 149,674 149,684 149,695 148,706 148,716 148,719 148,723 148,726 148,729 148,733 147,736 147,739 147,742 147,746 147,749" stroke="#ff0000" fill="none"/>
 <text x="151" y="695" fill="#000000" font-family="Arial" font-size="12">no</text>
 <polygon points="149,749 147,754 145,749 149,749" stroke="#ff0000" fill="#ff0000"/>
 <polyline points="100,716 102,719 105,723 108,726 110,730 113,733 116,736 118,740 121,743 124,747 126,750" stroke="#000000" fill="none"/>
 <polygon points="127,749 129,754 125,751 127,749" stroke="#000000" fill="#000000"/>
 <polygon points="223,838 69,838 69,917 223,917 223,838" stroke="#a52a2a" fill="#ffffff"/>
 <text x="77" y="854" fill="#000000" font-family="Arial" font-size="12">12 - passive-implicit</text>
 <text x="125" y="873" fill="#000000" font-family="Arial" font-size="12">36,,,,,,</text>
 <text x="133" y="906" fill="#000000" font-family="Arial" font-size="12">end</text>
 <polyline points="146,800 146,803 146,806 146,809 146,813 146,816 146,820 146,823 146,826 146,830 146,833" stroke="#000000" fill="none"/>
 <polygon points="148,833 146,838 144,833 148,833" stroke="#000000" fill="#000000"/>
</svg>
