<?xml version="1.0"?>
<svg width="740" height="1252" xmlns="http://www.w3.org/2000/svg" version="1.1">
 <polygon points="4,1249 4,4 737,4 737,1249 4,1249" stroke="#ffffff" fill="#ffffff"/>
 <polygon points="401,120 289,120 289,166 401,166 401,120" stroke="#0000ff" fill="#ffffff"/>
 <text x="307" y="136" fill="#000000" font-family="Arial" font-size="12">2 - passive</text>
 <text x="297" y="155" fill="#000000" font-family="Arial" font-size="12">35,5,2,5,10,,3</text>
 <polygon points="555,252 555,222 432,202 258,202 135,222 135,252 258,272 432,272 555,252" stroke="#0000ff" fill="#ffffff"/>
 <text x="313" y="230" fill="#000000" font-family="Arial" font-size="12">3 - switch</text>
 <text x="216" y="249" fill="#000000" font-family="Arial" font-size="12">21,6,10,6,10,24,4,7,9,11,14,16,18,21</text>
 <polyline points="345,166 345,169 345,172 345,175 345,178 345,181 345,184 345,187 345,190 345,194 345,197" stroke="#000000" fill="none"/>
 <polygon points="347,197 345,202 343,197 347,197" stroke="#000000" fill="#000000"/>
 <polygon points="418,4 272,4 272,83 418,83 418,4" stroke="#006400" fill="#ffffff"/>
 <text x="280" y="20" fill="#000000" font-family="Arial" font-size="12">1 - passive-implicit</text>
 <text x="320" y="39" fill="#000000" font-family="Arial" font-size="12">36,,,,,,2</text>
 <text x="330" y="72" fill="#000000" font-family="Arial" font-size="12">start</text>
 <polyline points="345,84 345,87 345,90 345,93 345,96 345,100 345,103 345,106 345,109 345,112 345,115" stroke="#000000" fill="none"/>
 <polygon points="347,115 345,120 343,115 347,115" stroke="#000000" fill="#000000"/>
 <polygon points="175,308 55,308 55,354 175,354 175,308" stroke="#0000ff" fill="#ffffff"/>
 <text x="63" y="324" fill="#000000" font-family="Arial" font-size="12">4 - switch-case</text>
 <text x="67" y="343" fill="#000000" font-family="Arial" font-size="12">22,7,4,7,10,,5</text>
 <polyline points="259,272 251,276 242,279 233,283 225,286 216,290 208,293 199,297 191,300 183,303 175,306" stroke="#000000" fill="none"/>
 <polygon points="175,308 170,308 174,305 175,308" stroke="#000000" fill="#000000"/>
 <polygon points="230,492 100,492 100,538 230,538 230,492" stroke="#0000ff" fill="#ffffff"/>
 <text x="113" y="508" fill="#000000" font-family="Arial" font-size="12">7 - switch-case</text>
 <text x="108" y="527" fill="#000000" font-family="Arial" font-size="12">22,10,4,10,10,,8</text>
 <polyline points="281,272 277,275 273,278 269,282 265,285 261,289 257,292 254,296 250,300 247,304 244,308 234,324 227,339 222,353 220,366 218,379 217,393 215,407 212,422 208,438 201,456 199,459 198,463 196,466 195,469 193,472 191,476 189,479 187,482 185,485 183,488" stroke="#000000" fill="none"/>
 <polygon points="185,489 181,492 182,487 185,489" stroke="#000000" fill="#000000"/>
 <polygon points="267,656 129,656 129,702 267,702 267,656" stroke="#0000ff" fill="#ffffff"/>
 <text x="146" y="672" fill="#000000" font-family="Arial" font-size="12">9 - switch-case</text>
 <text x="137" y="691" fill="#000000" font-family="Arial" font-size="12">22,12,4,12,10,,10</text>
 <polyline points="308,272 305,275 302,279 299,282 297,286 294,289 291,293 289,297 286,300 284,304 282,308 276,321 271,333 267,343 264,353 261,363 260,373 259,383 258,395 258,407 258,422 258,422 258,423 258,425 258,428 258,434 258,442 258,454 258,470 258,491 258,516 258,529 257,541 257,551 255,560 254,569 252,578 249,587 245,597 241,608 236,620 234,623 233,627 231,630 230,633 228,636 226,640 224,643 222,646 220,649 218,652" stroke="#000000" fill="none"/>
 <polygon points="220,653 215,656 217,651 220,653" stroke="#000000" fill="#000000"/>
 <polygon points="365,840 227,840 227,886 365,886 365,840" stroke="#0000ff" fill="#ffffff"/>
 <text x="240" y="856" fill="#000000" font-family="Arial" font-size="12">11 - switch-case</text>
 <text x="235" y="875" fill="#000000" font-family="Arial" font-size="12">22,14,4,14,10,,12</text>
 <polyline points="328,272 327,275 325,279 324,282 322,286 321,290 319,293 318,297 317,301 316,304 315,308 311,322 308,334 305,345 302,355 300,364 299,374 297,384 297,395 296,408 296,422 296,422 296,424 296,429 296,439 296,454 296,478 296,510 296,554 296,610 296,680 296,697 296,714 296,731 296,748 296,765 296,781 296,796 296,810 296,823 296,835" stroke="#000000" fill="none"/>
 <polygon points="298,835 296,840 294,835 298,835" stroke="#000000" fill="#000000"/>
 <polygon points="463,308 325,308 325,354 463,354 463,308" stroke="#0000ff" fill="#ffffff"/>
 <text x="338" y="324" fill="#000000" font-family="Arial" font-size="12">14 - switch-case</text>
 <text x="333" y="343" fill="#000000" font-family="Arial" font-size="12">22,16,4,16,10,,15</text>
 <polyline points="363,272 365,275 367,279 368,282 370,285 372,288 374,291 375,294 377,297 378,300 380,303" stroke="#000000" fill="none"/>
 <polygon points="381,303 382,308 378,304 381,303" stroke="#000000" fill="#000000"/>
 <polygon points="497,492 359,492 359,538 497,538 497,492" stroke="#0000ff" fill="#ffffff"/>
 <text x="372" y="508" fill="#000000" font-family="Arial" font-size="12">16 - switch-case</text>
 <text x="367" y="527" fill="#000000" font-family="Arial" font-size="12">22,18,4,18,10,,17</text>
 <polyline points="436,272 440,275 444,278 448,281 452,284 456,288 459,291 463,295 466,299 469,304 472,308 474,314 477,324 479,337 480,352 481,369 481,387 480,405 478,423 475,440 471,456 470,460 468,463 467,467 465,470 463,473 461,476 459,479 457,482 455,485 453,488" stroke="#000000" fill="none"/>
 <polygon points="454,489 449,492 451,487 454,489" stroke="#000000" fill="#000000"/>
 <polygon points="530,656 392,656 392,702 530,702 530,656" stroke="#0000ff" fill="#ffffff"/>
 <text x="405" y="672" fill="#000000" font-family="Arial" font-size="12">18 - switch-case</text>
 <text x="400" y="691" fill="#000000" font-family="Arial" font-size="12">22,19,4,19,10,,19</text>
 <polyline points="441,271 446,274 452,277 457,281 462,284 467,288 472,291 477,295 481,299 486,304 490,308 500,319 508,330 515,340 520,350 524,360 526,370 528,381 529,393 530,407 530,422 530,422 530,423 530,425 530,428 530,434 530,442 530,454 530,470 530,491 530,516 530,529 530,541 530,551 529,561 528,570 526,579 524,588 521,598 516,608 511,620 509,624 507,627 505,631 503,634 501,637 498,640 496,643 494,646 491,649 489,652" stroke="#000000" fill="none"/>
 <polygon points="490,653 485,656 487,651 490,653" stroke="#000000" fill="#000000"/>
 <polygon points="699,400 559,400 559,446 699,446 699,400" stroke="#0000ff" fill="#ffffff"/>
 <text x="567" y="416" fill="#000000" font-family="Arial" font-size="12">21 - switch-default</text>
 <text x="568" y="435" fill="#000000" font-family="Arial" font-size="12">23,20,4,20,11,,22</text>
 <polyline points="464,267 472,270 481,273 489,277 497,281 506,285 514,289 521,294 529,298 537,303 544,308 553,315 562,323 570,332 578,341 586,350 592,360 599,369 605,378 610,387 615,395" stroke="#000000" fill="none"/>
 <polygon points="617,394 618,400 614,396 617,394" stroke="#000000" fill="#000000"/>
 <polygon points="192,390 4,390 4,455 192,455 192,390" stroke="#0000ff" fill="#ffffff"/>
 <text x="60" y="406" fill="#000000" font-family="Arial" font-size="12">5 - passive</text>
 <text x="12" y="425" fill="#000000" font-family="Arial" font-size="12">35,8,6,8,18,,66 - passive</text>
 <text x="50" y="444" fill="#000000" font-family="Arial" font-size="12">35,9,6,9,10,,7</text>
 <polyline points="111,354 110,357 110,360 109,363 109,366 108,370 107,373 107,376 106,379 106,382 105,385" stroke="#000000" fill="none"/>
 <polygon points="107,386 104,390 103,385 107,386" stroke="#000000" fill="#000000"/>
 <polygon points="227,574 109,574 109,620 227,620 227,574" stroke="#0000ff" fill="#ffffff"/>
 <text x="130" y="590" fill="#000000" font-family="Arial" font-size="12">8 - passive</text>
 <text x="117" y="609" fill="#000000" font-family="Arial" font-size="12">35,11,6,11,6,,9</text>
 <polyline points="166,538 166,541 166,544 166,547 166,550 167,554 167,557 167,560 167,563 167,566 167,569" stroke="#000000" fill="none"/>
 <polygon points="169,569 167,574 165,569 169,569" stroke="#000000" fill="#000000"/>
 <polygon points="265,748 137,748 137,794 265,794 265,748" stroke="#0000ff" fill="#ffffff"/>
 <text x="159" y="764" fill="#000000" font-family="Arial" font-size="12">10 - passive</text>
 <text x="145" y="783" fill="#000000" font-family="Arial" font-size="12">35,13,6,13,6,,11</text>
 <polyline points="199,702 199,706 199,710 199,714 199,718 200,722 200,726 200,731 200,735 200,739 200,743" stroke="#000000" fill="none"/>
 <polygon points="202,743 200,748 198,743 202,743" stroke="#000000" fill="#000000"/>
 <polygon points="366,922 228,922 228,968 366,968 366,922" stroke="#0000ff" fill="#ffffff"/>
 <text x="255" y="938" fill="#000000" font-family="Arial" font-size="12">12 - passive</text>
 <text x="236" y="957" fill="#000000" font-family="Arial" font-size="12">35,15,6,15,18,,13</text>
 <polyline points="296,886 296,889 296,892 296,895 296,898 297,902 297,905 297,908 297,911 297,914 297,917" stroke="#000000" fill="none"/>
 <polygon points="298,917 297,922 295,917 298,917" stroke="#000000" fill="#000000"/>
 <polygon points="462,400 332,400 332,446 462,446 462,400" stroke="#0000ff" fill="#ffffff"/>
 <text x="355" y="416" fill="#000000" font-family="Arial" font-size="12">15 - passive</text>
 <text x="340" y="435" fill="#000000" font-family="Arial" font-size="12">35,17,6,17,6,,16</text>
 <polyline points="395,354 395,358 395,362 395,366 395,370 396,374 396,378 396,383 396,387 396,391 396,395" stroke="#000000" fill="none"/>
 <polygon points="398,395 396,400 394,395 398,395" stroke="#000000" fill="#000000"/>
 <polygon points="502,574 354,574 354,620 502,620 502,574" stroke="#0000ff" fill="#ffffff"/>
 <text x="386" y="590" fill="#000000" font-family="Arial" font-size="12">17 - passive</text>
 <text x="362" y="609" fill="#000000" font-family="Arial" font-size="12">35,18,12,18,16,,18</text>
 <polyline points="428,538 428,541 428,544 428,547 428,550 428,554 428,557 428,560 428,563 428,566 428,569" stroke="#000000" fill="none"/>
 <polygon points="430,569 428,574 426,569 430,569" stroke="#000000" fill="#000000"/>
 <polygon points="535,840 387,840 387,886 535,886 535,840" stroke="#0000ff" fill="#ffffff"/>
 <text x="419" y="856" fill="#000000" font-family="Arial" font-size="12">19 - passive</text>
 <text x="395" y="875" fill="#000000" font-family="Arial" font-size="12">35,19,12,19,24,,20</text>
 <polyline points="461,702 461,713 461,725 461,739 461,753 461,768 461,782 461,797 461,811 461,823 461,835" stroke="#000000" fill="none"/>
 <polygon points="463,835 461,840 459,835 463,835" stroke="#000000" fill="#000000"/>
 <polygon points="735,738 503,738 503,803 735,803 735,738" stroke="#0000ff" fill="#ffffff"/>
 <text x="577" y="754" fill="#000000" font-family="Arial" font-size="12">22 - passive</text>
 <text x="511" y="773" fill="#000000" font-family="Arial" font-size="12">35,20,13,20,35,,2323 - passive</text>
 <text x="553" y="792" fill="#000000" font-family="Arial" font-size="12">35,20,38,20,42,,24</text>
 <polyline points="628,446 628,466 627,491 626,520 625,551 624,584 623,618 622,650 622,681 621,709 620,733" stroke="#000000" fill="none"/>
 <polygon points="622,733 620,738 618,733 622,733" stroke="#000000" fill="#000000"/>
 <polyline points="122,456 124,459 126,462 129,465 131,469 134,472 136,475 138,479 141,482 143,485 145,488" stroke="#000000" fill="none"/>
 <polygon points="147,487 149,492 144,489 147,487" stroke="#000000" fill="#000000"/>
 <polyline points="176,620 177,623 178,626 180,629 181,632 182,636 183,639 184,642 186,645 187,648 188,651" stroke="#000000" fill="none"/>
 <polygon points="190,651 190,656 186,652 190,651" stroke="#000000" fill="#000000"/>
 <polyline points="224,794 228,798 233,802 237,806 242,811 247,815 251,819 256,824 260,828 265,832 269,836" stroke="#000000" fill="none"/>
 <polygon points="270,835 272,840 268,838 270,835" stroke="#000000" fill="#000000"/>
 <polygon points="402,1004 254,1004 254,1050 402,1050 402,1004" stroke="#0000ff" fill="#ffffff"/>
 <text x="293" y="1020" fill="#000000" font-family="Arial" font-size="12">13 - break</text>
 <text x="262" y="1039" fill="#000000" font-family="Arial" font-size="12">32,15,21,15,21,,24</text>
 <polyline points="306,968 307,971 308,974 309,977 310,980 312,984 313,987 314,990 316,993 317,996 318,999" stroke="#000000" fill="none"/>
 <polygon points="319,999 319,1004 316,1000 319,999" stroke="#000000" fill="#000000"/>
 <polygon points="526,1086 396,1086 396,1132 526,1132 526,1086" stroke="#0000ff" fill="#ffffff"/>
 <text x="426" y="1102" fill="#000000" font-family="Arial" font-size="12">25 - return</text>
 <text x="404" y="1121" fill="#000000" font-family="Arial" font-size="12">30,22,2,22,9,,26</text>
 <polyline points="365,1050 370,1053 376,1056 381,1060 387,1063 392,1067 398,1070 403,1073 409,1077 415,1080 420,1083" stroke="#000000" fill="none"/>
 <polygon points="421,1082 424,1086 419,1085 421,1082" stroke="#000000" fill="#000000"/>
 <polygon points="538,1168 384,1168 384,1247 538,1247 538,1168" stroke="#a52a2a" fill="#ffffff"/>
 <text x="392" y="1184" fill="#000000" font-family="Arial" font-size="12">26 - passive-implicit</text>
 <text x="440" y="1203" fill="#000000" font-family="Arial" font-size="12">36,,,,,,</text>
 <text x="448" y="1236" fill="#000000" font-family="Arial" font-size="12">end</text>
 <polyline points="461,1132 461,1135 461,1138 461,1141 461,1144 461,1147 461,1150 461,1153 461,1156 461,1160 461,1163" stroke="#000000" fill="none"/>
 <polygon points="463,1163 461,1168 459,1163 463,1163" stroke="#000000" fill="#000000"/>
 <polyline points="405,446 406,450 408,454 409,458 410,462 412,466 413,470 415,475 416,479 418,483 419,487" stroke="#000000" fill="none"/>
 <polygon points="420,486 420,492 417,488 420,486" stroke="#000000" fill="#000000"/>
 <polyline points="437,620 438,623 440,626 441,629 442,632 444,636 445,639 446,642 447,645 449,648 450,651" stroke="#000000" fill="none"/>
 <polygon points="452,651 452,656 448,652 452,651" stroke="#000000" fill="#000000"/>
 <polygon points="535,922 387,922 387,968 535,968 535,922" stroke="#0000ff" fill="#ffffff"/>
 <text x="426" y="938" fill="#000000" font-family="Arial" font-size="12">20 - break</text>
 <text x="395" y="957" fill="#000000" font-family="Arial" font-size="12">32,19,27,19,27,,24</text>
 <polyline points="461,886 461,889 461,892 461,895 461,898 461,902 461,905 461,908 461,911 461,914 461,917" stroke="#000000" fill="none"/>
 <polygon points="463,917 461,922 459,917 463,917" stroke="#000000" fill="#000000"/>
 <polyline points="461,968 461,977 461,988 461,999 461,1011 461,1023 461,1036 461,1048 461,1060 461,1071 461,1081" stroke="#000000" fill="none"/>
 <polygon points="463,1081 461,1086 459,1081 463,1081" stroke="#000000" fill="#000000"/>
 <polyline points="609,804 605,817 600,831 594,846 588,862 582,880 575,897 567,915 560,933 552,951 544,968 538,980 531,993 524,1005 517,1018 510,1030 503,1042 497,1053 490,1063 484,1073 479,1082" stroke="#000000" fill="none"/>
 <polygon points="480,1083 476,1086 477,1081 480,1083" stroke="#000000" fill="#000000"/>
</svg>
