<?xml version="1.0"?>
<svg width="228" height="670" xmlns="http://www.w3.org/2000/svg" version="1.1">
 <polygon points="4,667 4,4 225,4 225,667 4,667" stroke="#ffffff" fill="#ffffff"/>
 <polygon points="192,122 4,122 4,187 192,187 192,122" stroke="#0000ff" fill="#ffffff"/>
 <text x="60" y="138" fill="#000000" font-family="Arial" font-size="12">2 - passive</text>
 <text x="12" y="157" fill="#000000" font-family="Arial" font-size="12">35,5,2,5,14,,33 - passive</text>
 <text x="50" y="176" fill="#000000" font-family="Arial" font-size="12">35,7,2,7,26,,4</text>
 <polygon points="98,226 18,272 98,318 178,272 98,226" stroke="#0000ff" fill="#ffffff"/>
 <text x="83" y="265" fill="#000000" font-family="Arial" font-size="12">4 - if</text>
 <text x="66" y="284" fill="#000000" font-family="Arial" font-size="12">5,,,,,6,5,6</text>
 <polyline points="98,188 98,191 98,194 98,197 98,200 98,204 98,207 98,210 98,214 98,217 98,221" stroke="#000000" fill="none"/>
 <polygon points="100,221 98,226 96,221 100,221" stroke="#000000" fill="#000000"/>
 <polygon points="171,4 25,4 25,83 171,83 171,4" stroke="#006400" fill="#ffffff"/>
 <text x="33" y="20" fill="#000000" font-family="Arial" font-size="12">1 - passive-implicit</text>
 <text x="73" y="39" fill="#000000" font-family="Arial" font-size="12">36,,,,,,2</text>
 <text x="83" y="72" fill="#000000" font-family="Arial" font-size="12">start</text>
 <polyline points="98,84 98,87 98,91 98,94 98,97 98,101 98,104 98,107 98,110 98,114 98,117" stroke="#000000" fill="none"/>
 <polygon points="100,117 98,122 96,117 100,117" stroke="#000000" fill="#000000"/>
 <polygon points="130,438 20,438 20,484 130,484 130,438" stroke="#0000ff" fill="#ffffff"/>
 <text x="45" y="454" fill="#000000" font-family="Arial" font-size="12">5 - return</text>
 <text x="28" y="473" fill="#000000" font-family="Arial" font-size="12">30,9,4,9,11,,9</text>
 <polyline points="93,315 91,326 90,338 88,351 87,363 85,376 84,388 82,401 81,412 79,423 78,433" stroke="#00ff00" fill="none"/>
 <text x="90" y="348" fill="#000000" font-family="Arial" font-size="12">yes</text>
 <polygon points="80,433 78,438 77,433 80,433" stroke="#00ff00" fill="#00ff00"/>
 <polygon points="222,374 104,374 104,420 222,420 222,374" stroke="#0000ff" fill="#ffffff"/>
 <text x="125" y="390" fill="#000000" font-family="Arial" font-size="12">7 - passive</text>
 <text x="112" y="409" fill="#000000" font-family="Arial" font-size="12">35,11,2,11,7,,8</text>
 <polyline points="116,308 119,314 123,320 126,326 129,332 133,339 136,345 140,351 143,358 146,363 149,369" stroke="#ff0000" fill="none"/>
 <text x="142" y="348" fill="#000000" font-family="Arial" font-size="12">no</text>
 <polygon points="150,368 151,374 147,370 150,368" stroke="#ff0000" fill="#ff0000"/>
 <polygon points="180,586 26,586 26,665 180,665 180,586" stroke="#a52a2a" fill="#ffffff"/>
 <text x="34" y="602" fill="#000000" font-family="Arial" font-size="12">10 - passive-implicit</text>
 <text x="82" y="621" fill="#000000" font-family="Arial" font-size="12">36,,,,,,</text>
 <text x="90" y="654" fill="#000000" font-family="Arial" font-size="12">end</text>
 <polyline points="79,484 80,492 82,501 83,510 85,520 87,530 89,541 90,551 92,561 94,571 96,581" stroke="#000000" fill="none"/>
 <polygon points="97,581 96,586 94,582 97,581" stroke="#000000" fill="#000000"/>
 <polygon points="224,502 104,502 104,548 224,548 224,502" stroke="#0000ff" fill="#ffffff"/>
 <text x="134" y="518" fill="#000000" font-family="Arial" font-size="12">8 - return</text>
 <text x="112" y="537" fill="#000000" font-family="Arial" font-size="12">30,12,2,12,9,,9</text>
 <polyline points="163,420 163,427 163,434 163,442 163,450 164,458 164,466 164,474 164,482 164,490 164,497" stroke="#000000" fill="none"/>
 <polygon points="166,497 164,502 162,497 166,497" stroke="#000000" fill="#000000"/>
 <polyline points="150,548 148,551 146,554 144,557 142,561 140,564 138,568 136,571 134,575 132,578 130,582" stroke="#000000" fill="none"/>
 <polygon points="131,583 127,586 128,581 131,583" stroke="#000000" fill="#000000"/>
</svg>
