<?xml version="1.0"?>
<svg width="728" height="474" xmlns="http://www.w3.org/2000/svg" version="1.1">
 <polygon points="4,471 4,4 725,4 725,471 4,471" stroke="#ffffff" fill="#ffffff"/>
 <polygon points="636,170 636,140 563,120 459,120 386,140 386,170 459,190 563,190 636,170" stroke="#0000ff" fill="#ffffff"/>
 <text x="479" y="148" fill="#000000" font-family="Arial" font-size="12">2 - switch</text>
 <text x="437" y="167" fill="#000000" font-family="Arial" font-size="12">21,5,10,5,10,11,3,6,9</text>
 <polygon points="428,226 308,226 308,272 428,272 428,226" stroke="#0000ff" fill="#ffffff"/>
 <text x="316" y="242" fill="#000000" font-family="Arial" font-size="12">3 - switch-case</text>
 <text x="320" y="261" fill="#000000" font-family="Arial" font-size="12">22,7,4,7,10,,4</text>
 <polyline points="458,190 453,193 448,197 442,200 437,203 432,207 427,210 421,214 416,217 412,220 407,223" stroke="#000000" fill="none"/>
 <polygon points="407,225 402,226 405,222 407,225" stroke="#000000" fill="#000000"/>
 <polygon points="571,226 451,226 451,272 571,272 571,226" stroke="#0000ff" fill="#ffffff"/>
 <text x="459" y="242" fill="#000000" font-family="Arial" font-size="12">6 - switch-case</text>
 <text x="463" y="261" fill="#000000" font-family="Arial" font-size="12">22,8,4,8,10,,7</text>
 <polyline points="511,190 511,193 511,196 511,199 511,202 511,206 511,209 511,212 511,215 511,218 511,221" stroke="#000000" fill="none"/>
 <polygon points="513,221 511,226 509,221 513,221" stroke="#000000" fill="#000000"/>
 <polygon points="723,226 591,226 591,272 723,272 723,226" stroke="#0000ff" fill="#ffffff"/>
 <text x="599" y="242" fill="#000000" font-family="Arial" font-size="12">9 - switch-default</text>
 <text x="605" y="261" fill="#000000" font-family="Arial" font-size="12">23,9,4,9,11,,10</text>
 <polyline points="565,190 570,193 575,197 581,200 586,203 591,207 597,210 602,214 607,217 612,220 617,223" stroke="#000000" fill="none"/>
 <polygon points="619,222 622,226 617,225 619,222" stroke="#000000" fill="#000000"/>
 <polygon points="584,4 438,4 438,83 584,83 584,4" stroke="#006400" fill="#ffffff"/>
 <text x="446" y="20" fill="#000000" font-family="Arial" font-size="12">1 - passive-implicit</text>
 <text x="486" y="39" fill="#000000" font-family="Arial" font-size="12">36,,,,,,2</text>
 <text x="496" y="72" fill="#000000" font-family="Arial" font-size="12">start</text>
 <polyline points="511,84 511,87 511,90 511,93 511,96 511,100 511,103 511,106 511,109 511,112 511,115" stroke="#000000" fill="none"/>
 <polygon points="513,115 511,120 509,115 513,115" stroke="#000000" fill="#000000"/>
 <polygon points="428,308 298,308 298,354 428,354 428,308" stroke="#0000ff" fill="#ffffff"/>
 <text x="333" y="324" fill="#000000" font-family="Arial" font-size="12">4 - return</text>
 <text x="306" y="343" fill="#000000" font-family="Arial" font-size="12">30,7,12,7,19,,12</text>
 <polyline points="367,272 367,275 366,278 366,281 366,284 366,288 365,291 365,294 365,297 365,300 365,303" stroke="#000000" fill="none"/>
 <polygon points="366,303 364,308 363,303 366,303" stroke="#000000" fill="#000000"/>
 <polygon points="576,308 446,308 446,354 576,354 576,308" stroke="#0000ff" fill="#ffffff"/>
 <text x="481" y="324" fill="#000000" font-family="Arial" font-size="12">7 - return</text>
 <text x="454" y="343" fill="#000000" font-family="Arial" font-size="12">30,8,12,8,19,,12</text>
 <polyline points="511,272 511,275 511,278 511,281 511,284 511,288 511,291 511,294 511,297 511,300 511,303" stroke="#000000" fill="none"/>
 <polygon points="513,303 511,308 509,303 513,303" stroke="#000000" fill="#000000"/>
 <polygon points="724,308 594,308 594,354 724,354 724,308" stroke="#0000ff" fill="#ffffff"/>
 <text x="624" y="324" fill="#000000" font-family="Arial" font-size="12">10 - return</text>
 <text x="602" y="343" fill="#000000" font-family="Arial" font-size="12">30,9,13,9,21,,12</text>
 <polyline points="658,272 658,275 658,278 658,281 658,284 658,288 658,291 658,294 658,297 658,300 658,303" stroke="#000000" fill="none"/>
 <polygon points="660,303 658,308 657,303 660,303" stroke="#000000" fill="#000000"/>
 <polygon points="440,390 286,390 286,469 440,469 440,390" stroke="#a52a2a" fill="#ffffff"/>
 <text x="294" y="406" fill="#000000" font-family="Arial" font-size="12">13 - passive-implicit</text>
 <text x="342" y="425" fill="#000000" font-family="Arial" font-size="12">36,,,,,,</text>
 <text x="350" y="458" fill="#000000" font-family="Arial" font-size="12">end</text>
 <polyline points="363,354 363,357 363,360 363,363 363,366 363,369 363,372 363,375 363,378 363,382 363,385" stroke="#000000" fill="none"/>
 <polygon points="365,385 363,390 361,385 365,385" stroke="#000000" fill="#000000"/>
 <polygon points="132,308 4,308 4,354 132,354 132,308" stroke="#ff0000" fill="#ffffff"/>
 <text x="37" y="324" fill="#000000" font-family="Arial" font-size="12">5 - break</text>
 <text x="12" y="343" fill="#000000" font-family="Arial" font-size="12">32,7,22,7,22,,11</text>
 <polyline points="132,353 146,358 160,362 175,367 190,372 205,378 221,383 236,388 252,393 267,397 281,402" stroke="#000000" fill="none"/>
 <polygon points="281,400 286,404 280,404 281,400" stroke="#000000" fill="#000000"/>
 <polyline points="477,354 472,357 468,360 463,363 458,367 453,370 447,374 442,377 437,380 431,384 426,387" stroke="#000000" fill="none"/>
 <polygon points="427,389 422,390 425,386 427,389" stroke="#000000" fill="#000000"/>
 <polygon points="279,308 151,308 151,354 279,354 279,308" stroke="#ff0000" fill="#ffffff"/>
 <text x="184" y="324" fill="#000000" font-family="Arial" font-size="12">8 - break</text>
 <text x="159" y="343" fill="#000000" font-family="Arial" font-size="12">32,8,22,8,22,,11</text>
 <polyline points="249,354 254,357 258,360 263,363 268,367 273,370 279,374 284,377 289,380 295,384 300,387" stroke="#000000" fill="none"/>
 <polygon points="301,386 304,390 299,389 301,386" stroke="#000000" fill="#000000"/>
 <polyline points="594,353 580,358 566,362 551,367 536,372 521,378 505,383 490,388 474,393 459,397 445,402" stroke="#000000" fill="none"/>
 <polygon points="446,404 440,404 445,400 446,404" stroke="#000000" fill="#000000"/>
</svg>
