<?xml version="1.0"?>
<svg width="204" height="388" xmlns="http://www.w3.org/2000/svg" version="1.1">
 <polygon points="4,385 4,4 201,4 201,385 4,385" stroke="#ffffff" fill="#ffffff"/>
 <polygon points="200,120 4,120 4,185 200,185 200,120" stroke="#0000ff" fill="#ffffff"/>
 <text x="64" y="136" fill="#000000" font-family="Arial" font-size="12">2 - passive</text>
 <text x="12" y="155" fill="#000000" font-family="Arial" font-size="12">35,16,2,16,5,,33 - passive</text>
 <text x="50" y="174" fill="#000000" font-family="Arial" font-size="12">35,17,2,17,5,,4</text>
 <polygon points="162,222 42,222 42,268 162,268 162,222" stroke="#0000ff" fill="#ffffff"/>
 <text x="72" y="238" fill="#000000" font-family="Arial" font-size="12">4 - return</text>
 <text x="50" y="257" fill="#000000" font-family="Arial" font-size="12">30,19,2,19,9,,5</text>
 <polyline points="102,186 102,189 102,192 102,195 102,198 102,202 102,205 102,208 102,211 102,214 102,217" stroke="#000000" fill="none"/>
 <polygon points="104,217 102,222 100,217 104,217" stroke="#000000" fill="#000000"/>
 <polygon points="175,4 29,4 29,83 175,83 175,4" stroke="#006400" fill="#ffffff"/>
 <text x="37" y="20" fill="#000000" font-family="Arial" font-size="12">1 - passive-implicit</text>
 <text x="77" y="39" fill="#000000" font-family="Arial" font-size="12">36,,,,,,2</text>
 <text x="87" y="72" fill="#000000" font-family="Arial" font-size="12">start</text>
 <polyline points="102,84 102,87 102,90 102,93 102,96 102,100 102,103 102,106 102,109 102,112 102,115" stroke="#000000" fill="none"/>
 <polygon points="104,115 102,120 100,115 104,115" stroke="#000000" fill="#000000"/>
 <polygon points="175,304 29,304 29,383 175,383 175,304" stroke="#a52a2a" fill="#ffffff"/>
 <text x="37" y="320" fill="#000000" font-family="Arial" font-size="12">5 - passive-implicit</text>
 <text x="81" y="339" fill="#000000" font-family="Arial" font-size="12">36,,,,,,</text>
 <text x="89" y="372" fill="#000000" font-family="Arial" font-size="12">end</text>
 <polyline points="102,268 102,271 102,274 102,277 102,280 102,283 102,286 102,289 102,292 102,296 102,299" stroke="#000000" fill="none"/>
 <polygon points="104,299 102,304 100,299 104,299" stroke="#000000" fill="#000000"/>
</svg>
