<?xml version="1.0"?>
<svg width="265" height="606" xmlns="http://www.w3.org/2000/svg" version="1.1">
 <polygon points="4,603 4,4 262,4 262,603 4,603" stroke="#ffffff" fill="#ffffff"/>
 <polygon points="191,122 81,122 81,168 191,168 191,122" stroke="#0000ff" fill="#ffffff"/>
 <text x="98" y="138" fill="#000000" font-family="Arial" font-size="12">2 - passive</text>
 <text x="89" y="157" fill="#000000" font-family="Arial" font-size="12">35,6,2,6,11,,3</text>
 <polygon points="136,206 11,252 136,298 261,252 136,206" stroke="#0000ff" fill="#ffffff"/>
 <text x="121" y="245" fill="#000000" font-family="Arial" font-size="12">3 - if</text>
 <text x="82" y="264" fill="#000000" font-family="Arial" font-size="12">5,8,6,9,13,5,4,5</text>
 <polyline points="136,168 136,171 136,174 136,177 136,180 136,184 136,187 136,190 136,193 136,197 136,200" stroke="#000000" fill="none"/>
 <polygon points="138,201 136,206 134,201 138,201" stroke="#000000" fill="#000000"/>
 <polygon points="209,4 63,4 63,83 209,83 209,4" stroke="#006400" fill="#ffffff"/>
 <text x="71" y="20" fill="#000000" font-family="Arial" font-size="12">1 - passive-implicit</text>
 <text x="111" y="39" fill="#000000" font-family="Arial" font-size="12">36,,,,,,2</text>
 <text x="121" y="72" fill="#000000" font-family="Arial" font-size="12">start</text>
 <polyline points="136,84 136,87 136,91 136,94 136,97 136,101 136,104 136,108 136,111 136,114 136,117" stroke="#000000" fill="none"/>
 <polygon points="138,117 136,122 134,117 138,117" stroke="#000000" fill="#000000"/>
 <polygon points="124,354 4,354 4,400 124,400 124,354" stroke="#0000ff" fill="#ffffff"/>
 <text x="26" y="370" fill="#000000" font-family="Arial" font-size="12">4 - passive</text>
 <text x="12" y="389" fill="#000000" font-family="Arial" font-size="12">35,10,4,10,4,,5</text>
 <polyline points="114,290 111,296 107,302 104,308 100,314 97,320 93,326 90,332 86,338 83,344 80,349" stroke="#00ff00" fill="none"/>
 <text x="98" y="328" fill="#000000" font-family="Arial" font-size="12">yes</text>
 <polygon points="81,350 77,354 78,349 81,350" stroke="#00ff00" fill="#00ff00"/>
 <polygon points="189,438 71,438 71,484 189,484 189,438" stroke="#0000ff" fill="#ffffff"/>
 <text x="100" y="454" fill="#000000" font-family="Arial" font-size="12">6 - return</text>
 <text x="79" y="473" fill="#000000" font-family="Arial" font-size="12">30,11,2,11,8,,7</text>
 <polyline points="135,298 135,307 135,316 135,326 135,337 134,347 134,358 134,368 134,379 133,390 133,400 133,403 133,407 133,410 133,413 133,417 132,420 132,423 132,426 132,430 132,433" stroke="#ff0000" fill="none"/>
 <text x="136" y="379" fill="#000000" font-family="Arial" font-size="12">no</text>
 <polygon points="133,433 131,438 130,433 133,433" stroke="#ff0000" fill="#ff0000"/>
 <polyline points="82,400 84,403 87,407 90,410 92,414 95,417 98,420 101,424 104,427 106,431 109,434" stroke="#000000" fill="none"/>
 <polygon points="110,433 112,438 108,435 110,433" stroke="#000000" fill="#000000"/>
 <polygon points="203,522 57,522 57,601 203,601 203,522" stroke="#a52a2a" fill="#ffffff"/>
 <text x="65" y="538" fill="#000000" font-family="Arial" font-size="12">7 - passive-implicit</text>
 <text x="109" y="557" fill="#000000" font-family="Arial" font-size="12">36,,,,,,</text>
 <text x="117" y="590" fill="#000000" font-family="Arial" font-size="12">end</text>
 <polyline points="130,484 130,487 130,490 130,493 130,497 130,500 130,504 130,507 130,510 130,514 130,517" stroke="#000000" fill="none"/>
 <polygon points="132,517 130,522 128,517 132,517" stroke="#000000" fill="#000000"/>
</svg>
