<?xml version="1.0"?>
<svg width="388" height="798" xmlns="http://www.w3.org/2000/svg" version="1.1">
 <polygon points="4,795 4,4 385,4 385,795 4,795" stroke="#ffffff" fill="#ffffff"/>
 <polygon points="315,122 203,122 203,168 315,168 315,122" stroke="#0000ff" fill="#ffffff"/>
 <text x="221" y="138" fill="#000000" font-family="Arial" font-size="12">2 - passive</text>
 <text x="211" y="157" fill="#000000" font-family="Arial" font-size="12">35,3,4,3,15,,3</text>
 <polygon points="259,206 134,252 259,298 384,252 259,206" stroke="#0000ff" fill="#ffffff"/>
 <text x="244" y="245" fill="#000000" font-family="Arial" font-size="12">3 - if</text>
 <text x="205" y="264" fill="#000000" font-family="Arial" font-size="12">5,4,8,4,12,9,4,9</text>
 <polyline points="259,168 259,171 259,174 259,177 259,180 259,184 259,187 259,190 259,193 259,197 259,200" stroke="#000000" fill="none"/>
 <polygon points="261,201 259,206 257,201 261,201" stroke="#000000" fill="#000000"/>
 <polygon points="332,4 186,4 186,83 332,83 332,4" stroke="#006400" fill="#ffffff"/>
 <text x="194" y="20" fill="#000000" font-family="Arial" font-size="12">1 - passive-implicit</text>
 <text x="234" y="39" fill="#000000" font-family="Arial" font-size="12">36,,,,,,2</text>
 <text x="244" y="72" fill="#000000" font-family="Arial" font-size="12">start</text>
 <polyline points="259,84 259,87 259,91 259,94 259,97 259,101 259,104 259,108 259,111 259,114 259,117" stroke="#000000" fill="none"/>
 <polygon points="261,117 259,122 257,117 261,117" stroke="#000000" fill="#000000"/>
 <polygon points="138,354 4,400 138,446 272,400 138,354" stroke="#0000ff" fill="#ffffff"/>
 <text x="123" y="393" fill="#000000" font-family="Arial" font-size="12">4 - if</text>
 <text x="79" y="412" fill="#000000" font-family="Arial" font-size="12">5,5,12,5,16,8,5,6</text>
 <polyline points="230,288 224,294 219,301 213,308 207,316 200,323 194,331 188,338 182,346 176,353 170,360" stroke="#00ff00" fill="none"/>
 <text x="206" y="328" fill="#000000" font-family="Arial" font-size="12">yes</text>
 <polygon points="172,361 167,364 169,359 172,361" stroke="#00ff00" fill="#00ff00"/>
 <polygon points="287,630 151,630 151,676 287,676 287,630" stroke="#0000ff" fill="#ffffff"/>
 <text x="184" y="646" fill="#000000" font-family="Arial" font-size="12">10 - return</text>
 <text x="159" y="665" fill="#000000" font-family="Arial" font-size="12">30,10,4,10,11,,11</text>
 <polyline points="270,294 275,313 279,334 283,358 287,383 290,410 291,437 291,465 290,493 286,521 280,548 277,557 274,565 270,574 266,582 262,590 258,598 253,605 249,612 244,619 240,625" stroke="#ff0000" fill="none"/>
 <text x="293" y="476" fill="#000000" font-family="Arial" font-size="12">no</text>
 <polygon points="241,627 237,630 238,625 241,627" stroke="#ff0000" fill="#ff0000"/>
 <polygon points="186,566 58,566 58,612 186,612 186,566" stroke="#0000ff" fill="#ffffff"/>
 <text x="92" y="582" fill="#000000" font-family="Arial" font-size="12">5 - return</text>
 <text x="66" y="601" fill="#000000" font-family="Arial" font-size="12">30,6,12,6,19,,11</text>
 <polyline points="134,445 133,456 132,468 131,480 130,492 129,505 128,517 127,529 126,540 125,551 124,561" stroke="#00ff00" fill="none"/>
 <text x="133" y="476" fill="#000000" font-family="Arial" font-size="12">yes</text>
 <polygon points="126,561 124,566 123,561 126,561" stroke="#00ff00" fill="#00ff00"/>
 <polygon points="271,502 151,502 151,548 271,548 271,502" stroke="#0000ff" fill="#ffffff"/>
 <text x="173" y="518" fill="#000000" font-family="Arial" font-size="12">7 - passive</text>
 <text x="159" y="537" fill="#000000" font-family="Arial" font-size="12">35,8,12,8,13,,8</text>
 <polyline points="160,439 163,445 167,450 171,456 174,462 178,468 182,474 185,480 189,486 192,492 195,497" stroke="#ff0000" fill="none"/>
 <text x="187" y="476" fill="#000000" font-family="Arial" font-size="12">no</text>
 <polygon points="197,496 198,502 194,498 197,496" stroke="#ff0000" fill="#ff0000"/>
 <polygon points="229,714 75,714 75,793 229,793 229,714" stroke="#a52a2a" fill="#ffffff"/>
 <text x="83" y="730" fill="#000000" font-family="Arial" font-size="12">12 - passive-implicit</text>
 <text x="131" y="749" fill="#000000" font-family="Arial" font-size="12">36,,,,,,</text>
 <text x="139" y="782" fill="#000000" font-family="Arial" font-size="12">end</text>
 <polyline points="204,676 202,679 200,682 197,685 195,689 193,692 191,696 188,699 186,703 183,706 181,710" stroke="#000000" fill="none"/>
 <polygon points="182,711 178,714 180,709 182,711" stroke="#000000" fill="#000000"/>
 <polyline points="126,612 128,620 129,629 131,638 133,648 135,658 137,669 138,679 140,689 142,699 144,709" stroke="#000000" fill="none"/>
 <polygon points="146,709 145,714 142,710 146,709" stroke="#000000" fill="#000000"/>
 <polyline points="212,548 213,555 213,562 214,570 214,578 215,586 215,594 216,602 216,610 217,618 217,625" stroke="#000000" fill="none"/>
 <polygon points="219,625 218,630 216,625 219,625" stroke="#000000" fill="#000000"/>
</svg>
