<?xml version="1.0"?>
<svg width="488" height="948" xmlns="http://www.w3.org/2000/svg" version="1.1">
 <polygon points="4,945 4,4 485,4 485,945 4,945" stroke="#ffffff" fill="#ffffff"/>
 <polygon points="484,122 296,122 296,187 484,187 484,122" stroke="#0000ff" fill="#ffffff"/>
 <text x="352" y="138" fill="#000000" font-family="Arial" font-size="12">2 - passive</text>
 <text x="304" y="157" fill="#000000" font-family="Arial" font-size="12">35,3,4,3,12,,33 - passive</text>
 <text x="342" y="176" fill="#000000" font-family="Arial" font-size="12">35,4,4,4,14,,4</text>
 <polygon points="441,226 339,226 339,272 441,272 441,226" stroke="#0000ff" fill="#ffffff"/>
 <text x="352" y="242" fill="#000000" font-family="Arial" font-size="12">4 - passive</text>
 <text x="347" y="261" fill="#000000" font-family="Arial" font-size="12">35,5,0,5,0,,5</text>
 <polyline points="390,188 390,191 390,194 390,197 390,201 390,204 390,208 390,211 390,214 390,218 390,221" stroke="#000000" fill="none"/>
 <polygon points="392,221 390,226 388,221 392,221" stroke="#000000" fill="#000000"/>
 <polygon points="463,4 317,4 317,83 463,83 463,4" stroke="#006400" fill="#ffffff"/>
 <text x="325" y="20" fill="#000000" font-family="Arial" font-size="12">1 - passive-implicit</text>
 <text x="365" y="39" fill="#000000" font-family="Arial" font-size="12">36,,,,,,2</text>
 <text x="375" y="72" fill="#000000" font-family="Arial" font-size="12">start</text>
 <polyline points="390,84 390,87 390,91 390,94 390,97 390,101 390,104 390,107 390,110 390,114 390,117" stroke="#000000" fill="none"/>
 <polygon points="392,117 390,122 388,117 392,117" stroke="#000000" fill="#000000"/>
 <polygon points="198,310 55,356 198,402 341,356 198,310" stroke="#0000ff" fill="#ffffff"/>
 <text x="183" y="349" fill="#000000" font-family="Arial" font-size="12">5 - if</text>
 <text x="135" y="368" fill="#000000" font-family="Arial" font-size="12">5,6,8,6,12,13,6,13</text>
 <polyline points="350,272 341,277 332,282 323,287 313,292 303,297 293,303 283,308 273,314 263,319 254,324" stroke="#000000" fill="none"/>
 <polygon points="255,326 250,327 253,323 255,326" stroke="#000000" fill="#000000"/>
 <polygon points="198,458 64,504 198,550 332,504 198,458" stroke="#0000ff" fill="#ffffff"/>
 <text x="183" y="497" fill="#000000" font-family="Arial" font-size="12">6 - if</text>
 <text x="139" y="516" fill="#000000" font-family="Arial" font-size="12">5,7,12,7,12,8,7,8</text>
 <polyline points="198,402 198,407 198,412 198,417 198,422 198,427 198,432 198,438 198,443 198,448 198,453" stroke="#00ff00" fill="none"/>
 <text x="198" y="432" fill="#000000" font-family="Arial" font-size="12">yes</text>
 <polygon points="200,453 198,458 196,453 200,453" stroke="#00ff00" fill="#00ff00"/>
 <polygon points="161,864 7,864 7,943 161,943 161,864" stroke="#a52a2a" fill="#ffffff"/>
 <text x="15" y="880" fill="#000000" font-family="Arial" font-size="12">15 - passive-implicit</text>
 <text x="63" y="899" fill="#000000" font-family="Arial" font-size="12">36,,,,,,</text>
 <text x="71" y="932" fill="#000000" font-family="Arial" font-size="12">end</text>
 <polyline points="126,379 109,386 92,394 75,404 59,414 44,426 31,438 20,453 11,468 6,485 4,503 4,503 4,505 4,511 4,522 4,541 4,568 4,606 4,657 4,722 4,804 4,810 5,816 7,822 9,828 11,834 14,839 17,845 21,850 25,855 29,860" stroke="#ff0000" fill="none"/>
 <text x="5" y="654" fill="#000000" font-family="Arial" font-size="12">no</text>
 <polygon points="31,859 33,864 28,862 31,859" stroke="#ff0000" fill="#ff0000"/>
 <polygon points="149,716 19,716 19,762 149,762 149,716" stroke="#0000ff" fill="#ffffff"/>
 <text x="54" y="732" fill="#000000" font-family="Arial" font-size="12">7 - return</text>
 <text x="27" y="751" fill="#000000" font-family="Arial" font-size="12">30,8,12,8,19,,14</text>
 <polyline points="144,532 136,537 127,543 118,549 110,556 102,563 94,571 86,579 79,588 73,597 68,606 63,616 60,626 59,635 58,643 58,651 59,659 61,667 63,677 66,687 68,698 68,699 69,701 69,702 69,703 70,705 70,706 70,707 71,708 71,710 72,711" stroke="#00ff00" fill="none"/>
 <text x="94" y="580" fill="#000000" font-family="Arial" font-size="12">yes</text>
 <polygon points="73,710 73,716 70,712 73,710" stroke="#00ff00" fill="#00ff00"/>
 <polygon points="236,606 77,652 236,698 395,652 236,606" stroke="#0000ff" fill="#ffffff"/>
 <text x="221" y="645" fill="#000000" font-family="Arial" font-size="12">9 - if</text>
 <text x="165" y="664" fill="#000000" font-family="Arial" font-size="12">5,9,12,9,12,11,10,11</text>
 <polyline points="209,546 210,551 212,557 213,563 215,569 216,575 218,581 219,586 221,592 222,598 224,604" stroke="#ff0000" fill="none"/>
 <text x="221" y="580" fill="#000000" font-family="Arial" font-size="12">no</text>
 <polygon points="225,604 225,609 222,605 225,604" stroke="#ff0000" fill="#ff0000"/>
 <polyline points="84,762 84,770 84,779 84,788 84,798 84,808 84,819 84,829 84,839 84,849 84,859" stroke="#000000" fill="none"/>
 <polygon points="86,859 84,864 82,859 86,859" stroke="#000000" fill="#000000"/>
 <polygon points="456,780 318,780 318,826 456,826 456,780" stroke="#0000ff" fill="#ffffff"/>
 <text x="356" y="796" fill="#000000" font-family="Arial" font-size="12">10 - goto</text>
 <text x="326" y="815" fill="#000000" font-family="Arial" font-size="12">28,10,12,10,17,,4</text>
 <polyline points="271,688 280,696 289,705 298,714 308,724 317,733 327,742 336,752 345,760 353,768 361,776" stroke="#00ff00" fill="none"/>
 <text x="343" y="741" fill="#000000" font-family="Arial" font-size="12">yes</text>
 <polygon points="362,775 364,780 360,778 362,775" stroke="#00ff00" fill="#00ff00"/>
 <polygon points="264,780 128,780 128,826 264,826 264,780" stroke="#0000ff" fill="#ffffff"/>
 <text x="161" y="796" fill="#000000" font-family="Arial" font-size="12">12 - return</text>
 <text x="136" y="815" fill="#000000" font-family="Arial" font-size="12">30,11,8,11,15,,14</text>
 <polyline points="225,695 223,703 221,711 218,720 216,728 214,737 211,745 209,753 207,761 205,768 203,775" stroke="#ff0000" fill="none"/>
 <text x="220" y="741" fill="#000000" font-family="Arial" font-size="12">no</text>
 <polygon points="205,775 202,780 202,774 205,775" stroke="#ff0000" fill="#ff0000"/>
 <polyline points="396,780 399,771 403,760 407,748 410,736 414,723 417,709 419,695 421,681 423,667 423,653 423,572 423,508 423,457 423,419 423,392 423,374 423,363 423,357 423,355 423,355 423,347 422,339 421,330 419,322 417,314 415,306 412,298 409,291 407,284 404,277" stroke="#000000" fill="none"/>
 <polygon points="402,278 401,272 405,276 402,278" stroke="#000000" fill="#000000"/>
 <polyline points="171,826 167,829 164,832 160,836 156,839 152,843 148,846 144,850 140,854 136,857 132,861" stroke="#000000" fill="none"/>
 <polygon points="133,862 128,864 131,860 133,862" stroke="#000000" fill="#000000"/>
</svg>
