<?xml version="1.0"?>
<svg width="288" height="522" xmlns="http://www.w3.org/2000/svg" version="1.1">
 <polygon points="4,519 4,4 285,4 285,519 4,519" stroke="#ffffff" fill="#ffffff"/>
 <polygon points="184,122 74,122 74,168 184,168 184,122" stroke="#0000ff" fill="#ffffff"/>
 <text x="91" y="138" fill="#000000" font-family="Arial" font-size="12">2 - passive</text>
 <text x="82" y="157" fill="#000000" font-family="Arial" font-size="12">35,6,2,6,11,,3</text>
 <polygon points="129,206 4,252 129,298 254,252 129,206" stroke="#0000ff" fill="#ffffff"/>
 <text x="114" y="245" fill="#000000" font-family="Arial" font-size="12">3 - if</text>
 <text x="75" y="264" fill="#000000" font-family="Arial" font-size="12">5,8,6,9,13,5,4,5</text>
 <polyline points="129,168 129,171 129,174 129,177 129,180 129,184 129,187 129,190 129,193 129,197 129,200" stroke="#000000" fill="none"/>
 <polygon points="131,201 129,206 127,201 131,201" stroke="#000000" fill="#000000"/>
 <polygon points="202,4 56,4 56,83 202,83 202,4" stroke="#006400" fill="#ffffff"/>
 <text x="64" y="20" fill="#000000" font-family="Arial" font-size="12">1 - passive-implicit</text>
 <text x="104" y="39" fill="#000000" font-family="Arial" font-size="12">36,,,,,,2</text>
 <text x="114" y="72" fill="#000000" font-family="Arial" font-size="12">start</text>
 <polyline points="129,84 129,87 129,91 129,94 129,97 129,101 129,104 129,108 129,111 129,114 129,117" stroke="#000000" fill="none"/>
 <polygon points="131,117 129,122 127,117 131,117" stroke="#000000" fill="#000000"/>
 <polygon points="147,354 17,354 17,400 147,400 147,354" stroke="#0000ff" fill="#ffffff"/>
 <text x="52" y="370" fill="#000000" font-family="Arial" font-size="12">4 - return</text>
 <text x="25" y="389" fill="#000000" font-family="Arial" font-size="12">30,10,4,10,10,,7</text>
 <polyline points="114,293 112,298 110,304 107,310 105,316 103,321 101,327 99,333 96,338 94,344 92,349" stroke="#00ff00" fill="none"/>
 <text x="105" y="328" fill="#000000" font-family="Arial" font-size="12">yes</text>
 <polygon points="94,350 91,354 91,348 94,350" stroke="#00ff00" fill="#00ff00"/>
 <polygon points="284,354 166,354 166,400 284,400 284,354" stroke="#0000ff" fill="#ffffff"/>
 <text x="195" y="370" fill="#000000" font-family="Arial" font-size="12">6 - return</text>
 <text x="174" y="389" fill="#000000" font-family="Arial" font-size="12">30,11,2,11,8,,7</text>
 <polyline points="157,288 162,294 166,300 171,307 176,313 181,320 186,326 191,332 196,339 201,344 205,350" stroke="#ff0000" fill="none"/>
 <text x="192" y="328" fill="#000000" font-family="Arial" font-size="12">no</text>
 <polygon points="206,349 208,354 203,351 206,349" stroke="#ff0000" fill="#ff0000"/>
 <polygon points="241,438 95,438 95,517 241,517 241,438" stroke="#a52a2a" fill="#ffffff"/>
 <text x="103" y="454" fill="#000000" font-family="Arial" font-size="12">8 - passive-implicit</text>
 <text x="147" y="473" fill="#000000" font-family="Arial" font-size="12">36,,,,,,</text>
 <text x="155" y="506" fill="#000000" font-family="Arial" font-size="12">end</text>
 <polyline points="102,400 104,403 107,407 110,410 113,414 116,417 119,420 122,424 125,427 128,431 131,434" stroke="#000000" fill="none"/>
 <polygon points="132,433 134,438 130,436 132,433" stroke="#000000" fill="#000000"/>
 <polyline points="212,400 210,403 208,406 207,409 205,413 203,416 201,420 199,423 197,427 195,430 193,434" stroke="#000000" fill="none"/>
 <polygon points="194,435 190,438 191,433 194,435" stroke="#000000" fill="#000000"/>
</svg>
