<?xml version="1.0"?>
<svg width="293" height="830" xmlns="http://www.w3.org/2000/svg" version="1.1">
 <polygon points="4,827 4,4 290,4 290,827 4,827" stroke="#ffffff" fill="#ffffff"/>
 <ellipse cx="163" cy="155" rx="94" ry="33" stroke="#0000ff" fill="#ffffff"/>
 <text x="123" y="148" fill="#000000" font-family="Arial" font-size="12">2 - while-for</text>
 <text x="104" y="167" fill="#000000" font-family="Arial" font-size="12">10,3,8,3,31,8,3,9</text>
 <polygon points="127,244 15,244 15,290 127,290 127,244" stroke="#0000ff" fill="#ffffff"/>
 <text x="33" y="260" fill="#000000" font-family="Arial" font-size="12">3 - passive</text>
 <text x="23" y="279" fill="#000000" font-family="Arial" font-size="12">35,4,8,4,24,,4</text>
 <polyline points="138,186 134,191 129,197 125,202 120,208 115,213 110,219 106,224 101,230 97,235 93,240" stroke="#00ff00" fill="none"/>
 <text x="120" y="218" fill="#000000" font-family="Arial" font-size="12">yes</text>
 <polygon points="94,241 90,244 91,239 94,241" stroke="#00ff00" fill="#00ff00"/>
 <polygon points="289,308 179,308 179,354 289,354 289,308" stroke="#0000ff" fill="#ffffff"/>
 <text x="203" y="324" fill="#000000" font-family="Arial" font-size="12">10 - goto</text>
 <text x="187" y="343" fill="#000000" font-family="Arial" font-size="12">28,9,4,9,9,,11</text>
 <polyline points="176,188 180,198 185,210 189,222 194,234 200,246 205,259 210,271 214,282 219,293 223,303" stroke="#ff0000" fill="none"/>
 <text x="192" y="218" fill="#000000" font-family="Arial" font-size="12">no</text>
 <polygon points="225,303 225,308 221,304 225,303" stroke="#ff0000" fill="#ff0000"/>
 <polygon points="236,4 90,4 90,83 236,83 236,4" stroke="#006400" fill="#ffffff"/>
 <text x="98" y="20" fill="#000000" font-family="Arial" font-size="12">1 - passive-implicit</text>
 <text x="138" y="39" fill="#000000" font-family="Arial" font-size="12">36,,,,,,2</text>
 <text x="148" y="72" fill="#000000" font-family="Arial" font-size="12">start</text>
 <polyline points="163,84 163,87 163,91 163,94 163,97 163,101 163,104 163,107 163,110 163,114 163,117" stroke="#000000" fill="none"/>
 <polygon points="165,117 163,122 161,117 165,117" stroke="#000000" fill="#000000"/>
 <ellipse cx="105" cy="405" rx="101" ry="33" stroke="#0000ff" fill="#ffffff"/>
 <text x="65" y="398" fill="#000000" font-family="Arial" font-size="12">4 - while-for</text>
 <text x="42" y="417" fill="#000000" font-family="Arial" font-size="12">10,5,12,5,35,6,5,7</text>
 <polyline points="77,290 79,297 80,304 82,311 84,319 86,327 88,336 90,344 92,352 94,360 96,367" stroke="#000000" fill="none"/>
 <polygon points="98,367 97,372 94,368 98,367" stroke="#000000" fill="#000000"/>
 <polygon points="267,578 137,578 137,624 267,624 267,578" stroke="#0000ff" fill="#ffffff"/>
 <text x="160" y="594" fill="#000000" font-family="Arial" font-size="12">11 - passive</text>
 <text x="145" y="613" fill="#000000" font-family="Arial" font-size="12">35,10,0,10,0,,12</text>
 <polyline points="231,354 229,371 227,390 224,413 221,437 218,462 215,487 213,511 210,534 207,555 205,573" stroke="#000000" fill="none"/>
 <polygon points="207,573 205,578 203,573 207,573" stroke="#000000" fill="#000000"/>
 <polyline points="114,372 116,365 118,357 121,349 123,341 125,333 127,324 129,316 132,307 134,298 136,290 138,280 141,270 143,259 145,249 147,239 149,229 151,219 153,209 154,200 156,192" stroke="#ff0000" fill="none"/>
 <text x="147" y="269" fill="#000000" font-family="Arial" font-size="12">no</text>
 <polygon points="155,192 157,188 158,193 155,192" stroke="#ff0000" fill="#ff0000"/>
 <polygon points="196,494 68,494 68,540 196,540 196,494" stroke="#0000ff" fill="#ffffff"/>
 <text x="106" y="510" fill="#000000" font-family="Arial" font-size="12">5 - goto</text>
 <text x="76" y="529" fill="#000000" font-family="Arial" font-size="12">28,6,12,6,17,,11</text>
 <polyline points="113,438 114,443 115,448 117,453 118,458 119,464 121,469 122,474 123,479 124,484 125,489" stroke="#00ff00" fill="none"/>
 <text x="122" y="468" fill="#000000" font-family="Arial" font-size="12">yes</text>
 <polygon points="127,489 127,494 124,489 127,489" stroke="#00ff00" fill="#00ff00"/>
 <polyline points="151,540 154,543 157,547 160,550 163,554 166,557 168,560 171,564 174,567 177,571 180,574" stroke="#000000" fill="none"/>
 <polygon points="181,573 183,578 179,575 181,573" stroke="#000000" fill="#000000"/>
 <polygon points="270,662 134,662 134,708 270,708 270,662" stroke="#0000ff" fill="#ffffff"/>
 <text x="167" y="678" fill="#000000" font-family="Arial" font-size="12">12 - return</text>
 <text x="142" y="697" fill="#000000" font-family="Arial" font-size="12">30,11,4,11,11,,13</text>
 <polyline points="202,624 202,627 202,630 202,633 202,637 202,640 202,644 202,647 202,650 202,654 202,657" stroke="#000000" fill="none"/>
 <polygon points="204,657 202,662 200,657 204,657" stroke="#000000" fill="#000000"/>
 <polygon points="279,746 125,746 125,825 279,825 279,746" stroke="#a52a2a" fill="#ffffff"/>
 <text x="133" y="762" fill="#000000" font-family="Arial" font-size="12">13 - passive-implicit</text>
 <text x="181" y="781" fill="#000000" font-family="Arial" font-size="12">36,,,,,,</text>
 <text x="189" y="814" fill="#000000" font-family="Arial" font-size="12">end</text>
 <polyline points="202,708 202,711 202,714 202,717 202,721 202,724 202,728 202,731 202,734 202,738 202,741" stroke="#000000" fill="none"/>
 <polygon points="204,741 202,746 200,741 204,741" stroke="#000000" fill="#000000"/>
</svg>
