<?xml version="1.0"?>
<svg width="293" height="496" xmlns="http://www.w3.org/2000/svg" version="1.1">
 <polygon points="4,493 4,4 290,4 290,493 4,493" stroke="#ffffff" fill="#ffffff"/>
 <polygon points="171,122 51,122 51,168 171,168 171,122" stroke="#0000ff" fill="#ffffff"/>
 <text x="73" y="138" fill="#000000" font-family="Arial" font-size="12">2 - passive</text>
 <text x="59" y="157" fill="#000000" font-family="Arial" font-size="12">35,26,2,26,6,,3</text>
 <ellipse cx="111" cy="239" rx="107" ry="33" stroke="#0000ff" fill="#ffffff"/>
 <text x="71" y="232" fill="#000000" font-family="Arial" font-size="12">3 - while-for</text>
 <text x="43" y="251" fill="#000000" font-family="Arial" font-size="12">10,27,6,27,25,5,4,6</text>
 <polyline points="111,168 111,171 111,174 111,177 111,181 111,184 111,188 111,191 111,194 111,198 111,201" stroke="#000000" fill="none"/>
 <polygon points="113,201 111,206 109,201 113,201" stroke="#000000" fill="#000000"/>
 <polygon points="184,4 38,4 38,83 184,83 184,4" stroke="#006400" fill="#ffffff"/>
 <text x="46" y="20" fill="#000000" font-family="Arial" font-size="12">1 - passive-implicit</text>
 <text x="86" y="39" fill="#000000" font-family="Arial" font-size="12">36,,,,,,2</text>
 <text x="96" y="72" fill="#000000" font-family="Arial" font-size="12">start</text>
 <polyline points="111,84 111,87 111,91 111,94 111,97 111,101 111,104 111,108 111,111 111,114 111,117" stroke="#000000" fill="none"/>
 <polygon points="113,117 111,122 109,117 113,117" stroke="#000000" fill="#000000"/>
 <polygon points="137,328 7,328 7,374 137,374 137,328" stroke="#0000ff" fill="#ffffff"/>
 <text x="34" y="344" fill="#000000" font-family="Arial" font-size="12">4 - passive</text>
 <text x="15" y="363" fill="#000000" font-family="Arial" font-size="12">35,28,4,28,10,,5</text>
 <polyline points="83,271 82,273 81,275 79,276 78,278 77,280 76,282 75,284 74,286 74,288 73,290 72,293 71,296 70,299 70,303 70,306 69,310 69,313 69,316 69,320 69,323" stroke="#00ff00" fill="none"/>
 <text x="73" y="302" fill="#000000" font-family="Arial" font-size="12">yes</text>
 <polygon points="71,323 69,328 67,323 71,323" stroke="#00ff00" fill="#00ff00"/>
 <polygon points="276,328 156,328 156,374 276,374 276,328" stroke="#0000ff" fill="#ffffff"/>
 <text x="186" y="344" fill="#000000" font-family="Arial" font-size="12">7 - return</text>
 <text x="164" y="363" fill="#000000" font-family="Arial" font-size="12">30,29,2,29,9,,8</text>
 <polyline points="140,270 145,275 150,281 155,286 161,292 166,297 171,303 176,308 181,314 186,319 191,324" stroke="#ff0000" fill="none"/>
 <text x="177" y="302" fill="#000000" font-family="Arial" font-size="12">no</text>
 <polygon points="193,323 195,328 190,325 193,323" stroke="#ff0000" fill="#ff0000"/>
 <polyline points="88,328 89,326 90,324 91,323 92,321 93,319 94,317 95,315 96,314 96,312 97,310 98,307 99,304 100,301 101,297 102,294 103,290 104,287 105,284 105,280 106,277" stroke="#000000" fill="none"/>
 <polygon points="105,276 107,272 108,277 105,276" stroke="#000000" fill="#000000"/>
 <polygon points="289,412 143,412 143,491 289,491 289,412" stroke="#a52a2a" fill="#ffffff"/>
 <text x="151" y="428" fill="#000000" font-family="Arial" font-size="12">8 - passive-implicit</text>
 <text x="195" y="447" fill="#000000" font-family="Arial" font-size="12">36,,,,,,</text>
 <text x="203" y="480" fill="#000000" font-family="Arial" font-size="12">end</text>
 <polyline points="216,374 216,377 216,380 216,383 216,387 216,390 216,394 216,397 216,400 216,404 216,407" stroke="#000000" fill="none"/>
 <polygon points="218,407 216,412 214,407 218,407" stroke="#000000" fill="#000000"/>
</svg>
