<?xml version="1.0"?>
<svg width="390" height="556" xmlns="http://www.w3.org/2000/svg" version="1.1">
 <polygon points="4,553 4,4 387,4 387,553 4,553" stroke="#ffffff" fill="#ffffff"/>
 <polygon points="357,170 357,140 293,120 203,120 139,140 139,170 203,190 293,190 357,170" stroke="#0000ff" fill="#ffffff"/>
 <text x="216" y="148" fill="#000000" font-family="Arial" font-size="12">2 - switch</text>
 <text x="185" y="167" fill="#000000" font-family="Arial" font-size="12">21,3,10,3,10,8,3,5</text>
 <polygon points="236,226 116,226 116,272 236,272 236,226" stroke="#0000ff" fill="#ffffff"/>
 <text x="124" y="242" fill="#000000" font-family="Arial" font-size="12">3 - switch-case</text>
 <text x="128" y="261" fill="#000000" font-family="Arial" font-size="12">22,5,4,5,10,,4</text>
 <polyline points="221,190 219,193 216,197 214,200 211,203 209,206 206,210 203,213 201,216 198,219 196,222" stroke="#000000" fill="none"/>
 <polygon points="198,223 193,226 195,221 198,223" stroke="#000000" fill="#000000"/>
 <polygon points="386,226 254,226 254,272 386,272 386,226" stroke="#0000ff" fill="#ffffff"/>
 <text x="262" y="242" fill="#000000" font-family="Arial" font-size="12">5 - switch-default</text>
 <text x="273" y="261" fill="#000000" font-family="Arial" font-size="12">23,7,4,7,11,,6</text>
 <polyline points="275,190 277,193 280,197 282,200 285,203 288,206 290,210 293,213 295,216 298,219 300,222" stroke="#000000" fill="none"/>
 <polygon points="301,221 303,226 298,223 301,221" stroke="#000000" fill="#000000"/>
 <polygon points="321,4 175,4 175,83 321,83 321,4" stroke="#006400" fill="#ffffff"/>
 <text x="183" y="20" fill="#000000" font-family="Arial" font-size="12">1 - passive-implicit</text>
 <text x="223" y="39" fill="#000000" font-family="Arial" font-size="12">36,,,,,,2</text>
 <text x="233" y="72" fill="#000000" font-family="Arial" font-size="12">start</text>
 <polyline points="248,84 248,87 248,90 248,93 248,96 248,100 248,103 248,106 248,109 248,112 248,115" stroke="#000000" fill="none"/>
 <polygon points="250,115 248,120 246,115 250,115" stroke="#000000" fill="#000000"/>
 <polygon points="227,308 125,308 125,354 227,354 227,308" stroke="#0000ff" fill="#ffffff"/>
 <text x="145" y="324" fill="#000000" font-family="Arial" font-size="12">4 - break</text>
 <text x="133" y="343" fill="#000000" font-family="Arial" font-size="12">32,6,6,6,6,,8</text>
 <polyline points="176,272 176,275 176,278 176,281 176,284 176,288 176,291 176,294 176,297 176,300 176,303" stroke="#000000" fill="none"/>
 <polygon points="178,303 176,308 174,303 178,303" stroke="#000000" fill="#000000"/>
 <polygon points="379,390 259,390 259,436 379,436 379,390" stroke="#0000ff" fill="#ffffff"/>
 <text x="289" y="406" fill="#000000" font-family="Arial" font-size="12">6 - return</text>
 <text x="267" y="425" fill="#000000" font-family="Arial" font-size="12">30,8,6,8,13,,10</text>
 <polyline points="320,272 320,281 320,292 320,303 320,315 320,327 319,340 319,352 319,364 319,375 319,385" stroke="#000000" fill="none"/>
 <polygon points="321,385 319,390 317,385 321,385" stroke="#000000" fill="#000000"/>
 <polygon points="240,390 112,390 112,436 240,436 240,390" stroke="#0000ff" fill="#ffffff"/>
 <text x="146" y="406" fill="#000000" font-family="Arial" font-size="12">9 - return</text>
 <text x="120" y="425" fill="#000000" font-family="Arial" font-size="12">30,11,2,11,9,,10</text>
 <polyline points="176,354 176,357 176,360 176,363 176,366 176,370 176,373 176,376 176,379 176,382 176,385" stroke="#000000" fill="none"/>
 <polygon points="178,385 176,390 174,385 178,385" stroke="#000000" fill="#000000"/>
 <polygon points="324,472 170,472 170,551 324,551 324,472" stroke="#a52a2a" fill="#ffffff"/>
 <text x="178" y="488" fill="#000000" font-family="Arial" font-size="12">11 - passive-implicit</text>
 <text x="226" y="507" fill="#000000" font-family="Arial" font-size="12">36,,,,,,</text>
 <text x="234" y="540" fill="#000000" font-family="Arial" font-size="12">end</text>
 <polyline points="192,436 194,439 196,442 199,445 201,448 204,452 206,455 209,458 211,461 214,465 216,468" stroke="#000000" fill="none"/>
 <polygon points="217,467 219,472 214,469 217,467" stroke="#000000" fill="#000000"/>
 <polyline points="303,436 301,439 299,442 296,445 294,448 291,452 289,455 286,458 284,461 281,465 279,468" stroke="#000000" fill="none"/>
 <polygon points="280,469 276,472 277,467 280,469" stroke="#000000" fill="#000000"/>
 <polygon points="106,308 4,308 4,354 106,354 106,308" stroke="#ff0000" fill="#ffffff"/>
 <text x="24" y="324" fill="#000000" font-family="Arial" font-size="12">7 - break</text>
 <text x="12" y="343" fill="#000000" font-family="Arial" font-size="12">32,9,6,9,6,,8</text>
 <polyline points="88,354 93,357 98,360 103,364 108,367 113,371 118,374 123,377 128,381 133,384 138,387" stroke="#000000" fill="none"/>
 <polygon points="140,386 143,390 138,389 140,386" stroke="#000000" fill="#000000"/>
</svg>
