<?xml version="1.0"?>
<svg width="414" height="626" xmlns="http://www.w3.org/2000/svg" version="1.1">
 <polygon points="4,623 4,4 411,4 411,623 4,623" stroke="#ffffff" fill="#ffffff"/>
 <polygon points="341,122 229,122 229,168 341,168 341,122" stroke="#0000ff" fill="#ffffff"/>
 <text x="247" y="138" fill="#000000" font-family="Arial" font-size="12">2 - passive</text>
 <text x="237" y="157" fill="#000000" font-family="Arial" font-size="12">35,5,2,5,14,,3</text>
 <polygon points="285,206 160,252 285,298 410,252 285,206" stroke="#0000ff" fill="#ffffff"/>
 <text x="270" y="245" fill="#000000" font-family="Arial" font-size="12">3 - if</text>
 <text x="231" y="264" fill="#000000" font-family="Arial" font-size="12">5,7,5,7,10,5,4,5</text>
 <polyline points="285,168 285,171 285,174 285,177 285,180 285,184 285,187 285,190 285,193 285,197 285,200" stroke="#000000" fill="none"/>
 <polygon points="287,201 285,206 283,201 287,201" stroke="#000000" fill="#000000"/>
 <polygon points="358,4 212,4 212,83 358,83 358,4" stroke="#006400" fill="#ffffff"/>
 <text x="220" y="20" fill="#000000" font-family="Arial" font-size="12">1 - passive-implicit</text>
 <text x="260" y="39" fill="#000000" font-family="Arial" font-size="12">36,,,,,,2</text>
 <text x="270" y="72" fill="#000000" font-family="Arial" font-size="12">start</text>
 <polyline points="285,84 285,87 285,91 285,94 285,97 285,101 285,104 285,108 285,111 285,114 285,117" stroke="#000000" fill="none"/>
 <polygon points="287,117 285,122 283,117 287,117" stroke="#000000" fill="#000000"/>
 <polygon points="270,354 168,354 168,400 270,400 270,354" stroke="#0000ff" fill="#ffffff"/>
 <text x="181" y="370" fill="#000000" font-family="Arial" font-size="12">4 - passive</text>
 <text x="176" y="389" fill="#000000" font-family="Arial" font-size="12">35,8,4,8,4,,5</text>
 <polyline points="265,291 262,297 259,303 256,309 252,315 249,321 246,327 242,333 239,338 236,344 233,349" stroke="#00ff00" fill="none"/>
 <text x="250" y="328" fill="#000000" font-family="Arial" font-size="12">yes</text>
 <polygon points="235,350 231,354 232,349 235,350" stroke="#00ff00" fill="#00ff00"/>
 <polygon points="339,448 219,448 219,494 339,494 339,448" stroke="#0000ff" fill="#ffffff"/>
 <text x="249" y="464" fill="#000000" font-family="Arial" font-size="12">6 - return</text>
 <text x="227" y="483" fill="#000000" font-family="Arial" font-size="12">30,10,2,10,9,,9</text>
 <polyline points="284,298 284,312 283,326 283,341 282,357 282,373 282,388 281,403 281,418 280,431 280,443" stroke="#ff0000" fill="none"/>
 <text x="283" y="379" fill="#000000" font-family="Arial" font-size="12">no</text>
 <polygon points="281,443 280,448 278,443 281,443" stroke="#ff0000" fill="#ff0000"/>
 <polyline points="234,400 236,404 239,408 242,413 245,417 248,422 251,426 253,430 256,435 259,439 262,443" stroke="#000000" fill="none"/>
 <polygon points="263,443 265,448 260,445 263,443" stroke="#000000" fill="#000000"/>
 <polygon points="229,542 75,542 75,621 229,621 229,542" stroke="#a52a2a" fill="#ffffff"/>
 <text x="83" y="558" fill="#000000" font-family="Arial" font-size="12">10 - passive-implicit</text>
 <text x="131" y="577" fill="#000000" font-family="Arial" font-size="12">36,,,,,,</text>
 <text x="139" y="610" fill="#000000" font-family="Arial" font-size="12">end</text>
 <polyline points="253,494 248,498 244,502 239,507 233,511 228,516 223,520 217,525 212,530 206,534 201,539" stroke="#000000" fill="none"/>
 <polygon points="202,541 197,542 200,538 202,541" stroke="#000000" fill="#000000"/>
 <polygon points="200,438 4,438 4,503 200,503 200,438" stroke="#ff0000" fill="#ffffff"/>
 <text x="64" y="454" fill="#000000" font-family="Arial" font-size="12">7 - passive</text>
 <text x="12" y="473" fill="#000000" font-family="Arial" font-size="12">35,12,0,12,0,,88 - passive</text>
 <text x="50" y="492" fill="#000000" font-family="Arial" font-size="12">35,13,0,13,0,,9</text>
 <polyline points="116,504 118,507 119,510 121,513 122,517 124,520 126,524 127,527 129,530 130,534 132,537" stroke="#000000" fill="none"/>
 <polygon points="134,537 134,542 131,538 134,537" stroke="#000000" fill="#000000"/>
</svg>
