<?xml version="1.0"?>
<svg width="786" height="1048" xmlns="http://www.w3.org/2000/svg" version="1.1">
 <polygon points="4,1045 4,4 783,4 783,1045 4,1045" stroke="#ffffff" fill="#ffffff"/>
 <polygon points="369,122 191,122 191,187 369,187 369,122" stroke="#0000ff" fill="#ffffff"/>
 <text x="242" y="138" fill="#000000" font-family="Arial" font-size="12">2 - passive</text>
 <text x="199" y="157" fill="#000000" font-family="Arial" font-size="12">35,3,2,3,6,,33 - passive</text>
 <text x="232" y="176" fill="#000000" font-family="Arial" font-size="12">35,4,2,4,24,,4</text>
 <polygon points="280,226 137,272 280,318 423,272 280,226" stroke="#0000ff" fill="#ffffff"/>
 <text x="265" y="265" fill="#000000" font-family="Arial" font-size="12">4 - if</text>
 <text x="217" y="284" fill="#000000" font-family="Arial" font-size="12">5,5,6,5,17,14,5,10</text>
 <polyline points="280,188 280,191 280,194 280,197 280,200 280,204 280,207 280,210 280,214 280,217 280,221" stroke="#000000" fill="none"/>
 <polygon points="282,221 280,226 278,221 282,221" stroke="#000000" fill="#000000"/>
 <polygon points="353,4 207,4 207,83 353,83 353,4" stroke="#006400" fill="#ffffff"/>
 <text x="215" y="20" fill="#000000" font-family="Arial" font-size="12">1 - passive-implicit</text>
 <text x="255" y="39" fill="#000000" font-family="Arial" font-size="12">36,,,,,,2</text>
 <text x="265" y="72" fill="#000000" font-family="Arial" font-size="12">start</text>
 <polyline points="280,84 280,87 280,91 280,94 280,97 280,101 280,104 280,107 280,110 280,114 280,117" stroke="#000000" fill="none"/>
 <polygon points="282,117 280,122 278,117 282,117" stroke="#000000" fill="#000000"/>
 <polygon points="262,397 160,397 160,443 262,443 262,397" stroke="#0000ff" fill="#ffffff"/>
 <text x="173" y="413" fill="#000000" font-family="Arial" font-size="12">5 - passive</text>
 <text x="168" y="432" fill="#000000" font-family="Arial" font-size="12">35,6,0,6,0,,6</text>
 <polyline points="262,312 258,320 254,328 250,336 246,345 242,353 238,362 234,370 231,378 227,385 224,392" stroke="#00ff00" fill="none"/>
 <text x="250" y="348" fill="#000000" font-family="Arial" font-size="12">yes</text>
 <polygon points="225,393 222,397 222,391 225,393" stroke="#00ff00" fill="#00ff00"/>
 <polygon points="442,374 281,420 442,466 603,420 442,374" stroke="#0000ff" fill="#ffffff"/>
 <text x="423" y="413" fill="#000000" font-family="Arial" font-size="12">11 - if</text>
 <text x="370" y="432" fill="#000000" font-family="Arial" font-size="12">5,8,13,8,13,13,12,13</text>
 <polyline points="317,306 325,313 333,320 341,328 350,336 358,344 367,351 375,359 384,367 392,374 400,381" stroke="#ff0000" fill="none"/>
 <text x="372" y="348" fill="#000000" font-family="Arial" font-size="12">no</text>
 <polygon points="401,380 404,385 399,383 401,380" stroke="#ff0000" fill="#ff0000"/>
 <ellipse cx="98" cy="555" rx="94" ry="33" stroke="#0000ff" fill="#ffffff"/>
 <text x="58" y="548" fill="#000000" font-family="Arial" font-size="12">6 - while-for</text>
 <text x="39" y="567" fill="#000000" font-family="Arial" font-size="12">10,7,8,7,18,8,7,9</text>
 <polyline points="192,443 186,450 180,457 174,464 167,472 161,480 154,489 147,497 140,505 133,513 127,520" stroke="#000000" fill="none"/>
 <polygon points="128,521 124,524 126,519 128,521" stroke="#000000" fill="#000000"/>
 <polygon points="573,532 453,532 453,578 573,578 573,532" stroke="#0000ff" fill="#ffffff"/>
 <text x="471" y="548" fill="#000000" font-family="Arial" font-size="12">12 - passive</text>
 <text x="461" y="567" fill="#000000" font-family="Arial" font-size="12">35,9,4,9,15,,13</text>
 <polyline points="463,460 466,467 470,474 474,481 477,488 481,495 485,502 488,508 492,515 496,521 499,527" stroke="#00ff00" fill="none"/>
 <text x="485" y="496" fill="#000000" font-family="Arial" font-size="12">yes</text>
 <polygon points="500,526 501,532 497,528 500,526" stroke="#00ff00" fill="#00ff00"/>
 <ellipse cx="440" cy="677" rx="126" ry="33" stroke="#0000ff" fill="#ffffff"/>
 <text x="396" y="670" fill="#000000" font-family="Arial" font-size="12">15 - while-for</text>
 <text x="359" y="689" fill="#000000" font-family="Arial" font-size="12">10,12,6,12,20,21,16,22</text>
 <polyline points="434,464 433,469 432,475 431,481 430,487 430,493 429,499 428,504 427,510 427,516 426,522 425,530 425,537 425,544 425,549 425,555 425,561 425,566 425,573 425,580 426,588 426,593 427,598 427,603 428,609 429,614 430,619 430,624 431,629 432,634 433,639" stroke="#ff0000" fill="none"/>
 <text x="427" y="557" fill="#000000" font-family="Arial" font-size="12">no</text>
 <polygon points="435,639 434,644 431,640 435,639" stroke="#ff0000" fill="#ff0000"/>
 <polygon points="174,654 54,654 54,700 174,700 174,654" stroke="#0000ff" fill="#ffffff"/>
 <text x="76" y="670" fill="#000000" font-family="Arial" font-size="12">7 - passive</text>
 <text x="62" y="689" fill="#000000" font-family="Arial" font-size="12">35,7,20,7,20,,8</text>
 <polyline points="95,588 95,592 95,595 95,599 95,603 95,607 95,611 96,615 96,619 96,622 97,626 97,628 98,630 98,633 99,635 99,637 100,639 101,642 101,644 102,647 103,649" stroke="#00ff00" fill="none"/>
 <text x="97" y="618" fill="#000000" font-family="Arial" font-size="12">yes</text>
 <polygon points="105,648 105,654 101,649 105,648" stroke="#00ff00" fill="#00ff00"/>
 <polyline points="163,579 181,585 199,592 219,599 240,606 261,613 282,621 303,628 324,635 343,642 362,649" stroke="#ff0000" fill="none"/>
 <text x="291" y="618" fill="#000000" font-family="Arial" font-size="12">no</text>
 <polygon points="363,647 367,650 362,650 363,647" stroke="#ff0000" fill="#ff0000"/>
 <polyline points="120,654 121,650 121,645 122,640 122,636 122,631 123,626 122,621 122,616 122,611 121,606 121,605 120,603 120,602 119,600 119,599 119,597 118,596 118,595 117,593 117,592" stroke="#000000" fill="none"/>
 <polygon points="115,592 115,587 118,591 115,592" stroke="#000000" fill="#000000"/>
 <polygon points="410,766 249,812 410,858 571,812 410,766" stroke="#0000ff" fill="#ffffff"/>
 <text x="391" y="805" fill="#000000" font-family="Arial" font-size="12">16 - if</text>
 <text x="338" y="824" fill="#000000" font-family="Arial" font-size="12">5,13,8,13,8,18,17,18</text>
 <polyline points="433,710 432,715 431,720 429,725 428,731 427,736 426,742 425,747 423,753 422,759 421,764" stroke="#00ff00" fill="none"/>
 <text x="429" y="740" fill="#000000" font-family="Arial" font-size="12">yes</text>
 <polygon points="422,764 420,769 419,763 422,764" stroke="#00ff00" fill="#00ff00"/>
 <polygon points="782,772 628,772 628,851 782,851 782,772" stroke="#a52a2a" fill="#ffffff"/>
 <text x="636" y="788" fill="#000000" font-family="Arial" font-size="12">23 - passive-implicit</text>
 <text x="684" y="807" fill="#000000" font-family="Arial" font-size="12">36,,,,,,</text>
 <text x="692" y="840" fill="#000000" font-family="Arial" font-size="12">end</text>
 <polyline points="537,698 545,700 553,703 561,705 568,708 576,711 584,714 591,717 599,721 606,724 613,728 619,731 624,735 630,739 636,743 641,747 646,751 652,756 657,760 661,765 666,769" stroke="#ff0000" fill="none"/>
 <text x="642" y="740" fill="#000000" font-family="Arial" font-size="12">no</text>
 <polygon points="668,768 670,772 665,770 668,768" stroke="#ff0000" fill="#ff0000"/>
 <polyline points="500,578 497,583 493,589 489,595 485,601 481,608 477,614 473,621 470,628 466,634 462,640" stroke="#000000" fill="none"/>
 <polygon points="463,641 459,645 460,639 463,641" stroke="#000000" fill="#000000"/>
 <polygon points="619,914 471,914 471,960 619,960 619,914" stroke="#0000ff" fill="#ffffff"/>
 <text x="501" y="930" fill="#000000" font-family="Arial" font-size="12">17 - continue</text>
 <text x="479" y="949" fill="#000000" font-family="Arial" font-size="12">33,13,13,13,13,,15</text>
 <polyline points="448,847 455,853 462,860 469,866 476,873 483,879 490,886 497,892 504,898 511,904 517,910" stroke="#00ff00" fill="none"/>
 <text x="497" y="888" fill="#000000" font-family="Arial" font-size="12">yes</text>
 <polygon points="518,909 521,914 516,912 518,909" stroke="#00ff00" fill="#00ff00"/>
 <polygon points="400,914 270,914 270,960 400,960 400,914" stroke="#0000ff" fill="#ffffff"/>
 <text x="293" y="930" fill="#000000" font-family="Arial" font-size="12">19 - passive</text>
 <text x="278" y="949" fill="#000000" font-family="Arial" font-size="12">35,14,4,14,8,,20</text>
 <polyline points="386,852 383,858 379,863 376,869 372,875 369,881 365,887 361,893 358,898 354,904 351,909" stroke="#ff0000" fill="none"/>
 <text x="372" y="888" fill="#000000" font-family="Arial" font-size="12">no</text>
 <polygon points="353,910 349,914 350,908 353,910" stroke="#ff0000" fill="#ff0000"/>
 <polyline points="559,914 565,903 571,890 577,876 582,861 586,845 589,829 591,813 590,797 586,781 580,766 575,758 570,751 564,744 558,738 552,732 544,726 537,721 530,716 522,711 514,707" stroke="#000000" fill="none"/>
 <polygon points="513,708 510,704 515,705 513,708" stroke="#000000" fill="#000000"/>
 <polygon points="315,998 195,998 195,1044 315,1044 315,998" stroke="#0000ff" fill="#ffffff"/>
 <text x="224" y="1014" fill="#000000" font-family="Arial" font-size="12">20 - goto</text>
 <text x="203" y="1033" fill="#000000" font-family="Arial" font-size="12">28,15,4,15,9,,5</text>
 <polyline points="313,960 310,963 307,967 304,970 300,974 297,977 293,980 290,984 287,987 283,991 280,994" stroke="#000000" fill="none"/>
 <polygon points="281,996 277,998 279,993 281,996" stroke="#000000" fill="#000000"/>
 <polyline points="240,998 237,993 235,988 232,982 229,976 227,970 225,964 223,957 222,951 221,944 221,938 221,834 221,751 221,686 221,637 221,602 221,579 221,564 221,557 221,554 221,554 221,543 221,531 220,520 219,508 219,497 218,486 217,476 216,466 215,457 214,448" stroke="#000000" fill="none"/>
 <polygon points="212,448 214,443 216,448 212,448" stroke="#000000" fill="#000000"/>
</svg>
