<?xml version="1.0"?>
<svg width="212" height="306" xmlns="http://www.w3.org/2000/svg" version="1.1">
 <polygon points="4,303 4,4 209,4 209,303 4,303" stroke="#ffffff" fill="#ffffff"/>
 <polygon points="208,120 4,120 4,185 208,185 208,120" stroke="#0000ff" fill="#ffffff"/>
 <text x="68" y="136" fill="#000000" font-family="Arial" font-size="12">2 - passive</text>
 <text x="12" y="155" fill="#000000" font-family="Arial" font-size="12">35,21,2,21,11,,33 - passive</text>
 <text x="54" y="174" fill="#000000" font-family="Arial" font-size="12">35,22,2,22,7,,4</text>
 <polygon points="179,222 33,222 33,301 179,301 179,222" stroke="#a52a2a" fill="#ffffff"/>
 <text x="41" y="238" fill="#000000" font-family="Arial" font-size="12">4 - passive-implicit</text>
 <text x="85" y="257" fill="#000000" font-family="Arial" font-size="12">36,,,,,,</text>
 <text x="93" y="290" fill="#000000" font-family="Arial" font-size="12">end</text>
 <polyline points="106,186 106,189 106,192 106,195 106,198 106,201 106,204 106,207 106,210 106,214 106,217" stroke="#000000" fill="none"/>
 <polygon points="108,217 106,222 104,217 108,217" stroke="#000000" fill="#000000"/>
 <polygon points="179,4 33,4 33,83 179,83 179,4" stroke="#006400" fill="#ffffff"/>
 <text x="41" y="20" fill="#000000" font-family="Arial" font-size="12">1 - passive-implicit</text>
 <text x="81" y="39" fill="#000000" font-family="Arial" font-size="12">36,,,,,,2</text>
 <text x="91" y="72" fill="#000000" font-family="Arial" font-size="12">start</text>
 <polyline points="106,84 106,87 106,90 106,93 106,96 106,100 106,103 106,106 106,109 106,112 106,115" stroke="#000000" fill="none"/>
 <polygon points="108,115 106,120 104,115 108,115" stroke="#000000" fill="#000000"/>
</svg>
