<?xml version="1.0"?>
<svg width="1128" height="712" xmlns="http://www.w3.org/2000/svg" version="1.1">
 <polygon points="4,709 4,4 1125,4 1125,709 4,709" stroke="#ffffff" fill="#ffffff"/>
 <ellipse cx="379" cy="155" rx="106" ry="33" stroke="#0000ff" fill="#ffffff"/>
 <text x="339" y="148" fill="#000000" font-family="Arial" font-size="12">2 - while-for</text>
 <text x="312" y="167" fill="#000000" font-family="Arial" font-size="12">10,5,6,5,28,11,3,12</text>
 <polygon points="317,254 205,254 205,300 317,300 317,254" stroke="#0000ff" fill="#ffffff"/>
 <text x="223" y="270" fill="#000000" font-family="Arial" font-size="12">3 - passive</text>
 <text x="213" y="289" fill="#000000" font-family="Arial" font-size="12">35,6,4,6,57,,4</text>
 <polyline points="349,186 343,192 337,199 331,205 324,212 318,218 311,225 305,232 299,238 293,244 287,250" stroke="#00ff00" fill="none"/>
 <text x="328" y="218" fill="#000000" font-family="Arial" font-size="12">yes</text>
 <polygon points="288,251 283,254 285,249 288,251" stroke="#00ff00" fill="#00ff00"/>
 <ellipse cx="705" cy="277" rx="126" ry="33" stroke="#0000ff" fill="#ffffff"/>
 <text x="661" y="270" fill="#000000" font-family="Arial" font-size="12">13 - while-for</text>
 <text x="624" y="289" fill="#000000" font-family="Arial" font-size="12">10,14,6,14,28,21,14,22</text>
 <polyline points="445,180 462,186 480,193 498,200 517,207 537,214 556,221 575,228 594,235 612,242 629,248" stroke="#ff0000" fill="none"/>
 <text x="563" y="218" fill="#000000" font-family="Arial" font-size="12">no</text>
 <polygon points="630,247 634,250 629,250 630,247" stroke="#ff0000" fill="#ff0000"/>
 <polygon points="452,4 306,4 306,83 452,83 452,4" stroke="#006400" fill="#ffffff"/>
 <text x="314" y="20" fill="#000000" font-family="Arial" font-size="12">1 - passive-implicit</text>
 <text x="354" y="39" fill="#000000" font-family="Arial" font-size="12">36,,,,,,2</text>
 <text x="364" y="72" fill="#000000" font-family="Arial" font-size="12">start</text>
 <polyline points="379,84 379,87 379,91 379,94 379,97 379,101 379,104 379,107 379,110 379,114 379,117" stroke="#000000" fill="none"/>
 <polygon points="381,117 379,122 377,117 381,117" stroke="#000000" fill="#000000"/>
 <polygon points="226,366 101,412 226,458 351,412 226,366" stroke="#0000ff" fill="#ffffff"/>
 <text x="211" y="405" fill="#000000" font-family="Arial" font-size="12">4 - if</text>
 <text x="172" y="424" fill="#000000" font-family="Arial" font-size="12">5,7,8,7,8,10,5,6</text>
 <polyline points="255,300 254,306 252,312 251,318 249,324 247,331 245,338 244,345 242,352 240,358 238,365" stroke="#000000" fill="none"/>
 <polygon points="240,365 237,370 236,365 240,365" stroke="#000000" fill="#000000"/>
 <polygon points="840,366 670,412 840,458 1010,412 840,366" stroke="#0000ff" fill="#ffffff"/>
 <text x="821" y="405" fill="#000000" font-family="Arial" font-size="12">14 - if</text>
 <text x="763" y="424" fill="#000000" font-family="Arial" font-size="12">5,15,8,15,50,20,15,16</text>
 <polyline points="736,309 742,315 748,321 754,327 761,334 768,340 774,347 781,353 787,360 794,366 800,372" stroke="#00ff00" fill="none"/>
 <text x="772" y="340" fill="#000000" font-family="Arial" font-size="12">yes</text>
 <polygon points="802,371 804,376 799,373 802,371" stroke="#00ff00" fill="#00ff00"/>
 <polygon points="613,372 459,372 459,451 613,451 613,372" stroke="#a52a2a" fill="#ffffff"/>
 <text x="467" y="388" fill="#000000" font-family="Arial" font-size="12">23 - passive-implicit</text>
 <text x="515" y="407" fill="#000000" font-family="Arial" font-size="12">36,,,,,,</text>
 <text x="523" y="440" fill="#000000" font-family="Arial" font-size="12">end</text>
 <polyline points="645,306 641,308 638,310 634,312 631,314 627,316 624,319 620,321 617,323 614,326 611,328 607,332 602,336 598,339 593,344 589,348 585,352 581,356 577,360 573,364 569,368" stroke="#ff0000" fill="none"/>
 <text x="612" y="340" fill="#000000" font-family="Arial" font-size="12">no</text>
 <polygon points="571,370 566,372 568,367 571,370" stroke="#ff0000" fill="#ff0000"/>
 <polygon points="116,537 4,537 4,583 116,583 116,537" stroke="#0000ff" fill="#ffffff"/>
 <text x="22" y="553" fill="#000000" font-family="Arial" font-size="12">5 - passive</text>
 <text x="12" y="572" fill="#000000" font-family="Arial" font-size="12">35,8,6,8,6,,10</text>
 <polyline points="190,445 180,453 170,462 160,471 149,481 138,490 128,499 117,509 107,517 98,525 89,533" stroke="#00ff00" fill="none"/>
 <text x="153" y="488" fill="#000000" font-family="Arial" font-size="12">yes</text>
 <polygon points="90,535 85,537 88,532 90,535" stroke="#00ff00" fill="#00ff00"/>
 <polygon points="268,514 134,560 268,606 402,560 268,514" stroke="#0000ff" fill="#ffffff"/>
 <text x="253" y="553" fill="#000000" font-family="Arial" font-size="12">7 - if</text>
 <text x="209" y="572" fill="#000000" font-family="Arial" font-size="12">5,9,15,9,56,9,8,9</text>
 <polyline points="238,454 240,460 241,465 243,471 244,477 246,483 248,489 250,495 251,501 253,507 255,513" stroke="#ff0000" fill="none"/>
 <text x="251" y="488" fill="#000000" font-family="Arial" font-size="12">no</text>
 <polygon points="257,513 256,518 253,514 257,513" stroke="#ff0000" fill="#ff0000"/>
 <polyline points="60,537 60,525 61,510 62,495 64,477 66,459 69,440 73,421 78,402 85,384 92,366 101,348 109,332 117,319 125,307 134,297 144,287 155,277 167,267 180,256 196,244 206,236 217,229 228,222 239,215 251,209 262,203 274,197 285,192 296,187 307,182" stroke="#000000" fill="none"/>
 <polygon points="306,181 312,180 308,184 306,181" stroke="#000000" fill="#000000"/>
 <polyline points="307,527 313,521 319,516 325,509 331,503 337,496 342,489 347,481 352,474 356,466 360,458 370,431 378,402 383,372 387,343 389,314 390,286 389,259 388,234 386,212 384,193" stroke="#ff0000" fill="none"/>
 <text x="389" y="340" fill="#000000" font-family="Arial" font-size="12">no</text>
 <polygon points="382,193 384,188 386,192 382,193" stroke="#ff0000" fill="#ff0000"/>
 <polygon points="440,662 320,662 320,708 440,708 440,662" stroke="#0000ff" fill="#ffffff"/>
 <text x="342" y="678" fill="#000000" font-family="Arial" font-size="12">8 - passive</text>
 <text x="328" y="697" fill="#000000" font-family="Arial" font-size="12">35,10,6,10,6,,9</text>
 <polyline points="299,596 305,602 310,608 316,614 322,621 328,627 334,634 340,640 346,646 351,652 356,658" stroke="#00ff00" fill="none"/>
 <text x="341" y="636" fill="#000000" font-family="Arial" font-size="12">yes</text>
 <polygon points="358,657 360,662 355,659 358,657" stroke="#00ff00" fill="#00ff00"/>
 <polyline points="395,662 400,654 404,646 409,637 414,627 418,617 422,606 425,595 428,584 429,572 430,561 430,484 430,422 430,374 430,338 430,312 430,294 430,284 430,278 430,276 430,276 430,267 428,258 427,249 424,240 421,231 418,223 415,215 411,207 407,199 403,192" stroke="#000000" fill="none"/>
 <polygon points="401,192 400,187 404,191 401,192" stroke="#000000" fill="#000000"/>
 <polygon points="707,537 577,537 577,583 707,583 707,537" stroke="#0000ff" fill="#ffffff"/>
 <text x="600" y="553" fill="#000000" font-family="Arial" font-size="12">15 - passive</text>
 <text x="585" y="572" fill="#000000" font-family="Arial" font-size="12">35,16,6,16,6,,20</text>
 <polyline points="795,446 784,454 772,463 760,472 747,481 734,491 722,500 709,509 698,518 686,526 676,534" stroke="#00ff00" fill="none"/>
 <text x="752" y="488" fill="#000000" font-family="Arial" font-size="12">yes</text>
 <polygon points="677,535 672,537 675,533 677,535" stroke="#00ff00" fill="#00ff00"/>
 <polygon points="904,514 725,560 904,606 1083,560 904,514" stroke="#0000ff" fill="#ffffff"/>
 <text x="885" y="553" fill="#000000" font-family="Arial" font-size="12">17 - if</text>
 <text x="823" y="572" fill="#000000" font-family="Arial" font-size="12">5,17,15,17,56,19,18,19</text>
 <polyline points="858,453 860,459 863,465 866,471 868,477 871,483 874,489 876,496 879,502 882,508 884,514" stroke="#ff0000" fill="none"/>
 <text x="876" y="488" fill="#000000" font-family="Arial" font-size="12">no</text>
 <polygon points="886,513 886,518 883,514 886,513" stroke="#ff0000" fill="#ff0000"/>
 <polyline points="642,537 642,525 642,511 642,495 643,478 645,460 647,441 649,422 652,403 656,384 661,366 663,361 664,355 666,350 669,345 671,339 673,334 676,329 678,324 681,319 683,314" stroke="#000000" fill="none"/>
 <polygon points="682,313 686,309 685,315 682,313" stroke="#000000" fill="#000000"/>
 <polyline points="957,527 964,522 971,516 979,510 985,504 992,497 998,490 1004,482 1010,475 1015,467 1019,458 1024,447 1028,437 1031,428 1034,419 1035,411 1035,402 1033,393 1030,385 1026,376 1019,366 1009,356 996,347 980,339 960,331 939,324 916,317 892,311 867,305 842,300 818,295" stroke="#ff0000" fill="none"/>
 <text x="1035" y="414" fill="#000000" font-family="Arial" font-size="12">no</text>
 <polygon points="817,297 813,294 818,293 817,297" stroke="#ff0000" fill="#ff0000"/>
 <polygon points="1124,662 994,662 994,708 1124,708 1124,662" stroke="#0000ff" fill="#ffffff"/>
 <text x="1017" y="678" fill="#000000" font-family="Arial" font-size="12">18 - passive</text>
 <text x="1002" y="697" fill="#000000" font-family="Arial" font-size="12">35,18,6,18,6,,19</text>
 <polyline points="947,595 955,601 963,608 971,614 980,621 988,627 996,634 1004,641 1012,647 1020,653 1027,659" stroke="#00ff00" fill="none"/>
 <text x="1004" y="636" fill="#000000" font-family="Arial" font-size="12">yes</text>
 <polygon points="1028,657 1031,662 1026,660 1028,657" stroke="#00ff00" fill="#00ff00"/>
 <polyline points="1071,662 1073,657 1076,652 1078,647 1081,642 1083,636 1085,630 1087,624 1089,618 1091,612 1092,606 1098,576 1102,549 1106,524 1107,500 1106,479 1102,457 1096,436 1086,414 1072,391 1055,366 1049,359 1044,353 1038,348 1032,344 1027,341 1020,339 1014,336 1006,334 998,331 989,328 973,323 957,317 941,313 925,308 908,305 891,301 875,298 859,295 843,292 827,290" stroke="#000000" fill="none"/>
 <polygon points="827,292 822,289 827,288 827,292" stroke="#000000" fill="#000000"/>
</svg>
