<?xml version="1.0"?>
<svg width="311" height="560" xmlns="http://www.w3.org/2000/svg" version="1.1">
 <polygon points="4,557 4,4 308,4 308,557 4,557" stroke="#ffffff" fill="#ffffff"/>
 <ellipse cx="167" cy="155" rx="94" ry="33" stroke="#0000ff" fill="#ffffff"/>
 <text x="127" y="148" fill="#000000" font-family="Arial" font-size="12">2 - while-for</text>
 <text x="108" y="167" fill="#000000" font-family="Arial" font-size="12">10,4,6,4,13,7,3,8</text>
 <polygon points="120,244 4,290 120,336 236,290 120,244" stroke="#0000ff" fill="#ffffff"/>
 <text x="105" y="283" fill="#000000" font-family="Arial" font-size="12">3 - if</text>
 <text x="70" y="302" fill="#000000" font-family="Arial" font-size="12">5,5,8,5,8,6,4,6</text>
 <polyline points="134,186 132,188 131,190 129,192 128,194 126,196 125,198 124,200 123,202 122,204 121,206 120,209 119,213 118,216 117,220 117,223 116,227 116,230 115,234 115,237 115,241" stroke="#00ff00" fill="none"/>
 <text x="121" y="218" fill="#000000" font-family="Arial" font-size="12">yes</text>
 <polygon points="116,241 115,246 113,241 116,241" stroke="#00ff00" fill="#00ff00"/>
 <polygon points="307,476 161,476 161,555 307,555 307,476" stroke="#a52a2a" fill="#ffffff"/>
 <text x="169" y="492" fill="#000000" font-family="Arial" font-size="12">9 - passive-implicit</text>
 <text x="213" y="511" fill="#000000" font-family="Arial" font-size="12">36,,,,,,</text>
 <text x="221" y="544" fill="#000000" font-family="Arial" font-size="12">end</text>
 <polyline points="203,185 208,190 213,195 217,200 222,206 227,212 231,218 235,224 239,231 242,237 245,244 252,267 257,292 260,316 262,341 261,365 260,389 257,412 254,434 250,453 246,471" stroke="#ff0000" fill="none"/>
 <text x="263" y="366" fill="#000000" font-family="Arial" font-size="12">no</text>
 <polygon points="248,472 245,476 244,471 248,472" stroke="#ff0000" fill="#ff0000"/>
 <polygon points="169,4 23,4 23,83 169,83 169,4" stroke="#006400" fill="#ffffff"/>
 <text x="31" y="20" fill="#000000" font-family="Arial" font-size="12">1 - passive-implicit</text>
 <text x="71" y="39" fill="#000000" font-family="Arial" font-size="12">36,,,,,,2</text>
 <text x="81" y="72" fill="#000000" font-family="Arial" font-size="12">start</text>
 <polyline points="121,84 123,87 126,91 128,94 131,98 133,101 135,105 137,108 140,112 142,115 144,119" stroke="#000000" fill="none"/>
 <polygon points="145,118 147,123 143,120 145,118" stroke="#000000" fill="#000000"/>
 <polyline points="136,250 137,248 138,245 139,243 140,240 141,238 141,236 142,233 143,231 144,228 145,226 146,223 147,219 149,216 150,212 151,209 152,206 153,202 154,199 155,195 156,192" stroke="#ff0000" fill="none"/>
 <text x="153" y="218" fill="#000000" font-family="Arial" font-size="12">no</text>
 <polygon points="154,192 158,188 158,193 154,192" stroke="#ff0000" fill="#ff0000"/>
 <polygon points="219,392 117,392 117,438 219,438 219,392" stroke="#0000ff" fill="#ffffff"/>
 <text x="137" y="408" fill="#000000" font-family="Arial" font-size="12">4 - break</text>
 <text x="125" y="427" fill="#000000" font-family="Arial" font-size="12">32,6,6,6,6,,8</text>
 <polyline points="135,330 137,336 140,342 142,347 144,353 147,359 149,365 151,371 153,376 155,382 157,387" stroke="#00ff00" fill="none"/>
 <text x="152" y="366" fill="#000000" font-family="Arial" font-size="12">yes</text>
 <polygon points="159,387 159,392 156,388 159,387" stroke="#00ff00" fill="#00ff00"/>
 <polyline points="183,438 185,441 187,444 190,447 192,451 194,454 196,458 198,461 201,465 203,468 205,472" stroke="#000000" fill="none"/>
 <polygon points="207,471 208,476 204,473 207,471" stroke="#000000" fill="#000000"/>
 <polygon points="290,21 188,21 188,67 290,67 290,21" stroke="#ff0000" fill="#ffffff"/>
 <text x="201" y="37" fill="#000000" font-family="Arial" font-size="12">5 - passive</text>
 <text x="196" y="56" fill="#000000" font-family="Arial" font-size="12">35,7,6,7,6,,6</text>
 <polyline points="224,67 221,72 218,77 215,82 212,87 208,92 205,98 201,103 197,109 194,114 190,119" stroke="#000000" fill="none"/>
 <polygon points="192,120 188,123 189,118 192,120" stroke="#000000" fill="#000000"/>
</svg>
