<?xml version="1.0"?>
<svg width="239" height="438" xmlns="http://www.w3.org/2000/svg" version="1.1">
 <polygon points="4,435 4,4 236,4 236,435 4,435" stroke="#ffffff" fill="#ffffff"/>
 <polygon points="101,122 21,168 101,214 181,168 101,122" stroke="#0000ff" fill="#ffffff"/>
 <text x="86" y="161" fill="#000000" font-family="Arial" font-size="12">2 - if</text>
 <text x="69" y="180" fill="#000000" font-family="Arial" font-size="12">5,,,,,4,3,4</text>
 <polygon points="114,270 4,270 4,316 114,316 114,270" stroke="#0000ff" fill="#ffffff"/>
 <text x="29" y="286" fill="#000000" font-family="Arial" font-size="12">3 - return</text>
 <text x="12" y="305" fill="#000000" font-family="Arial" font-size="12">30,7,4,7,11,,6</text>
 <polyline points="88,207 86,213 84,219 82,225 80,231 78,237 76,243 74,249 72,254 70,260 68,265" stroke="#00ff00" fill="none"/>
 <text x="79" y="244" fill="#000000" font-family="Arial" font-size="12">yes</text>
 <polygon points="70,266 67,270 67,264 70,266" stroke="#00ff00" fill="#00ff00"/>
 <polygon points="235,270 133,270 133,316 235,316 235,270" stroke="#0000ff" fill="#ffffff"/>
 <text x="154" y="286" fill="#000000" font-family="Arial" font-size="12">5 - return</text>
 <text x="141" y="305" fill="#000000" font-family="Arial" font-size="12">30,8,2,8,9,,6</text>
 <polyline points="123,202 127,208 131,214 136,220 140,227 145,234 149,240 153,247 158,253 162,259 166,265" stroke="#ff0000" fill="none"/>
 <text x="155" y="244" fill="#000000" font-family="Arial" font-size="12">no</text>
 <polygon points="168,265 169,270 165,267 168,265" stroke="#ff0000" fill="#ff0000"/>
 <polygon points="174,4 28,4 28,83 174,83 174,4" stroke="#006400" fill="#ffffff"/>
 <text x="36" y="20" fill="#000000" font-family="Arial" font-size="12">1 - passive-implicit</text>
 <text x="76" y="39" fill="#000000" font-family="Arial" font-size="12">36,,,,,,2</text>
 <text x="86" y="72" fill="#000000" font-family="Arial" font-size="12">start</text>
 <polyline points="101,84 101,87 101,90 101,93 101,97 101,100 101,104 101,107 101,110 101,114 101,117" stroke="#000000" fill="none"/>
 <polygon points="103,117 101,122 99,117 103,117" stroke="#000000" fill="#000000"/>
 <polygon points="207,354 61,354 61,433 207,433 207,354" stroke="#a52a2a" fill="#ffffff"/>
 <text x="69" y="370" fill="#000000" font-family="Arial" font-size="12">7 - passive-implicit</text>
 <text x="113" y="389" fill="#000000" font-family="Arial" font-size="12">36,,,,,,</text>
 <text x="121" y="422" fill="#000000" font-family="Arial" font-size="12">end</text>
 <polyline points="76,316 78,319 81,322 83,325 86,329 89,332 91,336 94,339 96,343 99,346 101,350" stroke="#000000" fill="none"/>
 <polygon points="103,349 105,354 100,351 103,349" stroke="#000000" fill="#000000"/>
 <polyline points="173,316 171,319 170,322 168,325 167,329 165,332 163,336 161,339 160,343 158,346 156,350" stroke="#000000" fill="none"/>
 <polygon points="157,351 154,354 154,349 157,351" stroke="#000000" fill="#000000"/>
</svg>
