<?xml version="1.0"?>
<svg width="466" height="800" xmlns="http://www.w3.org/2000/svg" version="1.1">
 <polygon points="4,797 4,4 463,4 463,797 4,797" stroke="#ffffff" fill="#ffffff"/>
 <polygon points="231,122 43,122 43,187 231,187 231,122" stroke="#0000ff" fill="#ffffff"/>
 <text x="99" y="138" fill="#000000" font-family="Arial" font-size="12">2 - passive</text>
 <text x="51" y="157" fill="#000000" font-family="Arial" font-size="12">35,7,2,7,49,,33 - passive</text>
 <text x="89" y="176" fill="#000000" font-family="Arial" font-size="12">35,8,2,8,16,,4</text>
 <polygon points="137,226 4,272 137,318 270,272 137,226" stroke="#0000ff" fill="#ffffff"/>
 <text x="122" y="265" fill="#000000" font-family="Arial" font-size="12">4 - if</text>
 <text x="79" y="284" fill="#000000" font-family="Arial" font-size="12">5,9,6,9,11,12,5,6</text>
 <polyline points="137,188 137,191 137,194 137,197 137,200 137,204 137,207 137,210 137,214 137,217 137,221" stroke="#000000" fill="none"/>
 <polygon points="139,221 137,226 135,221 139,221" stroke="#000000" fill="#000000"/>
 <polygon points="210,4 64,4 64,83 210,83 210,4" stroke="#006400" fill="#ffffff"/>
 <text x="72" y="20" fill="#000000" font-family="Arial" font-size="12">1 - passive-implicit</text>
 <text x="112" y="39" fill="#000000" font-family="Arial" font-size="12">36,,,,,,2</text>
 <text x="122" y="72" fill="#000000" font-family="Arial" font-size="12">start</text>
 <polyline points="137,84 137,87 137,91 137,94 137,97 137,101 137,104 137,107 137,110 137,114 137,117" stroke="#000000" fill="none"/>
 <polygon points="139,117 137,122 135,117 139,117" stroke="#000000" fill="#000000"/>
 <polygon points="182,484 46,484 46,530 182,530 182,484" stroke="#0000ff" fill="#ffffff"/>
 <text x="84" y="500" fill="#000000" font-family="Arial" font-size="12">5 - return</text>
 <text x="54" y="519" fill="#000000" font-family="Arial" font-size="12">30,11,4,11,10,,14</text>
 <polyline points="133,317 131,332 130,348 128,365 126,383 125,401 123,418 121,435 120,451 118,466 117,479" stroke="#00ff00" fill="none"/>
 <text x="131" y="348" fill="#000000" font-family="Arial" font-size="12">yes</text>
 <polygon points="118,479 116,484 115,479 118,479" stroke="#00ff00" fill="#00ff00"/>
 <polygon points="302,374 142,420 302,466 462,420 302,374" stroke="#0000ff" fill="#ffffff"/>
 <text x="287" y="413" fill="#000000" font-family="Arial" font-size="12">7 - if</text>
 <text x="230" y="432" fill="#000000" font-family="Arial" font-size="12">5,12,13,12,19,11,8,9</text>
 <polyline points="174,305 182,312 190,320 198,327 207,335 216,343 225,351 234,359 243,366 252,374 260,381" stroke="#ff0000" fill="none"/>
 <text x="231" y="348" fill="#000000" font-family="Arial" font-size="12">no</text>
 <polygon points="261,380 263,385 259,383 261,380" stroke="#ff0000" fill="#ff0000"/>
 <polygon points="221,716 67,716 67,795 221,795 221,716" stroke="#a52a2a" fill="#ffffff"/>
 <text x="75" y="732" fill="#000000" font-family="Arial" font-size="12">15 - passive-implicit</text>
 <text x="123" y="751" fill="#000000" font-family="Arial" font-size="12">36,,,,,,</text>
 <text x="131" y="784" fill="#000000" font-family="Arial" font-size="12">end</text>
 <polyline points="117,530 119,544 121,560 123,577 125,596 127,616 130,637 132,657 135,676 137,694 139,711" stroke="#000000" fill="none"/>
 <polygon points="140,711 139,716 137,712 140,711" stroke="#000000" fill="#000000"/>
 <polygon points="280,548 142,548 142,594 280,594 280,548" stroke="#0000ff" fill="#ffffff"/>
 <text x="173" y="564" fill="#000000" font-family="Arial" font-size="12">8 - passive</text>
 <text x="150" y="583" fill="#000000" font-family="Arial" font-size="12">35,13,4,13,57,,11</text>
 <polyline points="279,459 274,467 269,476 263,485 258,494 252,503 247,511 242,520 237,528 232,536 227,543" stroke="#00ff00" fill="none"/>
 <text x="262" y="509" fill="#000000" font-family="Arial" font-size="12">yes</text>
 <polygon points="229,545 224,548 226,543 229,545" stroke="#00ff00" fill="#00ff00"/>
 <polygon points="436,548 298,548 298,594 436,594 436,548" stroke="#0000ff" fill="#ffffff"/>
 <text x="325" y="564" fill="#000000" font-family="Arial" font-size="12">10 - passive</text>
 <text x="306" y="583" fill="#000000" font-family="Arial" font-size="12">35,15,4,15,68,,11</text>
 <polyline points="320,461 323,469 327,477 331,486 334,494 338,503 342,512 345,520 349,528 352,536 355,543" stroke="#ff0000" fill="none"/>
 <text x="348" y="509" fill="#000000" font-family="Arial" font-size="12">no</text>
 <polygon points="357,542 357,548 354,544 357,542" stroke="#ff0000" fill="#ff0000"/>
 <polygon points="276,632 146,632 146,678 276,678 276,632" stroke="#0000ff" fill="#ffffff"/>
 <text x="176" y="648" fill="#000000" font-family="Arial" font-size="12">13 - return</text>
 <text x="154" y="667" fill="#000000" font-family="Arial" font-size="12">30,17,2,17,9,,14</text>
 <polyline points="211,594 211,597 211,600 211,603 211,607 211,610 211,614 211,617 211,620 211,624 211,627" stroke="#000000" fill="none"/>
 <polygon points="213,627 211,632 209,627 213,627" stroke="#000000" fill="#000000"/>
 <polyline points="325,594 319,597 312,601 305,604 298,608 291,612 284,615 277,619 271,623 264,626 257,630" stroke="#000000" fill="none"/>
 <polygon points="258,631 253,632 257,628 258,631" stroke="#000000" fill="#000000"/>
 <polyline points="196,678 194,681 192,684 189,687 187,691 185,694 183,698 180,701 178,705 175,708 173,712" stroke="#000000" fill="none"/>
 <polygon points="174,713 170,716 172,711 174,713" stroke="#000000" fill="#000000"/>
</svg>
