<?xml version="1.0"?>
<svg width="578" height="754" xmlns="http://www.w3.org/2000/svg" version="1.1">
 <polygon points="4,751 4,4 575,4 575,751 4,751" stroke="#ffffff" fill="#ffffff"/>
 <polygon points="320,122 208,122 208,168 320,168 320,122" stroke="#0000ff" fill="#ffffff"/>
 <text x="226" y="138" fill="#000000" font-family="Arial" font-size="12">2 - passive</text>
 <text x="216" y="157" fill="#000000" font-family="Arial" font-size="12">35,3,2,3,14,,3</text>
 <polygon points="264,206 130,252 264,298 398,252 264,206" stroke="#0000ff" fill="#ffffff"/>
 <text x="249" y="245" fill="#000000" font-family="Arial" font-size="12">3 - if</text>
 <text x="205" y="264" fill="#000000" font-family="Arial" font-size="12">5,4,6,4,28,14,4,8</text>
 <polyline points="264,168 264,171 264,174 264,177 264,180 264,184 264,187 264,190 264,193 264,197 264,200" stroke="#000000" fill="none"/>
 <polygon points="266,201 264,206 262,201 266,201" stroke="#000000" fill="#000000"/>
 <polygon points="337,4 191,4 191,83 337,83 337,4" stroke="#006400" fill="#ffffff"/>
 <text x="199" y="20" fill="#000000" font-family="Arial" font-size="12">1 - passive-implicit</text>
 <text x="239" y="39" fill="#000000" font-family="Arial" font-size="12">36,,,,,,2</text>
 <text x="249" y="72" fill="#000000" font-family="Arial" font-size="12">start</text>
 <polyline points="264,84 264,87 264,91 264,94 264,97 264,101 264,104 264,108 264,111 264,114 264,117" stroke="#000000" fill="none"/>
 <polygon points="266,117 264,122 262,117 266,117" stroke="#000000" fill="#000000"/>
 <polygon points="251,354 139,354 139,400 251,400 251,354" stroke="#0000ff" fill="#ffffff"/>
 <text x="157" y="370" fill="#000000" font-family="Arial" font-size="12">4 - passive</text>
 <text x="147" y="389" fill="#000000" font-family="Arial" font-size="12">35,5,4,5,25,,5</text>
 <polyline points="243,291 240,297 236,303 233,309 230,315 226,321 223,327 219,333 216,338 213,344 210,349" stroke="#00ff00" fill="none"/>
 <text x="228" y="328" fill="#000000" font-family="Arial" font-size="12">yes</text>
 <polygon points="211,350 207,354 208,349 211,350" stroke="#00ff00" fill="#00ff00"/>
 <polygon points="414,438 254,484 414,530 574,484 414,438" stroke="#0000ff" fill="#ffffff"/>
 <text x="399" y="477" fill="#000000" font-family="Arial" font-size="12">9 - if</text>
 <text x="342" y="496" fill="#000000" font-family="Arial" font-size="12">5,9,13,9,32,13,10,11</text>
 <polyline points="288,290 297,303 306,317 316,332 326,348 337,364 347,381 358,397 368,412 377,427 386,441" stroke="#ff0000" fill="none"/>
 <text x="360" y="379" fill="#000000" font-family="Arial" font-size="12">no</text>
 <polygon points="388,440 389,445 385,442 388,440" stroke="#ff0000" fill="#ff0000"/>
 <polygon points="120,438 4,484 120,530 236,484 120,438" stroke="#0000ff" fill="#ffffff"/>
 <text x="105" y="477" fill="#000000" font-family="Arial" font-size="12">5 - if</text>
 <text x="70" y="496" fill="#000000" font-family="Arial" font-size="12">5,6,8,6,8,7,6,7</text>
 <polyline points="179,400 176,404 173,408 170,412 167,417 164,421 161,426 158,430 155,435 151,439 148,444" stroke="#000000" fill="none"/>
 <polygon points="149,445 145,448 147,443 149,445" stroke="#000000" fill="#000000"/>
 <polygon points="349,586 211,586 211,632 349,632 349,586" stroke="#0000ff" fill="#ffffff"/>
 <text x="238" y="602" fill="#000000" font-family="Arial" font-size="12">10 - passive</text>
 <text x="219" y="621" fill="#000000" font-family="Arial" font-size="12">35,10,4,10,12,,13</text>
 <polyline points="376,520 370,526 363,532 356,538 349,545 342,551 335,558 328,564 321,570 314,576 308,582" stroke="#00ff00" fill="none"/>
 <text x="343" y="560" fill="#000000" font-family="Arial" font-size="12">yes</text>
 <polygon points="309,584 304,586 307,581 309,584" stroke="#00ff00" fill="#00ff00"/>
 <polygon points="506,586 368,586 368,632 506,632 506,586" stroke="#0000ff" fill="#ffffff"/>
 <text x="395" y="602" fill="#000000" font-family="Arial" font-size="12">12 - passive</text>
 <text x="376" y="621" fill="#000000" font-family="Arial" font-size="12">35,12,4,12,12,,13</text>
 <polyline points="422,528 423,533 424,539 425,544 426,550 427,555 428,561 429,566 430,571 431,576 432,581" stroke="#ff0000" fill="none"/>
 <text x="429" y="560" fill="#000000" font-family="Arial" font-size="12">no</text>
 <polygon points="434,581 433,586 430,581 434,581" stroke="#ff0000" fill="#ff0000"/>
 <polygon points="139,586 27,586 27,632 139,632 139,586" stroke="#0000ff" fill="#ffffff"/>
 <text x="45" y="602" fill="#000000" font-family="Arial" font-size="12">6 - passive</text>
 <text x="35" y="621" fill="#000000" font-family="Arial" font-size="12">35,7,6,7,14,,7</text>
 <polyline points="108,525 106,531 104,537 103,542 101,548 99,554 97,560 96,565 94,571 93,576 91,581" stroke="#00ff00" fill="none"/>
 <text x="101" y="560" fill="#000000" font-family="Arial" font-size="12">yes</text>
 <polygon points="93,582 90,586 89,581 93,582" stroke="#00ff00" fill="#00ff00"/>
 <polygon points="284,670 130,670 130,749 284,749 284,670" stroke="#a52a2a" fill="#ffffff"/>
 <text x="138" y="686" fill="#000000" font-family="Arial" font-size="12">15 - passive-implicit</text>
 <text x="186" y="705" fill="#000000" font-family="Arial" font-size="12">36,,,,,,</text>
 <text x="194" y="738" fill="#000000" font-family="Arial" font-size="12">end</text>
 <polyline points="135,524 140,537 145,550 150,564 156,579 162,594 168,609 174,624 180,639 185,653 190,666" stroke="#ff0000" fill="none"/>
 <text x="178" y="611" fill="#000000" font-family="Arial" font-size="12">no</text>
 <polygon points="192,665 192,670 189,666 192,665" stroke="#ff0000" fill="#ff0000"/>
 <polyline points="111,632 115,635 119,638 123,642 127,645 132,649 136,652 141,656 145,660 150,663 154,667" stroke="#000000" fill="none"/>
 <polygon points="155,666 158,670 153,668 155,666" stroke="#000000" fill="#000000"/>
 <polyline points="263,632 261,635 259,638 256,641 254,645 251,648 249,652 246,655 244,659 241,662 239,666" stroke="#000000" fill="none"/>
 <polygon points="240,667 236,670 237,665 240,667" stroke="#000000" fill="#000000"/>
 <polyline points="386,632 377,636 368,640 358,644 349,648 339,652 329,657 319,661 309,665 299,670 289,674" stroke="#000000" fill="none"/>
 <polygon points="290,675 284,676 288,672 290,675" stroke="#000000" fill="#000000"/>
</svg>
