<?xml version="1.0"?>
<svg width="282" height="438" xmlns="http://www.w3.org/2000/svg" version="1.1">
 <polygon points="4,435 4,4 279,4 279,435 4,435" stroke="#ffffff" fill="#ffffff"/>
 <polygon points="129,122 4,168 129,214 254,168 129,122" stroke="#0000ff" fill="#ffffff"/>
 <text x="114" y="161" fill="#000000" font-family="Arial" font-size="12">2 - if</text>
 <text x="75" y="180" fill="#000000" font-family="Arial" font-size="12">5,7,6,7,20,4,3,4</text>
 <polygon points="139,270 29,270 29,316 139,316 139,270" stroke="#0000ff" fill="#ffffff"/>
 <text x="54" y="286" fill="#000000" font-family="Arial" font-size="12">3 - return</text>
 <text x="37" y="305" fill="#000000" font-family="Arial" font-size="12">30,8,4,8,11,,6</text>
 <polyline points="114,209 112,214 110,220 108,226 106,232 104,237 102,243 100,249 98,254 96,260 94,265" stroke="#00ff00" fill="none"/>
 <text x="106" y="244" fill="#000000" font-family="Arial" font-size="12">yes</text>
 <polygon points="95,266 92,270 92,265 95,266" stroke="#00ff00" fill="#00ff00"/>
 <polygon points="278,270 158,270 158,316 278,316 278,270" stroke="#0000ff" fill="#ffffff"/>
 <text x="188" y="286" fill="#000000" font-family="Arial" font-size="12">5 - return</text>
 <text x="166" y="305" fill="#000000" font-family="Arial" font-size="12">30,10,2,10,9,,6</text>
 <polyline points="155,205 159,211 164,217 168,223 173,229 177,235 182,242 186,248 191,254 195,259 199,265" stroke="#ff0000" fill="none"/>
 <text x="187" y="244" fill="#000000" font-family="Arial" font-size="12">no</text>
 <polygon points="200,265 202,270 197,267 200,265" stroke="#ff0000" fill="#ff0000"/>
 <polygon points="202,4 56,4 56,83 202,83 202,4" stroke="#006400" fill="#ffffff"/>
 <text x="64" y="20" fill="#000000" font-family="Arial" font-size="12">1 - passive-implicit</text>
 <text x="104" y="39" fill="#000000" font-family="Arial" font-size="12">36,,,,,,2</text>
 <text x="114" y="72" fill="#000000" font-family="Arial" font-size="12">start</text>
 <polyline points="129,84 129,87 129,90 129,93 129,97 129,100 129,104 129,107 129,110 129,114 129,117" stroke="#000000" fill="none"/>
 <polygon points="131,117 129,122 127,117 131,117" stroke="#000000" fill="#000000"/>
 <polygon points="237,354 91,354 91,433 237,433 237,354" stroke="#a52a2a" fill="#ffffff"/>
 <text x="99" y="370" fill="#000000" font-family="Arial" font-size="12">7 - passive-implicit</text>
 <text x="143" y="389" fill="#000000" font-family="Arial" font-size="12">36,,,,,,</text>
 <text x="151" y="422" fill="#000000" font-family="Arial" font-size="12">end</text>
 <polyline points="102,316 104,319 107,323 110,326 112,330 115,333 118,336 121,340 124,343 127,347 130,350" stroke="#000000" fill="none"/>
 <polygon points="131,349 133,354 128,352 131,349" stroke="#000000" fill="#000000"/>
 <polyline points="206,316 204,319 202,322 201,325 199,329 197,332 195,336 193,339 192,343 190,346 188,350" stroke="#000000" fill="none"/>
 <polygon points="189,351 185,354 186,349 189,351" stroke="#000000" fill="#000000"/>
</svg>
