<?xml version="1.0"?>
<svg width="294" height="522" xmlns="http://www.w3.org/2000/svg" version="1.1">
 <polygon points="4,519 4,4 291,4 291,519 4,519" stroke="#ffffff" fill="#ffffff"/>
 <polygon points="212,122 82,122 82,168 212,168 212,122" stroke="#0000ff" fill="#ffffff"/>
 <text x="109" y="138" fill="#000000" font-family="Arial" font-size="12">2 - passive</text>
 <text x="90" y="157" fill="#000000" font-family="Arial" font-size="12">35,13,2,13,10,,3</text>
 <polygon points="147,206 4,252 147,298 290,252 147,206" stroke="#0000ff" fill="#ffffff"/>
 <text x="132" y="245" fill="#000000" font-family="Arial" font-size="12">3 - if</text>
 <text x="84" y="264" fill="#000000" font-family="Arial" font-size="12">5,14,6,14,40,5,4,5</text>
 <polyline points="147,168 147,171 147,174 147,177 147,180 147,184 147,187 147,190 147,193 147,197 147,200" stroke="#000000" fill="none"/>
 <polygon points="149,201 147,206 145,201 149,201" stroke="#000000" fill="#000000"/>
 <polygon points="220,4 74,4 74,83 220,83 220,4" stroke="#006400" fill="#ffffff"/>
 <text x="82" y="20" fill="#000000" font-family="Arial" font-size="12">1 - passive-implicit</text>
 <text x="122" y="39" fill="#000000" font-family="Arial" font-size="12">36,,,,,,2</text>
 <text x="132" y="72" fill="#000000" font-family="Arial" font-size="12">start</text>
 <polyline points="147,84 147,87 147,91 147,94 147,97 147,101 147,104 147,108 147,111 147,114 147,117" stroke="#000000" fill="none"/>
 <polygon points="149,117 147,122 145,117 149,117" stroke="#000000" fill="#000000"/>
 <polygon points="135,354 15,354 15,400 135,400 135,354" stroke="#0000ff" fill="#ffffff"/>
 <text x="37" y="370" fill="#000000" font-family="Arial" font-size="12">4 - passive</text>
 <text x="23" y="389" fill="#000000" font-family="Arial" font-size="12">35,15,4,15,4,,5</text>
 <polyline points="125,291 122,297 118,303 115,309 111,315 108,321 104,327 101,333 97,338 94,344 91,349" stroke="#00ff00" fill="none"/>
 <text x="109" y="328" fill="#000000" font-family="Arial" font-size="12">yes</text>
 <polygon points="92,350 88,354 89,349 92,350" stroke="#00ff00" fill="#00ff00"/>
 <polygon points="214,438 68,438 68,517 214,517 214,438" stroke="#a52a2a" fill="#ffffff"/>
 <text x="76" y="454" fill="#000000" font-family="Arial" font-size="12">6 - passive-implicit</text>
 <text x="120" y="473" fill="#000000" font-family="Arial" font-size="12">36,,,,,,</text>
 <text x="128" y="506" fill="#000000" font-family="Arial" font-size="12">end</text>
 <polyline points="146,298 146,307 146,316 146,326 146,337 145,347 145,358 145,368 145,379 144,390 144,400 144,403 144,407 144,410 144,413 144,417 143,420 143,423 143,426 143,430 143,433" stroke="#ff0000" fill="none"/>
 <text x="147" y="379" fill="#000000" font-family="Arial" font-size="12">no</text>
 <polygon points="145,433 143,438 141,433 145,433" stroke="#ff0000" fill="#ff0000"/>
 <polyline points="90,400 92,403 94,406 97,409 99,413 101,416 103,420 105,423 108,427 110,430 112,434" stroke="#000000" fill="none"/>
 <polygon points="114,433 115,438 111,435 114,433" stroke="#000000" fill="#000000"/>
</svg>
