<?xml version="1.0"?>
<svg width="367" height="566" xmlns="http://www.w3.org/2000/svg" version="1.1">
 <polygon points="4,563 4,4 364,4 364,563 4,563" stroke="#ffffff" fill="#ffffff"/>
 <polygon points="247,122 131,168 247,214 363,168 247,122" stroke="#0000ff" fill="#ffffff"/>
 <text x="232" y="161" fill="#000000" font-family="Arial" font-size="12">2 - if</text>
 <text x="197" y="180" fill="#000000" font-family="Arial" font-size="12">5,3,6,3,6,8,3,6</text>
 <polygon points="242,270 140,270 140,316 242,316 242,270" stroke="#0000ff" fill="#ffffff"/>
 <text x="153" y="286" fill="#000000" font-family="Arial" font-size="12">3 - passive</text>
 <text x="148" y="305" fill="#000000" font-family="Arial" font-size="12">35,4,4,4,8,,4</text>
 <polyline points="230,207 227,213 225,219 222,225 219,231 216,237 213,243 211,249 208,254 205,260 203,265" stroke="#00ff00" fill="none"/>
 <text x="217" y="244" fill="#000000" font-family="Arial" font-size="12">yes</text>
 <polygon points="205,266 201,270 202,265 205,266" stroke="#00ff00" fill="#00ff00"/>
 <polygon points="328,334 218,334 218,380 328,380 328,334" stroke="#0000ff" fill="#ffffff"/>
 <text x="243" y="350" fill="#000000" font-family="Arial" font-size="12">7 - return</text>
 <text x="226" y="369" fill="#000000" font-family="Arial" font-size="12">30,8,4,8,11,,9</text>
 <polyline points="253,212 255,223 256,235 258,247 260,260 261,272 263,285 265,297 266,308 268,319 269,329" stroke="#ff0000" fill="none"/>
 <text x="259" y="244" fill="#000000" font-family="Arial" font-size="12">no</text>
 <polygon points="271,329 270,334 268,329 271,329" stroke="#ff0000" fill="#ff0000"/>
 <polygon points="320,4 174,4 174,83 320,83 320,4" stroke="#006400" fill="#ffffff"/>
 <text x="182" y="20" fill="#000000" font-family="Arial" font-size="12">1 - passive-implicit</text>
 <text x="222" y="39" fill="#000000" font-family="Arial" font-size="12">36,,,,,,2</text>
 <text x="232" y="72" fill="#000000" font-family="Arial" font-size="12">start</text>
 <polyline points="247,84 247,87 247,90 247,93 247,97 247,100 247,104 247,107 247,110 247,114 247,117" stroke="#000000" fill="none"/>
 <polygon points="249,117 247,122 245,117 249,117" stroke="#000000" fill="#000000"/>
 <polygon points="245,398 135,398 135,444 245,444 245,398" stroke="#0000ff" fill="#ffffff"/>
 <text x="160" y="414" fill="#000000" font-family="Arial" font-size="12">4 - return</text>
 <text x="143" y="433" fill="#000000" font-family="Arial" font-size="12">30,5,4,5,11,,9</text>
 <polyline points="191,316 191,323 191,330 191,338 191,346 191,354 190,362 190,370 190,378 190,386 190,393" stroke="#000000" fill="none"/>
 <polygon points="192,393 190,398 188,393 192,393" stroke="#000000" fill="#000000"/>
 <polygon points="267,482 113,482 113,561 267,561 267,482" stroke="#a52a2a" fill="#ffffff"/>
 <text x="121" y="498" fill="#000000" font-family="Arial" font-size="12">10 - passive-implicit</text>
 <text x="169" y="517" fill="#000000" font-family="Arial" font-size="12">36,,,,,,</text>
 <text x="177" y="550" fill="#000000" font-family="Arial" font-size="12">end</text>
 <polyline points="271,380 270,386 269,392 268,398 267,405 266,411 264,418 262,425 259,431 257,438 254,444 252,448 250,451 248,455 246,458 244,462 241,465 239,469 237,472 234,475 232,478" stroke="#000000" fill="none"/>
 <polygon points="233,480 228,482 230,477 233,480" stroke="#000000" fill="#000000"/>
 <polyline points="190,444 190,447 190,450 190,453 190,457 190,460 190,464 190,467 190,470 190,474 190,477" stroke="#000000" fill="none"/>
 <polygon points="192,477 190,482 188,477 192,477" stroke="#000000" fill="#000000"/>
 <polygon points="116,398 4,398 4,444 116,444 116,398" stroke="#ff0000" fill="#ffffff"/>
 <text x="22" y="414" fill="#000000" font-family="Arial" font-size="12">5 - passive</text>
 <text x="12" y="433" fill="#000000" font-family="Arial" font-size="12">35,6,4,6,14,,8</text>
 <polyline points="89,444 93,447 98,451 102,454 107,458 111,461 116,465 121,468 125,472 130,475 135,479" stroke="#000000" fill="none"/>
 <polygon points="136,478 139,482 134,481 136,478" stroke="#000000" fill="#000000"/>
</svg>
