<?xml version="1.0"?>
<svg width="301" height="328" xmlns="http://www.w3.org/2000/svg" version="1.1">
 <polygon points="4,325 4,4 298,4 298,325 4,325" stroke="#ffffff" fill="#ffffff"/>
 <ellipse cx="111" cy="155" rx="107" ry="33" stroke="#0000ff" fill="#ffffff"/>
 <text x="71" y="148" fill="#000000" font-family="Arial" font-size="12">2 - while-for</text>
 <text x="43" y="167" fill="#000000" font-family="Arial" font-size="12">10,12,6,12,20,4,3,5</text>
 <polygon points="132,261 12,261 12,307 132,307 132,261" stroke="#0000ff" fill="#ffffff"/>
 <text x="34" y="277" fill="#000000" font-family="Arial" font-size="12">3 - passive</text>
 <text x="20" y="296" fill="#000000" font-family="Arial" font-size="12">35,13,4,13,6,,4</text>
 <polyline points="83,186 82,188 81,190 79,192 78,194 77,196 76,198 75,200 74,202 74,204 73,206 72,211 70,216 70,221 69,226 68,231 68,236 68,241 68,246 68,250 68,255" stroke="#00ff00" fill="none"/>
 <text x="73" y="218" fill="#000000" font-family="Arial" font-size="12">yes</text>
 <polygon points="70,256 69,261 67,256 70,256" stroke="#00ff00" fill="#00ff00"/>
 <polygon points="297,244 151,244 151,323 297,323 297,244" stroke="#a52a2a" fill="#ffffff"/>
 <text x="159" y="260" fill="#000000" font-family="Arial" font-size="12">6 - passive-implicit</text>
 <text x="203" y="279" fill="#000000" font-family="Arial" font-size="12">36,,,,,,</text>
 <text x="211" y="312" fill="#000000" font-family="Arial" font-size="12">end</text>
 <polyline points="138,187 143,192 147,197 152,202 157,208 162,213 167,219 171,224 176,229 181,235 186,240" stroke="#ff0000" fill="none"/>
 <text x="172" y="218" fill="#000000" font-family="Arial" font-size="12">no</text>
 <polygon points="188,239 190,244 185,242 188,239" stroke="#ff0000" fill="#ff0000"/>
 <polygon points="184,4 38,4 38,83 184,83 184,4" stroke="#006400" fill="#ffffff"/>
 <text x="46" y="20" fill="#000000" font-family="Arial" font-size="12">1 - passive-implicit</text>
 <text x="86" y="39" fill="#000000" font-family="Arial" font-size="12">36,,,,,,2</text>
 <text x="96" y="72" fill="#000000" font-family="Arial" font-size="12">start</text>
 <polyline points="111,84 111,87 111,91 111,94 111,97 111,101 111,104 111,107 111,110 111,114 111,117" stroke="#000000" fill="none"/>
 <polygon points="113,117 111,122 109,117 113,117" stroke="#000000" fill="#000000"/>
 <polyline points="83,261 84,258 86,255 87,251 89,248 90,244 92,241 93,237 94,233 96,230 97,226 98,223 99,219 100,216 101,213 101,210 102,206 103,203 104,200 104,196 105,193" stroke="#000000" fill="none"/>
 <polygon points="103,192 106,188 107,193 103,192" stroke="#000000" fill="#000000"/>
</svg>
