<?xml version="1.0"?>
<svg width="529" height="754" xmlns="http://www.w3.org/2000/svg" version="1.1">
 <polygon points="4,751 4,4 526,4 526,751 4,751" stroke="#ffffff" fill="#ffffff"/>
 <polygon points="233,122 121,122 121,168 233,168 233,122" stroke="#0000ff" fill="#ffffff"/>
 <text x="139" y="138" fill="#000000" font-family="Arial" font-size="12">2 - passive</text>
 <text x="129" y="157" fill="#000000" font-family="Arial" font-size="12">35,4,2,4,32,,3</text>
 <polygon points="177,206 43,252 177,298 311,252 177,206" stroke="#0000ff" fill="#ffffff"/>
 <text x="162" y="245" fill="#000000" font-family="Arial" font-size="12">3 - if</text>
 <text x="118" y="264" fill="#000000" font-family="Arial" font-size="12">5,6,6,6,15,12,4,8</text>
 <polyline points="177,168 177,171 177,174 177,177 177,180 177,184 177,187 177,190 177,193 177,197 177,200" stroke="#000000" fill="none"/>
 <polygon points="179,201 177,206 175,201 179,201" stroke="#000000" fill="#000000"/>
 <polygon points="250,4 104,4 104,83 250,83 250,4" stroke="#006400" fill="#ffffff"/>
 <text x="112" y="20" fill="#000000" font-family="Arial" font-size="12">1 - passive-implicit</text>
 <text x="152" y="39" fill="#000000" font-family="Arial" font-size="12">36,,,,,,2</text>
 <text x="162" y="72" fill="#000000" font-family="Arial" font-size="12">start</text>
 <polyline points="177,84 177,87 177,91 177,94 177,97 177,101 177,104 177,108 177,111 177,114 177,117" stroke="#000000" fill="none"/>
 <polygon points="179,117 177,122 175,117 179,117" stroke="#000000" fill="#000000"/>
 <ellipse cx="98" cy="400" rx="94" ry="33" stroke="#0000ff" fill="#ffffff"/>
 <text x="58" y="393" fill="#000000" font-family="Arial" font-size="12">4 - while-for</text>
 <text x="39" y="412" fill="#000000" font-family="Arial" font-size="12">10,7,8,7,13,6,5,7</text>
 <polyline points="156,291 152,298 148,305 145,312 141,320 137,327 132,334 128,342 125,349 121,356 117,363" stroke="#00ff00" fill="none"/>
 <text x="143" y="328" fill="#000000" font-family="Arial" font-size="12">yes</text>
 <polygon points="119,364 115,368 116,362 119,364" stroke="#00ff00" fill="#00ff00"/>
 <polygon points="368,354 211,400 368,446 525,400 368,354" stroke="#0000ff" fill="#ffffff"/>
 <text x="353" y="393" fill="#000000" font-family="Arial" font-size="12">9 - if</text>
 <text x="298" y="412" fill="#000000" font-family="Arial" font-size="12">5,9,11,9,11,11,10,11</text>
 <polyline points="218,284 227,291 237,299 248,307 258,315 269,323 280,331 291,340 301,348 311,356 321,363" stroke="#ff0000" fill="none"/>
 <text x="285" y="328" fill="#000000" font-family="Arial" font-size="12">no</text>
 <polygon points="323,362 325,366 320,365 323,362" stroke="#ff0000" fill="#ff0000"/>
 <polygon points="118,502 16,502 16,548 118,548 118,502" stroke="#0000ff" fill="#ffffff"/>
 <text x="29" y="518" fill="#000000" font-family="Arial" font-size="12">5 - passive</text>
 <text x="24" y="537" fill="#000000" font-family="Arial" font-size="12">35,8,7,8,7,,6</text>
 <polyline points="76,432 74,435 73,438 71,441 69,444 68,448 66,451 65,454 64,457 63,461 62,464 61,467 61,471 60,474 60,477 60,481 60,484 60,487 60,490 61,494 61,497" stroke="#00ff00" fill="none"/>
 <text x="62" y="476" fill="#000000" font-family="Arial" font-size="12">yes</text>
 <polygon points="63,497 62,502 59,497 63,497" stroke="#00ff00" fill="#00ff00"/>
 <polygon points="328,586 198,586 198,632 328,632 328,586" stroke="#0000ff" fill="#ffffff"/>
 <text x="228" y="602" fill="#000000" font-family="Arial" font-size="12">13 - return</text>
 <text x="206" y="621" fill="#000000" font-family="Arial" font-size="12">30,12,2,12,9,,14</text>
 <polyline points="107,433 111,443 115,454 119,466 125,478 130,490 137,502 144,514 151,526 159,537 168,548 172,552 176,556 180,560 184,564 189,567 194,571 198,574 203,577 208,580 213,583" stroke="#ff0000" fill="none"/>
 <text x="169" y="527" fill="#000000" font-family="Arial" font-size="12">no</text>
 <polygon points="214,582 217,586 212,585 214,582" stroke="#ff0000" fill="#ff0000"/>
 <polygon points="332,502 194,502 194,548 332,548 332,502" stroke="#0000ff" fill="#ffffff"/>
 <text x="221" y="518" fill="#000000" font-family="Arial" font-size="12">10 - passive</text>
 <text x="202" y="537" fill="#000000" font-family="Arial" font-size="12">35,10,4,10,13,,11</text>
 <polyline points="337,437 332,443 327,449 321,456 316,462 310,468 305,475 300,481 295,487 290,492 285,498" stroke="#00ff00" fill="none"/>
 <text x="313" y="476" fill="#000000" font-family="Arial" font-size="12">yes</text>
 <polygon points="286,499 282,502 284,497 286,499" stroke="#00ff00" fill="#00ff00"/>
 <polyline points="368,446 367,456 366,466 365,476 363,486 361,497 358,508 355,518 351,528 346,538 341,548 338,552 336,556 333,560 329,564 326,567 322,571 319,574 315,577 311,580 307,583" stroke="#ff0000" fill="none"/>
 <text x="360" y="527" fill="#000000" font-family="Arial" font-size="12">no</text>
 <polygon points="308,585 303,586 306,582 308,585" stroke="#ff0000" fill="#ff0000"/>
 <polyline points="79,502 80,500 81,498 81,497 82,495 83,493 84,491 84,489 85,488 85,486 86,484 87,479 88,475 89,470 90,465 91,461 92,456 93,451 94,447 94,442 95,438" stroke="#000000" fill="none"/>
 <polygon points="93,437 96,433 97,438 93,437" stroke="#000000" fill="#000000"/>
 <polygon points="340,670 186,670 186,749 340,749 340,670" stroke="#a52a2a" fill="#ffffff"/>
 <text x="194" y="686" fill="#000000" font-family="Arial" font-size="12">14 - passive-implicit</text>
 <text x="242" y="705" fill="#000000" font-family="Arial" font-size="12">36,,,,,,</text>
 <text x="250" y="738" fill="#000000" font-family="Arial" font-size="12">end</text>
 <polyline points="263,632 263,635 263,638 263,641 263,645 263,648 263,652 263,655 263,658 263,662 263,665" stroke="#000000" fill="none"/>
 <polygon points="265,665 263,670 261,665 265,665" stroke="#000000" fill="#000000"/>
 <polyline points="263,548 263,551 263,554 263,557 263,561 263,564 263,568 263,571 263,574 263,578 263,581" stroke="#000000" fill="none"/>
 <polygon points="265,581 263,586 261,581 265,581" stroke="#000000" fill="#000000"/>
</svg>
