<?xml version="1.0"?>
<svg width="333" height="882" xmlns="http://www.w3.org/2000/svg" version="1.1">
 <polygon points="4,879 4,4 330,4 330,879 4,879" stroke="#ffffff" fill="#ffffff"/>
 <polygon points="251,122 139,122 139,168 251,168 251,122" stroke="#0000ff" fill="#ffffff"/>
 <text x="157" y="138" fill="#000000" font-family="Arial" font-size="12">2 - passive</text>
 <text x="147" y="157" fill="#000000" font-family="Arial" font-size="12">35,3,2,3,52,,3</text>
 <polygon points="195,206 61,252 195,298 329,252 195,206" stroke="#0000ff" fill="#ffffff"/>
 <text x="180" y="245" fill="#000000" font-family="Arial" font-size="12">3 - if</text>
 <text x="136" y="264" fill="#000000" font-family="Arial" font-size="12">5,4,6,4,33,10,4,8</text>
 <polyline points="195,168 195,171 195,174 195,177 195,180 195,184 195,187 195,190 195,193 195,197 195,200" stroke="#000000" fill="none"/>
 <polygon points="197,201 195,206 193,201 197,201" stroke="#000000" fill="#000000"/>
 <polygon points="268,4 122,4 122,83 268,83 268,4" stroke="#006400" fill="#ffffff"/>
 <text x="130" y="20" fill="#000000" font-family="Arial" font-size="12">1 - passive-implicit</text>
 <text x="170" y="39" fill="#000000" font-family="Arial" font-size="12">36,,,,,,2</text>
 <text x="180" y="72" fill="#000000" font-family="Arial" font-size="12">start</text>
 <polyline points="195,84 195,87 195,91 195,94 195,97 195,101 195,104 195,108 195,111 195,114 195,117" stroke="#000000" fill="none"/>
 <polygon points="197,117 195,122 193,117 197,117" stroke="#000000" fill="#000000"/>
 <polygon points="191,354 79,354 79,400 191,400 191,354" stroke="#0000ff" fill="#ffffff"/>
 <text x="97" y="370" fill="#000000" font-family="Arial" font-size="12">4 - passive</text>
 <text x="87" y="389" fill="#000000" font-family="Arial" font-size="12">35,6,4,6,25,,5</text>
 <polyline points="176,292 173,298 170,303 167,309 165,315 162,321 159,327 156,333 153,338 150,344 148,349" stroke="#00ff00" fill="none"/>
 <text x="164" y="328" fill="#000000" font-family="Arial" font-size="12">yes</text>
 <polygon points="150,350 146,354 147,348 150,350" stroke="#00ff00" fill="#00ff00"/>
 <polygon points="318,418 180,418 180,464 318,464 318,418" stroke="#0000ff" fill="#ffffff"/>
 <text x="211" y="434" fill="#000000" font-family="Arial" font-size="12">9 - passive</text>
 <text x="188" y="453" fill="#000000" font-family="Arial" font-size="12">35,13,4,13,12,,10</text>
 <polyline points="207,294 210,305 214,317 217,330 221,343 224,355 228,368 232,380 235,392 238,403 241,413" stroke="#ff0000" fill="none"/>
 <text x="220" y="328" fill="#000000" font-family="Arial" font-size="12">no</text>
 <polygon points="243,412 243,418 240,413 243,412" stroke="#ff0000" fill="#ff0000"/>
 <polygon points="120,482 4,528 120,574 236,528 120,482" stroke="#0000ff" fill="#ffffff"/>
 <text x="105" y="521" fill="#000000" font-family="Arial" font-size="12">5 - if</text>
 <text x="70" y="540" fill="#000000" font-family="Arial" font-size="12">5,7,8,7,8,7,6,7</text>
 <polyline points="133,400 132,407 132,414 131,421 130,429 129,437 129,445 128,454 127,462 126,470 125,478" stroke="#000000" fill="none"/>
 <polygon points="127,479 124,484 123,478 127,479" stroke="#000000" fill="#000000"/>
 <polygon points="277,714 147,714 147,760 277,760 277,714" stroke="#0000ff" fill="#ffffff"/>
 <text x="178" y="730" fill="#000000" font-family="Arial" font-size="12">11 - return</text>
 <text x="155" y="749" fill="#000000" font-family="Arial" font-size="12">30,15,2,15,9,,12</text>
 <polyline points="249,464 249,472 249,482 249,492 249,503 249,515 248,526 248,538 247,550 246,562 245,574 243,589 241,603 238,618 236,633 233,648 230,661 227,675 224,687 222,699 219,709" stroke="#000000" fill="none"/>
 <polygon points="221,709 218,714 217,709 221,709" stroke="#000000" fill="#000000"/>
 <polygon points="176,630 64,630 64,676 176,676 176,630" stroke="#0000ff" fill="#ffffff"/>
 <text x="82" y="646" fill="#000000" font-family="Arial" font-size="12">6 - passive</text>
 <text x="72" y="665" fill="#000000" font-family="Arial" font-size="12">35,8,6,8,15,,7</text>
 <polyline points="120,574 120,579 120,584 120,590 120,595 120,600 120,605 120,610 120,615 120,620 120,624" stroke="#00ff00" fill="none"/>
 <text x="120" y="604" fill="#000000" font-family="Arial" font-size="12">yes</text>
 <polygon points="122,625 120,630 118,625 122,625" stroke="#00ff00" fill="#00ff00"/>
 <polyline points="146,564 150,570 154,576 159,582 163,589 167,596 171,602 175,609 178,616 182,623 185,630 188,638 191,646 194,654 196,663 199,671 201,679 203,687 205,695 206,702 208,709" stroke="#ff0000" fill="none"/>
 <text x="202" y="655" fill="#000000" font-family="Arial" font-size="12">no</text>
 <polygon points="209,709 208,714 206,709 209,709" stroke="#ff0000" fill="#ff0000"/>
 <polyline points="145,676 149,679 152,683 156,686 160,690 164,694 168,697 172,701 176,704 179,708 183,711" stroke="#000000" fill="none"/>
 <polygon points="185,709 187,714 182,712 185,709" stroke="#000000" fill="#000000"/>
 <polygon points="289,798 135,798 135,877 289,877 289,798" stroke="#a52a2a" fill="#ffffff"/>
 <text x="143" y="814" fill="#000000" font-family="Arial" font-size="12">12 - passive-implicit</text>
 <text x="191" y="833" fill="#000000" font-family="Arial" font-size="12">36,,,,,,</text>
 <text x="199" y="866" fill="#000000" font-family="Arial" font-size="12">end</text>
 <polyline points="212,760 212,763 212,766 212,769 212,773 212,776 212,780 212,783 212,786 212,790 212,793" stroke="#000000" fill="none"/>
 <polygon points="214,793 212,798 210,793 214,793" stroke="#000000" fill="#000000"/>
</svg>
