<?xml version="1.0"?>
<svg width="204" height="426" xmlns="http://www.w3.org/2000/svg" version="1.1">
 <polygon points="4,423 4,4 201,4 201,423 4,423" stroke="#ffffff" fill="#ffffff"/>
 <polygon points="200,120 4,120 4,223 200,223 200,120" stroke="#0000ff" fill="#ffffff"/>
 <text x="64" y="136" fill="#000000" font-family="Arial" font-size="12">2 - passive</text>
 <text x="16" y="155" fill="#000000" font-family="Arial" font-size="12">35,5,2,5,16,,33 - passive</text>
 <text x="21" y="174" fill="#000000" font-family="Arial" font-size="12">35,6,2,9,2,,44 - passive</text>
 <text x="12" y="193" fill="#000000" font-family="Arial" font-size="12">35,11,2,14,2,,55 - passive</text>
 <text x="45" y="212" fill="#000000" font-family="Arial" font-size="12">35,16,2,16,20,,6</text>
 <polygon points="162,260 42,260 42,306 162,306 162,260" stroke="#0000ff" fill="#ffffff"/>
 <text x="72" y="276" fill="#000000" font-family="Arial" font-size="12">6 - return</text>
 <text x="50" y="295" fill="#000000" font-family="Arial" font-size="12">30,17,2,17,9,,7</text>
 <polyline points="102,224 102,227 102,230 102,233 102,236 102,240 102,243 102,246 102,249 102,252 102,255" stroke="#000000" fill="none"/>
 <polygon points="104,255 102,260 100,255 104,255" stroke="#000000" fill="#000000"/>
 <polygon points="175,4 29,4 29,83 175,83 175,4" stroke="#006400" fill="#ffffff"/>
 <text x="37" y="20" fill="#000000" font-family="Arial" font-size="12">1 - passive-implicit</text>
 <text x="77" y="39" fill="#000000" font-family="Arial" font-size="12">36,,,,,,2</text>
 <text x="87" y="72" fill="#000000" font-family="Arial" font-size="12">start</text>
 <polyline points="102,84 102,87 102,90 102,93 102,96 102,100 102,103 102,106 102,109 102,112 102,115" stroke="#000000" fill="none"/>
 <polygon points="104,115 102,120 100,115 104,115" stroke="#000000" fill="#000000"/>
 <polygon points="175,342 29,342 29,421 175,421 175,342" stroke="#a52a2a" fill="#ffffff"/>
 <text x="37" y="358" fill="#000000" font-family="Arial" font-size="12">7 - passive-implicit</text>
 <text x="81" y="377" fill="#000000" font-family="Arial" font-size="12">36,,,,,,</text>
 <text x="89" y="410" fill="#000000" font-family="Arial" font-size="12">end</text>
 <polyline points="102,306 102,309 102,312 102,315 102,318 102,321 102,324 102,327 102,330 102,334 102,337" stroke="#000000" fill="none"/>
 <polygon points="104,337 102,342 100,337 104,337" stroke="#000000" fill="#000000"/>
</svg>
