<?xml version="1.0"?>
<svg width="154" height="368" xmlns="http://www.w3.org/2000/svg" version="1.1">
 <polygon points="4,365 4,4 151,4 151,365 4,365" stroke="#ffffff" fill="#ffffff"/>
 <polygon points="142,120 12,120 12,166 142,166 142,120" stroke="#0000ff" fill="#ffffff"/>
 <text x="39" y="136" fill="#000000" font-family="Arial" font-size="12">2 - passive</text>
 <text x="20" y="155" fill="#000000" font-family="Arial" font-size="12">35,21,2,21,14,,3</text>
 <polygon points="137,202 17,202 17,248 137,248 137,202" stroke="#0000ff" fill="#ffffff"/>
 <text x="47" y="218" fill="#000000" font-family="Arial" font-size="12">3 - return</text>
 <text x="25" y="237" fill="#000000" font-family="Arial" font-size="12">30,22,2,22,9,,4</text>
 <polyline points="77,166 77,169 77,172 77,175 77,178 77,182 77,185 77,188 77,191 77,194 77,197" stroke="#000000" fill="none"/>
 <polygon points="79,197 77,202 75,197 79,197" stroke="#000000" fill="#000000"/>
 <polygon points="150,4 4,4 4,83 150,83 150,4" stroke="#006400" fill="#ffffff"/>
 <text x="12" y="20" fill="#000000" font-family="Arial" font-size="12">1 - passive-implicit</text>
 <text x="52" y="39" fill="#000000" font-family="Arial" font-size="12">36,,,,,,2</text>
 <text x="62" y="72" fill="#000000" font-family="Arial" font-size="12">start</text>
 <polyline points="77,84 77,87 77,90 77,93 77,96 77,100 77,103 77,106 77,109 77,112 77,115" stroke="#000000" fill="none"/>
 <polygon points="79,115 77,120 75,115 79,115" stroke="#000000" fill="#000000"/>
 <polygon points="150,284 4,284 4,363 150,363 150,284" stroke="#a52a2a" fill="#ffffff"/>
 <text x="12" y="300" fill="#000000" font-family="Arial" font-size="12">4 - passive-implicit</text>
 <text x="56" y="319" fill="#000000" font-family="Arial" font-size="12">36,,,,,,</text>
 <text x="64" y="352" fill="#000000" font-family="Arial" font-size="12">end</text>
 <polyline points="77,248 77,251 77,254 77,257 77,260 77,263 77,266 77,269 77,272 77,276 77,279" stroke="#000000" fill="none"/>
 <polygon points="79,279 77,284 75,279 79,279" stroke="#000000" fill="#000000"/>
</svg>
