<?xml version="1.0"?>
<svg width="433" height="748" xmlns="http://www.w3.org/2000/svg" version="1.1">
 <polygon points="4,745 4,4 430,4 430,745 4,745" stroke="#ffffff" fill="#ffffff"/>
 <polygon points="284,122 182,122 182,168 284,168 284,122" stroke="#0000ff" fill="#ffffff"/>
 <text x="195" y="138" fill="#000000" font-family="Arial" font-size="12">2 - passive</text>
 <text x="190" y="157" fill="#000000" font-family="Arial" font-size="12">35,7,2,7,8,,3</text>
 <ellipse cx="233" cy="239" rx="100" ry="33" stroke="#0000ff" fill="#ffffff"/>
 <text x="193" y="232" fill="#000000" font-family="Arial" font-size="12">3 - while-for</text>
 <text x="170" y="251" fill="#000000" font-family="Arial" font-size="12">10,9,9,9,9,10,4,11</text>
 <polyline points="233,168 233,171 233,174 233,177 233,181 233,184 233,188 233,191 233,194 233,198 233,201" stroke="#000000" fill="none"/>
 <polygon points="235,201 233,206 231,201 235,201" stroke="#000000" fill="#000000"/>
 <polygon points="306,4 160,4 160,83 306,83 306,4" stroke="#006400" fill="#ffffff"/>
 <text x="168" y="20" fill="#000000" font-family="Arial" font-size="12">1 - passive-implicit</text>
 <text x="208" y="39" fill="#000000" font-family="Arial" font-size="12">36,,,,,,2</text>
 <text x="218" y="72" fill="#000000" font-family="Arial" font-size="12">start</text>
 <polyline points="233,84 233,87 233,91 233,94 233,97 233,101 233,104 233,108 233,111 233,114 233,117" stroke="#000000" fill="none"/>
 <polygon points="235,117 233,122 231,117 235,117" stroke="#000000" fill="#000000"/>
 <polygon points="335,328 131,328 131,393 335,393 335,328" stroke="#0000ff" fill="#ffffff"/>
 <text x="195" y="344" fill="#000000" font-family="Arial" font-size="12">4 - passive</text>
 <text x="139" y="363" fill="#000000" font-family="Arial" font-size="12">35,11,6,11,57,,55 - passive</text>
 <text x="176" y="382" fill="#000000" font-family="Arial" font-size="12">35,12,6,12,13,,6</text>
 <polyline points="233,272 233,277 233,282 233,287 233,292 233,297 233,302 233,308 233,313 233,318 233,323" stroke="#00ff00" fill="none"/>
 <text x="233" y="302" fill="#000000" font-family="Arial" font-size="12">yes</text>
 <polygon points="235,323 233,328 231,323 235,323" stroke="#00ff00" fill="#00ff00"/>
 <polygon points="158,664 4,664 4,743 158,743 158,664" stroke="#a52a2a" fill="#ffffff"/>
 <text x="12" y="680" fill="#000000" font-family="Arial" font-size="12">13 - passive-implicit</text>
 <text x="60" y="699" fill="#000000" font-family="Arial" font-size="12">36,,,,,,</text>
 <text x="68" y="732" fill="#000000" font-family="Arial" font-size="12">end</text>
 <polyline points="152,258 137,264 122,270 107,277 93,286 80,295 69,306 59,317 52,330 48,344 46,360 46,360 46,362 46,367 46,376 46,391 46,413 46,444 46,485 46,538 46,604 46,610 47,615 47,621 48,627 50,633 51,638 53,644 54,649 56,654 58,659" stroke="#ff0000" fill="none"/>
 <text x="47" y="480" fill="#000000" font-family="Arial" font-size="12">no</text>
 <polygon points="60,659 60,664 57,660 60,659" stroke="#ff0000" fill="#ff0000"/>
 <polygon points="233,432 81,478 233,524 385,478 233,432" stroke="#0000ff" fill="#ffffff"/>
 <text x="218" y="471" fill="#000000" font-family="Arial" font-size="12">6 - if</text>
 <text x="165" y="490" fill="#000000" font-family="Arial" font-size="12">5,13,10,13,16,8,7,8</text>
 <polyline points="233,394 233,397 233,400 233,403 233,406 233,410 233,413 233,416 233,420 233,423 233,427" stroke="#000000" fill="none"/>
 <polygon points="235,427 233,432 231,427 235,427" stroke="#000000" fill="#000000"/>
 <polygon points="231,580 93,580 93,626 231,626 231,580" stroke="#0000ff" fill="#ffffff"/>
 <text x="132" y="596" fill="#000000" font-family="Arial" font-size="12">7 - return</text>
 <text x="101" y="615" fill="#000000" font-family="Arial" font-size="12">30,14,8,14,15,,12</text>
 <polyline points="211,518 208,524 204,529 201,535 197,541 194,547 190,553 187,559 184,564 181,570 178,575" stroke="#00ff00" fill="none"/>
 <text x="196" y="554" fill="#000000" font-family="Arial" font-size="12">yes</text>
 <polygon points="179,576 175,580 176,574 179,576" stroke="#00ff00" fill="#00ff00"/>
 <polygon points="429,580 299,580 299,626 429,626 429,580" stroke="#0000ff" fill="#ffffff"/>
 <text x="326" y="596" fill="#000000" font-family="Arial" font-size="12">9 - passive</text>
 <text x="307" y="615" fill="#000000" font-family="Arial" font-size="12">35,15,6,15,6,,10</text>
 <polyline points="269,513 276,519 283,526 290,532 297,539 304,545 311,552 318,558 324,564 331,570 337,576" stroke="#ff0000" fill="none"/>
 <text x="319" y="554" fill="#000000" font-family="Arial" font-size="12">no</text>
 <polygon points="338,575 340,580 336,578 338,575" stroke="#ff0000" fill="#ff0000"/>
 <polyline points="144,626 141,629 138,633 136,636 133,640 130,643 127,646 124,650 122,653 119,657 116,660" stroke="#000000" fill="none"/>
 <polygon points="117,662 113,664 114,659 117,662" stroke="#000000" fill="#000000"/>
 <polyline points="375,580 377,575 379,570 381,565 384,560 386,554 388,548 389,542 391,536 393,530 394,524 396,513 398,503 399,494 400,486 400,478 400,470 399,462 398,453 396,443 394,432 391,418 388,406 384,395 381,385 377,376 372,367 367,359 360,349 353,339 344,328 339,321 333,315 327,309 321,303 315,297 308,291 301,286 295,281 288,276 282,271" stroke="#000000" fill="none"/>
 <polygon points="281,273 278,268 283,270 281,273" stroke="#000000" fill="#000000"/>
</svg>
