<?xml version="1.0"?>
<svg width="356" height="560" xmlns="http://www.w3.org/2000/svg" version="1.1">
 <polygon points="4,557 4,4 353,4 353,557 4,557" stroke="#ffffff" fill="#ffffff"/>
 <ellipse cx="228" cy="155" rx="88" ry="33" stroke="#0000ff" fill="#ffffff"/>
 <text x="188" y="148" fill="#000000" font-family="Arial" font-size="12">2 - while-for</text>
 <text x="174" y="167" fill="#000000" font-family="Arial" font-size="12">10,2,6,2,9,8,3,9</text>
 <polygon points="120,244 4,290 120,336 236,290 120,244" stroke="#0000ff" fill="#ffffff"/>
 <text x="105" y="283" fill="#000000" font-family="Arial" font-size="12">3 - if</text>
 <text x="70" y="302" fill="#000000" font-family="Arial" font-size="12">5,3,8,3,8,5,4,5</text>
 <polyline points="203,187 198,193 193,199 188,205 183,212 178,218 172,225 167,232 161,238 156,245 151,251" stroke="#00ff00" fill="none"/>
 <text x="187" y="218" fill="#000000" font-family="Arial" font-size="12">yes</text>
 <polygon points="152,252 148,255 149,250 152,252" stroke="#00ff00" fill="#00ff00"/>
 <polygon points="261,476 107,476 107,555 261,555 261,476" stroke="#a52a2a" fill="#ffffff"/>
 <text x="115" y="492" fill="#000000" font-family="Arial" font-size="12">10 - passive-implicit</text>
 <text x="163" y="511" fill="#000000" font-family="Arial" font-size="12">36,,,,,,</text>
 <text x="171" y="544" fill="#000000" font-family="Arial" font-size="12">end</text>
 <polyline points="237,188 242,206 246,226 251,249 255,274 257,300 259,328 259,356 256,384 251,411 244,438 243,442 241,445 240,449 238,452 236,456 234,459 232,463 230,466 227,469 225,472" stroke="#ff0000" fill="none"/>
 <text x="260" y="366" fill="#000000" font-family="Arial" font-size="12">no</text>
 <polygon points="226,474 222,476 224,471 226,474" stroke="#ff0000" fill="#ff0000"/>
 <polygon points="230,4 84,4 84,83 230,83 230,4" stroke="#006400" fill="#ffffff"/>
 <text x="92" y="20" fill="#000000" font-family="Arial" font-size="12">1 - passive-implicit</text>
 <text x="132" y="39" fill="#000000" font-family="Arial" font-size="12">36,,,,,,2</text>
 <text x="142" y="72" fill="#000000" font-family="Arial" font-size="12">start</text>
 <polyline points="182,84 184,87 187,91 189,94 192,98 194,102 196,105 198,109 201,112 203,116 205,119" stroke="#000000" fill="none"/>
 <polygon points="207,118 208,123 204,120 207,118" stroke="#000000" fill="#000000"/>
 <polygon points="114,392 12,392 12,438 114,438 114,392" stroke="#0000ff" fill="#ffffff"/>
 <text x="32" y="408" fill="#000000" font-family="Arial" font-size="12">4 - break</text>
 <text x="20" y="427" fill="#000000" font-family="Arial" font-size="12">32,4,6,4,6,,9</text>
 <polyline points="102,329 100,335 97,341 94,347 91,353 89,359 86,365 83,371 80,376 77,382 75,387" stroke="#00ff00" fill="none"/>
 <text x="90" y="366" fill="#000000" font-family="Arial" font-size="12">yes</text>
 <polygon points="77,388 73,392 74,387 77,388" stroke="#00ff00" fill="#00ff00"/>
 <polygon points="235,392 133,392 133,438 235,438 235,392" stroke="#0000ff" fill="#ffffff"/>
 <text x="153" y="408" fill="#000000" font-family="Arial" font-size="12">6 - break</text>
 <text x="141" y="427" fill="#000000" font-family="Arial" font-size="12">32,5,4,5,4,,9</text>
 <polyline points="140,329 143,335 146,340 149,346 152,352 155,358 158,364 161,370 164,376 167,382 170,387" stroke="#ff0000" fill="none"/>
 <text x="163" y="366" fill="#000000" font-family="Arial" font-size="12">no</text>
 <polygon points="172,386 172,392 169,388 172,386" stroke="#ff0000" fill="#ff0000"/>
 <polyline points="90,438 94,441 98,444 102,448 106,451 111,455 115,458 119,462 124,466 128,469 132,473" stroke="#000000" fill="none"/>
 <polygon points="134,472 136,476 132,474 134,472" stroke="#000000" fill="#000000"/>
 <polyline points="184,438 184,441 184,444 184,447 184,451 184,454 184,458 184,461 184,464 184,468 184,471" stroke="#000000" fill="none"/>
 <polygon points="186,471 184,476 182,471 186,471" stroke="#000000" fill="#000000"/>
 <polygon points="351,21 249,21 249,67 351,67 351,21" stroke="#ff0000" fill="#ffffff"/>
 <text x="262" y="37" fill="#000000" font-family="Arial" font-size="12">7 - passive</text>
 <text x="257" y="56" fill="#000000" font-family="Arial" font-size="12">35,6,4,6,4,,8</text>
 <polyline points="285,67 282,72 279,77 276,82 272,87 269,92 265,98 261,103 258,109 254,114 251,119" stroke="#000000" fill="none"/>
 <polygon points="252,120 248,123 250,118 252,120" stroke="#000000" fill="#000000"/>
</svg>
