<?xml version="1.0"?>
<svg width="698" height="694" xmlns="http://www.w3.org/2000/svg" version="1.1">
 <polygon points="4,691 4,4 695,4 695,691 4,691" stroke="#ffffff" fill="#ffffff"/>
 <polygon points="541,122 353,122 353,187 541,187 541,122" stroke="#0000ff" fill="#ffffff"/>
 <text x="409" y="138" fill="#000000" font-family="Arial" font-size="12">2 - passive</text>
 <text x="361" y="157" fill="#000000" font-family="Arial" font-size="12">35,3,2,3,12,,33 - passive</text>
 <text x="399" y="176" fill="#000000" font-family="Arial" font-size="12">35,4,2,4,25,,4</text>
 <ellipse cx="447" cy="259" rx="107" ry="33" stroke="#0000ff" fill="#ffffff"/>
 <text x="407" y="252" fill="#000000" font-family="Arial" font-size="12">4 - while-for</text>
 <text x="379" y="271" fill="#000000" font-family="Arial" font-size="12">10,5,6,5,28,12,5,13</text>
 <polyline points="447,188 447,191 447,194 447,197 447,201 447,204 447,208 447,211 447,214 447,218 447,221" stroke="#000000" fill="none"/>
 <polygon points="449,221 447,226 445,221 449,221" stroke="#000000" fill="#000000"/>
 <polygon points="520,4 374,4 374,83 520,83 520,4" stroke="#006400" fill="#ffffff"/>
 <text x="382" y="20" fill="#000000" font-family="Arial" font-size="12">1 - passive-implicit</text>
 <text x="422" y="39" fill="#000000" font-family="Arial" font-size="12">36,,,,,,2</text>
 <text x="432" y="72" fill="#000000" font-family="Arial" font-size="12">start</text>
 <polyline points="447,84 447,87 447,91 447,94 447,97 447,101 447,104 447,107 447,110 447,114 447,117" stroke="#000000" fill="none"/>
 <polygon points="449,117 447,122 445,117 449,117" stroke="#000000" fill="#000000"/>
 <polygon points="278,348 145,394 278,440 411,394 278,348" stroke="#0000ff" fill="#ffffff"/>
 <text x="263" y="387" fill="#000000" font-family="Arial" font-size="12">5 - if</text>
 <text x="220" y="406" fill="#000000" font-family="Arial" font-size="12">5,7,8,7,39,11,6,7</text>
 <polyline points="409,290 401,296 393,303 384,310 375,317 366,324 357,331 348,338 339,345 330,352 322,359" stroke="#00ff00" fill="none"/>
 <text x="383" y="322" fill="#000000" font-family="Arial" font-size="12">yes</text>
 <polygon points="323,360 318,362 321,357 323,360" stroke="#00ff00" fill="#00ff00"/>
 <polygon points="675,371 545,371 545,417 675,417 675,371" stroke="#0000ff" fill="#ffffff"/>
 <text x="575" y="387" fill="#000000" font-family="Arial" font-size="12">14 - return</text>
 <text x="553" y="406" fill="#000000" font-family="Arial" font-size="12">30,14,2,14,9,,15</text>
 <polyline points="494,288 497,290 500,292 503,295 506,297 509,299 512,301 515,303 518,306 521,308 524,310 531,316 537,321 544,327 550,333 557,339 563,345 569,351 575,356 581,362 586,367" stroke="#ff0000" fill="none"/>
 <text x="548" y="322" fill="#000000" font-family="Arial" font-size="12">no</text>
 <polygon points="587,366 589,371 585,369 587,366" stroke="#ff0000" fill="#ff0000"/>
 <polygon points="124,519 4,519 4,565 124,565 124,519" stroke="#0000ff" fill="#ffffff"/>
 <text x="26" y="535" fill="#000000" font-family="Arial" font-size="12">6 - passive</text>
 <text x="12" y="554" fill="#000000" font-family="Arial" font-size="12">35,8,6,8,12,,11</text>
 <polyline points="234,425 222,433 209,442 195,452 181,461 167,471 153,481 139,490 125,500 113,508 101,516" stroke="#00ff00" fill="none"/>
 <text x="184" y="470" fill="#000000" font-family="Arial" font-size="12">yes</text>
 <polygon points="101,518 96,519 99,515 101,518" stroke="#00ff00" fill="#00ff00"/>
 <polygon points="312,496 142,542 312,588 482,542 312,496" stroke="#0000ff" fill="#ffffff"/>
 <text x="297" y="535" fill="#000000" font-family="Arial" font-size="12">8 - if</text>
 <text x="235" y="554" fill="#000000" font-family="Arial" font-size="12">5,10,13,10,46,10,9,10</text>
 <polyline points="288,437 289,442 291,448 292,454 293,459 295,465 296,471 297,477 298,483 300,488 301,494" stroke="#ff0000" fill="none"/>
 <text x="299" y="470" fill="#000000" font-family="Arial" font-size="12">no</text>
 <polygon points="303,493 302,499 299,494 303,493" stroke="#ff0000" fill="#ff0000"/>
 <polygon points="693,502 539,502 539,581 693,581 693,502" stroke="#a52a2a" fill="#ffffff"/>
 <text x="547" y="518" fill="#000000" font-family="Arial" font-size="12">15 - passive-implicit</text>
 <text x="595" y="537" fill="#000000" font-family="Arial" font-size="12">36,,,,,,</text>
 <text x="603" y="570" fill="#000000" font-family="Arial" font-size="12">end</text>
 <polyline points="611,417 611,424 612,431 612,439 612,447 613,455 613,464 613,472 613,481 614,489 614,497" stroke="#000000" fill="none"/>
 <polygon points="616,497 614,502 612,497 616,497" stroke="#000000" fill="#000000"/>
 <polyline points="66,519 68,506 70,490 73,473 78,455 84,436 91,417 100,398 110,380 122,363 136,348 153,334 171,321 191,310 211,300 232,292 253,285 275,279 296,274 317,270 337,267" stroke="#000000" fill="none"/>
 <polygon points="337,265 342,266 337,268 337,265" stroke="#000000" fill="#000000"/>
 <polyline points="359,509 366,503 372,498 379,491 386,485 393,478 399,471 405,463 410,456 415,448 420,440 427,426 432,411 437,396 440,381 443,366 445,351 446,336 447,322 448,309 448,297" stroke="#ff0000" fill="none"/>
 <text x="447" y="396" fill="#000000" font-family="Arial" font-size="12">no</text>
 <polygon points="447,297 448,292 450,297 447,297" stroke="#ff0000" fill="#ff0000"/>
 <polygon points="497,644 405,644 405,690 497,690 497,644" stroke="#0000ff" fill="#ffffff"/>
 <text x="413" y="660" fill="#000000" font-family="Arial" font-size="12">9 - passive</text>
 <text x="421" y="679" fill="#000000" font-family="Arial" font-size="12">35,,,,,,10</text>
 <polyline points="351,578 358,584 365,590 373,597 380,603 387,610 395,616 402,622 409,629 416,634 422,640" stroke="#00ff00" fill="none"/>
 <text x="403" y="618" fill="#000000" font-family="Arial" font-size="12">yes</text>
 <polygon points="423,639 426,644 421,642 423,639" stroke="#00ff00" fill="#00ff00"/>
 <polyline points="466,644 469,639 472,634 474,629 477,624 480,618 483,612 485,606 487,600 489,594 491,588 497,556 499,524 499,491 497,458 493,426 487,396 481,367 474,341 467,317 461,297" stroke="#000000" fill="none"/>
 <polygon points="459,297 459,292 462,296 459,297" stroke="#000000" fill="#000000"/>
</svg>
