<?xml version="1.0"?>
<svg width="563" height="1090" xmlns="http://www.w3.org/2000/svg" version="1.1">
 <polygon points="4,1087 4,4 560,4 560,1087 4,1087" stroke="#ffffff" fill="#ffffff"/>
 <polygon points="185,122 73,122 73,168 185,168 185,122" stroke="#0000ff" fill="#ffffff"/>
 <text x="91" y="138" fill="#000000" font-family="Arial" font-size="12">2 - passive</text>
 <text x="81" y="157" fill="#000000" font-family="Arial" font-size="12">35,3,4,3,12,,3</text>
 <polygon points="129,206 4,252 129,298 254,252 129,206" stroke="#0000ff" fill="#ffffff"/>
 <text x="114" y="245" fill="#000000" font-family="Arial" font-size="12">3 - if</text>
 <text x="75" y="264" fill="#000000" font-family="Arial" font-size="12">5,4,8,4,12,5,4,5</text>
 <polyline points="129,168 129,171 129,174 129,177 129,180 129,184 129,187 129,190 129,193 129,197 129,200" stroke="#000000" fill="none"/>
 <polygon points="131,201 129,206 127,201 131,201" stroke="#000000" fill="#000000"/>
 <polygon points="202,4 56,4 56,83 202,83 202,4" stroke="#006400" fill="#ffffff"/>
 <text x="64" y="20" fill="#000000" font-family="Arial" font-size="12">1 - passive-implicit</text>
 <text x="104" y="39" fill="#000000" font-family="Arial" font-size="12">36,,,,,,2</text>
 <text x="114" y="72" fill="#000000" font-family="Arial" font-size="12">start</text>
 <polyline points="129,84 129,87 129,91 129,94 129,97 129,101 129,104 129,108 129,111 129,114 129,117" stroke="#000000" fill="none"/>
 <polygon points="131,117 129,122 127,117 131,117" stroke="#000000" fill="#000000"/>
 <polygon points="126,377 14,377 14,423 126,423 126,377" stroke="#0000ff" fill="#ffffff"/>
 <text x="44" y="393" fill="#000000" font-family="Arial" font-size="12">4 - goto</text>
 <text x="22" y="412" fill="#000000" font-family="Arial" font-size="12">28,5,8,5,13,,7</text>
 <polyline points="113,293 110,301 107,309 103,317 100,325 97,334 93,342 90,350 87,358 84,365 81,372" stroke="#00ff00" fill="none"/>
 <text x="104" y="328" fill="#000000" font-family="Arial" font-size="12">yes</text>
 <polygon points="83,373 79,377 79,371 83,373" stroke="#00ff00" fill="#00ff00"/>
 <polygon points="260,354 144,400 260,446 376,400 260,354" stroke="#0000ff" fill="#ffffff"/>
 <text x="245" y="393" fill="#000000" font-family="Arial" font-size="12">6 - if</text>
 <text x="210" y="412" fill="#000000" font-family="Arial" font-size="12">5,7,8,7,8,9,7,9</text>
 <polyline points="159,287 165,294 172,301 179,309 185,316 193,324 200,332 206,340 213,347 220,355 226,362" stroke="#ff0000" fill="none"/>
 <text x="203" y="328" fill="#000000" font-family="Arial" font-size="12">no</text>
 <polygon points="228,361 230,366 225,363 228,361" stroke="#ff0000" fill="#ff0000"/>
 <polygon points="223,502 45,502 45,567 223,567 223,502" stroke="#0000ff" fill="#ffffff"/>
 <text x="96" y="518" fill="#000000" font-family="Arial" font-size="12">7 - passive</text>
 <text x="53" y="537" fill="#000000" font-family="Arial" font-size="12">35,8,0,8,0,,88 - passive</text>
 <text x="91" y="556" fill="#000000" font-family="Arial" font-size="12">35,9,8,9,9,,9</text>
 <polyline points="81,423 84,430 87,437 90,444 94,452 98,459 102,467 105,475 109,483 113,491 116,498" stroke="#000000" fill="none"/>
 <polygon points="118,497 119,502 115,498 118,497" stroke="#000000" fill="#000000"/>
 <polyline points="229,434 223,440 217,446 211,452 205,459 199,466 192,472 186,479 180,485 174,492 168,498" stroke="#00ff00" fill="none"/>
 <text x="197" y="476" fill="#000000" font-family="Arial" font-size="12">yes</text>
 <polygon points="169,500 164,502 166,498 169,500" stroke="#00ff00" fill="#00ff00"/>
 <polygon points="222,606 62,652 222,698 382,652 222,606" stroke="#0000ff" fill="#ffffff"/>
 <text x="203" y="645" fill="#000000" font-family="Arial" font-size="12">10 - if</text>
 <text x="150" y="664" fill="#000000" font-family="Arial" font-size="12">5,12,8,12,8,12,11,12</text>
 <polyline points="254,444 252,458 249,473 247,489 244,506 242,523 239,540 236,557 234,573 231,589 229,603" stroke="#ff0000" fill="none"/>
 <text x="245" y="537" fill="#000000" font-family="Arial" font-size="12">no</text>
 <polygon points="231,603 229,608 228,602 231,603" stroke="#ff0000" fill="#ff0000"/>
 <polyline points="158,568 161,572 164,576 167,580 171,584 174,589 177,593 181,597 184,602 187,606 190,610" stroke="#000000" fill="none"/>
 <polygon points="192,609 194,614 189,611 192,609" stroke="#000000" fill="#000000"/>
 <polygon points="218,777 80,777 80,823 218,823 218,777" stroke="#0000ff" fill="#ffffff"/>
 <text x="119" y="793" fill="#000000" font-family="Arial" font-size="12">11 - goto</text>
 <text x="88" y="812" fill="#000000" font-family="Arial" font-size="12">28,13,8,13,13,,14</text>
 <polyline points="202,693 198,701 194,709 190,717 186,725 182,734 178,742 174,750 170,758 166,765 162,772" stroke="#00ff00" fill="none"/>
 <text x="190" y="728" fill="#000000" font-family="Arial" font-size="12">yes</text>
 <polygon points="164,773 160,777 161,771 164,773" stroke="#00ff00" fill="#00ff00"/>
 <polygon points="398,754 237,800 398,846 559,800 398,754" stroke="#0000ff" fill="#ffffff"/>
 <text x="379" y="793" fill="#000000" font-family="Arial" font-size="12">13 - if</text>
 <text x="326" y="812" fill="#000000" font-family="Arial" font-size="12">5,15,8,15,8,16,14,16</text>
 <polyline points="262,686 271,693 280,701 289,708 298,716 308,724 317,732 326,740 335,747 344,755 353,762" stroke="#ff0000" fill="none"/>
 <text x="321" y="728" fill="#000000" font-family="Arial" font-size="12">no</text>
 <polygon points="355,761 358,765 353,764 355,761" stroke="#ff0000" fill="#ff0000"/>
 <polygon points="361,902 147,902 147,967 361,967 361,902" stroke="#0000ff" fill="#ffffff"/>
 <text x="212" y="918" fill="#000000" font-family="Arial" font-size="12">14 - passive</text>
 <text x="155" y="937" fill="#000000" font-family="Arial" font-size="12">35,16,0,16,0,,1515 - passive</text>
 <text x="197" y="956" fill="#000000" font-family="Arial" font-size="12">35,17,8,17,9,,16</text>
 <polyline points="167,823 172,830 177,837 183,844 189,852 195,859 202,867 208,875 214,883 220,891 226,898" stroke="#000000" fill="none"/>
 <polygon points="227,897 229,902 224,899 227,897" stroke="#000000" fill="#000000"/>
 <polyline points="361,836 355,842 348,848 341,854 334,861 327,867 319,874 312,880 305,887 298,893 292,899" stroke="#00ff00" fill="none"/>
 <text x="326" y="876" fill="#000000" font-family="Arial" font-size="12">yes</text>
 <polygon points="293,900 288,902 291,898 293,900" stroke="#00ff00" fill="#00ff00"/>
 <polygon points="433,1006 279,1006 279,1085 433,1085 433,1006" stroke="#a52a2a" fill="#ffffff"/>
 <text x="287" y="1022" fill="#000000" font-family="Arial" font-size="12">17 - passive-implicit</text>
 <text x="335" y="1041" fill="#000000" font-family="Arial" font-size="12">36,,,,,,</text>
 <text x="343" y="1074" fill="#000000" font-family="Arial" font-size="12">end</text>
 <polyline points="391,844 389,855 387,866 385,878 383,890 381,903 379,916 376,929 374,942 372,955 370,968 369,971 369,975 368,978 368,981 367,985 366,988 366,991 365,994 365,998 364,1001" stroke="#ff0000" fill="none"/>
 <text x="381" y="937" fill="#000000" font-family="Arial" font-size="12">no</text>
 <polygon points="366,1002 363,1006 362,1001 366,1002" stroke="#ff0000" fill="#ff0000"/>
 <polyline points="284,968 287,971 290,974 293,978 296,981 300,985 303,988 306,992 309,995 313,999 316,1002" stroke="#000000" fill="none"/>
 <polygon points="318,1001 320,1006 315,1004 318,1001" stroke="#000000" fill="#000000"/>
</svg>
