<?xml version="1.0"?>
<svg width="328" height="858" xmlns="http://www.w3.org/2000/svg" version="1.1">
 <polygon points="4,855 4,4 325,4 325,855 4,855" stroke="#ffffff" fill="#ffffff"/>
 <polygon points="243,122 131,122 131,168 243,168 243,122" stroke="#0000ff" fill="#ffffff"/>
 <text x="149" y="138" fill="#000000" font-family="Arial" font-size="12">2 - passive</text>
 <text x="139" y="157" fill="#000000" font-family="Arial" font-size="12">35,3,2,3,10,,3</text>
 <polygon points="187,206 62,252 187,298 312,252 187,206" stroke="#0000ff" fill="#ffffff"/>
 <text x="172" y="245" fill="#000000" font-family="Arial" font-size="12">3 - if</text>
 <text x="133" y="264" fill="#000000" font-family="Arial" font-size="12">5,5,6,5,14,6,4,6</text>
 <polyline points="187,168 187,171 187,174 187,177 187,180 187,184 187,187 187,190 187,193 187,197 187,200" stroke="#000000" fill="none"/>
 <polygon points="189,201 187,206 185,201 189,201" stroke="#000000" fill="#000000"/>
 <polygon points="260,4 114,4 114,83 260,83 260,4" stroke="#006400" fill="#ffffff"/>
 <text x="122" y="20" fill="#000000" font-family="Arial" font-size="12">1 - passive-implicit</text>
 <text x="162" y="39" fill="#000000" font-family="Arial" font-size="12">36,,,,,,2</text>
 <text x="172" y="72" fill="#000000" font-family="Arial" font-size="12">start</text>
 <polyline points="187,84 187,87 187,91 187,94 187,97 187,101 187,104 187,108 187,111 187,114 187,117" stroke="#000000" fill="none"/>
 <polygon points="189,117 187,122 185,117 189,117" stroke="#000000" fill="#000000"/>
 <polygon points="182,354 4,354 4,419 182,419 182,354" stroke="#0000ff" fill="#ffffff"/>
 <text x="55" y="370" fill="#000000" font-family="Arial" font-size="12">4 - passive</text>
 <text x="12" y="389" fill="#000000" font-family="Arial" font-size="12">35,7,4,7,9,,55 - passive</text>
 <text x="50" y="408" fill="#000000" font-family="Arial" font-size="12">35,8,4,8,4,,6</text>
 <polyline points="162,289 158,295 153,301 149,307 145,313 140,320 136,326 131,332 127,338 123,344 119,350" stroke="#00ff00" fill="none"/>
 <text x="140" y="328" fill="#000000" font-family="Arial" font-size="12">yes</text>
 <polygon points="120,351 116,354 117,349 120,351" stroke="#00ff00" fill="#00ff00"/>
 <polygon points="181,458 38,504 181,550 324,504 181,458" stroke="#0000ff" fill="#ffffff"/>
 <text x="166" y="497" fill="#000000" font-family="Arial" font-size="12">7 - if</text>
 <text x="118" y="516" fill="#000000" font-family="Arial" font-size="12">5,13,6,13,14,9,8,9</text>
 <polyline points="190,297 191,308 191,319 192,331 192,343 192,356 193,368 192,381 192,394 192,407 191,420 191,423 190,427 190,430 190,434 190,437 189,440 189,444 189,447 188,451 188,454" stroke="#ff0000" fill="none"/>
 <text x="194" y="389" fill="#000000" font-family="Arial" font-size="12">no</text>
 <polygon points="190,455 187,460 186,454 190,455" stroke="#ff0000" fill="#ff0000"/>
 <polyline points="117,420 120,424 123,428 126,432 130,436 133,441 137,445 140,449 143,454 147,458 150,462" stroke="#000000" fill="none"/>
 <polygon points="151,461 153,466 149,464 151,461" stroke="#000000" fill="#000000"/>
 <polygon points="171,606 41,606 41,652 171,652 171,606" stroke="#0000ff" fill="#ffffff"/>
 <text x="68" y="622" fill="#000000" font-family="Arial" font-size="12">8 - passive</text>
 <text x="49" y="641" fill="#000000" font-family="Arial" font-size="12">35,15,5,15,25,,9</text>
 <polyline points="158,543 154,549 151,555 147,561 143,567 140,573 136,579 132,585 129,590 125,596 122,601" stroke="#00ff00" fill="none"/>
 <text x="142" y="580" fill="#000000" font-family="Arial" font-size="12">yes</text>
 <polygon points="124,602 120,606 121,601 124,602" stroke="#00ff00" fill="#00ff00"/>
 <polygon points="239,690 111,690 111,736 239,736 239,690" stroke="#0000ff" fill="#ffffff"/>
 <text x="140" y="706" fill="#000000" font-family="Arial" font-size="12">10 - return</text>
 <text x="119" y="725" fill="#000000" font-family="Arial" font-size="12">30,17,2,17,9,,11</text>
 <polyline points="182,550 182,559 182,568 182,578 182,589 182,599 182,610 181,620 181,631 181,642 180,652 180,655 180,659 180,662 180,665 179,669 179,672 179,675 179,678 178,682 178,685" stroke="#ff0000" fill="none"/>
 <text x="183" y="631" fill="#000000" font-family="Arial" font-size="12">no</text>
 <polygon points="179,685 177,690 176,685 179,685" stroke="#ff0000" fill="#ff0000"/>
 <polyline points="125,652 128,655 131,659 133,662 136,666 139,669 142,672 145,676 147,679 150,683 153,686" stroke="#000000" fill="none"/>
 <polygon points="155,685 156,690 152,687 155,685" stroke="#000000" fill="#000000"/>
 <polygon points="252,774 98,774 98,853 252,853 252,774" stroke="#a52a2a" fill="#ffffff"/>
 <text x="106" y="790" fill="#000000" font-family="Arial" font-size="12">11 - passive-implicit</text>
 <text x="154" y="809" fill="#000000" font-family="Arial" font-size="12">36,,,,,,</text>
 <text x="162" y="842" fill="#000000" font-family="Arial" font-size="12">end</text>
 <polyline points="175,736 175,739 175,742 175,745 175,749 175,752 175,756 175,759 175,762 175,766 175,769" stroke="#000000" fill="none"/>
 <polygon points="177,769 175,774 173,769 177,769" stroke="#000000" fill="#000000"/>
</svg>
