<?xml version="1.0"?>
<svg width="497" height="942" xmlns="http://www.w3.org/2000/svg" version="1.1">
 <polygon points="4,939 4,4 494,4 494,939 4,939" stroke="#ffffff" fill="#ffffff"/>
 <polygon points="415,122 303,122 303,168 415,168 415,122" stroke="#0000ff" fill="#ffffff"/>
 <text x="321" y="138" fill="#000000" font-family="Arial" font-size="12">2 - passive</text>
 <text x="311" y="157" fill="#000000" font-family="Arial" font-size="12">35,3,4,3,12,,3</text>
 <polygon points="359,206 225,252 359,298 493,252 359,206" stroke="#0000ff" fill="#ffffff"/>
 <text x="344" y="245" fill="#000000" font-family="Arial" font-size="12">3 - if</text>
 <text x="300" y="264" fill="#000000" font-family="Arial" font-size="12">5,4,8,4,8,12,4,12</text>
 <polyline points="359,168 359,171 359,174 359,177 359,180 359,184 359,187 359,190 359,193 359,197 359,200" stroke="#000000" fill="none"/>
 <polygon points="361,201 359,206 357,201 361,201" stroke="#000000" fill="#000000"/>
 <polygon points="432,4 286,4 286,83 432,83 432,4" stroke="#006400" fill="#ffffff"/>
 <text x="294" y="20" fill="#000000" font-family="Arial" font-size="12">1 - passive-implicit</text>
 <text x="334" y="39" fill="#000000" font-family="Arial" font-size="12">36,,,,,,2</text>
 <text x="344" y="72" fill="#000000" font-family="Arial" font-size="12">start</text>
 <polyline points="359,84 359,87 359,91 359,94 359,97 359,101 359,104 359,108 359,111 359,114 359,117" stroke="#000000" fill="none"/>
 <polygon points="361,117 359,122 357,117 361,117" stroke="#000000" fill="#000000"/>
 <polygon points="352,364 240,364 240,410 352,410 352,364" stroke="#0000ff" fill="#ffffff"/>
 <text x="270" y="380" fill="#000000" font-family="Arial" font-size="12">4 - goto</text>
 <text x="248" y="399" fill="#000000" font-family="Arial" font-size="12">28,6,8,6,13,,7</text>
 <polyline points="341,292 338,298 334,305 331,312 328,319 324,326 321,333 318,340 315,347 312,353 309,359" stroke="#00ff00" fill="none"/>
 <text x="327" y="328" fill="#000000" font-family="Arial" font-size="12">yes</text>
 <polygon points="310,360 306,364 307,359 310,360" stroke="#00ff00" fill="#00ff00"/>
 <polygon points="426,858 272,858 272,937 426,937 426,858" stroke="#a52a2a" fill="#ffffff"/>
 <text x="280" y="874" fill="#000000" font-family="Arial" font-size="12">13 - passive-implicit</text>
 <text x="328" y="893" fill="#000000" font-family="Arial" font-size="12">36,,,,,,</text>
 <text x="336" y="926" fill="#000000" font-family="Arial" font-size="12">end</text>
 <polyline points="369,295 371,303 372,311 374,320 375,329 376,339 378,348 379,358 379,367 380,377 380,386 380,386 380,389 380,397 380,412 380,438 380,475 380,527 380,597 380,686 380,798 380,804 379,809 379,815 378,821 377,827 375,832 374,838 372,843 371,849 369,854" stroke="#ff0000" fill="none"/>
 <text x="381" y="590" fill="#000000" font-family="Arial" font-size="12">no</text>
 <polygon points="370,854 367,858 367,853 370,854" stroke="#ff0000" fill="#ff0000"/>
 <polygon points="225,458 123,458 123,504 225,504 225,458" stroke="#0000ff" fill="#ffffff"/>
 <text x="136" y="474" fill="#000000" font-family="Arial" font-size="12">7 - passive</text>
 <text x="131" y="493" fill="#000000" font-family="Arial" font-size="12">35,9,0,9,0,,8</text>
 <polyline points="267,410 261,414 256,418 250,423 244,427 238,432 231,437 225,442 219,446 214,451 208,455" stroke="#000000" fill="none"/>
 <polygon points="208,456 203,458 206,453 208,456" stroke="#000000" fill="#000000"/>
 <polygon points="174,542 4,588 174,634 344,588 174,542" stroke="#0000ff" fill="#ffffff"/>
 <text x="159" y="581" fill="#000000" font-family="Arial" font-size="12">8 - if</text>
 <text x="97" y="600" fill="#000000" font-family="Arial" font-size="12">5,10,12,10,12,10,9,10</text>
 <polyline points="174,504 174,507 174,510 174,513 174,516 174,520 174,523 174,526 174,529 174,533 174,536" stroke="#000000" fill="none"/>
 <polygon points="176,537 174,542 172,537 176,537" stroke="#000000" fill="#000000"/>
 <polygon points="221,354 43,354 43,419 221,419 221,354" stroke="#ff0000" fill="#ffffff"/>
 <text x="94" y="370" fill="#000000" font-family="Arial" font-size="12">5 - passive</text>
 <text x="51" y="389" fill="#000000" font-family="Arial" font-size="12">35,7,0,7,0,,66 - passive</text>
 <text x="89" y="408" fill="#000000" font-family="Arial" font-size="12">35,8,8,8,9,,7</text>
 <polyline points="146,420 148,423 149,427 151,430 152,433 154,437 156,440 157,444 159,447 160,450 162,453" stroke="#000000" fill="none"/>
 <polygon points="163,453 164,458 160,454 163,453" stroke="#000000" fill="#000000"/>
 <polygon points="247,690 101,690 101,736 247,736 247,690" stroke="#0000ff" fill="#ffffff"/>
 <text x="136" y="706" fill="#000000" font-family="Arial" font-size="12">9 - passive</text>
 <text x="109" y="725" fill="#000000" font-family="Arial" font-size="12">35,11,12,11,12,,10</text>
 <polyline points="174,634 174,639 174,644 174,650 174,655 174,660 174,665 174,670 174,675 174,680 174,684" stroke="#00ff00" fill="none"/>
 <text x="174" y="664" fill="#000000" font-family="Arial" font-size="12">yes</text>
 <polygon points="176,685 174,690 172,685 176,685" stroke="#00ff00" fill="#00ff00"/>
 <polygon points="348,774 218,774 218,820 348,820 348,774" stroke="#0000ff" fill="#ffffff"/>
 <text x="241" y="790" fill="#000000" font-family="Arial" font-size="12">11 - passive</text>
 <text x="226" y="809" fill="#000000" font-family="Arial" font-size="12">35,12,8,12,9,,12</text>
 <polyline points="209,625 214,631 219,636 224,642 229,649 234,655 239,662 244,669 248,676 252,683 256,690 260,698 263,706 266,714 269,722 271,731 273,739 275,747 277,755 278,762 279,769" stroke="#ff0000" fill="none"/>
 <text x="273" y="715" fill="#000000" font-family="Arial" font-size="12">no</text>
 <polygon points="281,769 280,774 278,769 281,769" stroke="#ff0000" fill="#ff0000"/>
 <polyline points="203,736 208,739 212,743 217,746 222,750 226,754 231,757 236,761 240,764 245,768 249,771" stroke="#000000" fill="none"/>
 <polygon points="251,769 253,774 248,772 251,769" stroke="#000000" fill="#000000"/>
 <polyline points="298,820 300,823 302,826 305,829 307,833 309,836 311,840 313,843 316,847 318,850 320,854" stroke="#000000" fill="none"/>
 <polygon points="322,853 323,858 319,855 322,853" stroke="#000000" fill="#000000"/>
</svg>
